<?xml version="1.0" encoding="UTF-8"?>
<svg width="154px" height="36px" viewBox="0 0 154 36" version="1.1" xmlns="http://www.w3.org/2000/svg" xmlns:xlink="http://www.w3.org/1999/xlink">
    <title>audi</title>
    <g id="audi" stroke="none" stroke-width="1" fill="none" fill-rule="evenodd">
        <g id="audi-14" transform="translate(18.000000, -65.000000)" fill-rule="nonzero">
            <polygon id="Path" fill="#FFFFFF" points="0 0 118 0 118 118 0 118"></polygon>
            <path d="M97.0001195,92.5331295 L97.0001195,78.3679506 L91.0829763,78.3679506 L91.0829763,92.5331295 L97.0001195,92.5331295 Z M65.6741034,86.6514111 L65.6741034,78.5822618 L59.938856,78.5822618 L59.938856,84.7505379 C59.938856,86.5433449 59.8663435,87.0460351 59.7575747,87.5122985 C59.3581414,88.8036295 57.9785603,89.3761378 56.5633375,89.3761378 C54.6036564,89.3761378 53.696021,88.6233167 53.332844,87.4400519 C53.2240752,87.0466422 53.187819,86.6161985 53.1515627,86.1857549 C53.1153065,85.7194915 53.1515627,85.2168013 53.1515627,84.6801127 L53.1515627,78.5828689 L47.3438028,78.5828689 L47.3438028,86.687838 C47.3438028,88.5176789 47.9613881,89.8800423 48.9771777,90.8119619 C50.7193213,92.4979169 53.6597648,93 56.3820562,93 C59.6850622,93 62.2260724,92.5337366 64.0407285,90.7767493 C64.9852346,89.8794351 65.6741034,88.6961704 65.6741034,86.6514111 L65.6741034,86.6514111 Z M37.5066828,85.6472449 C37.2191622,85.5978883 36.9277392,85.5741156 36.6359183,85.5762126 L30.1024188,85.5762126 C29.775498,85.5762126 29.412321,85.6120323 29.2310397,85.6472449 C29.3398085,85.5391787 29.5579605,85.3248675 29.775498,85.0377027 L32.715327,80.23179 C33.1147603,79.5870351 33.2960415,79.1565915 33.368554,78.9774929 C33.4410665,79.1565915 33.6223478,79.5870351 34.0217811,80.2688239 L37.034737,85.1105564 C37.1803766,85.3248675 37.3979141,85.5391787 37.5066828,85.6472449 Z M48.4689756,92.5331295 L35.4013622,73.1686282 L28.0696106,73.1686282 L29.9930355,75.4276986 C30.0292918,75.4635183 30.1024188,75.4987309 30.1743168,75.5357648 C30.1018043,75.5715846 30.0292918,75.6067972 29.9930355,75.6426169 L18.5956677,92.5331295 L25.2016797,92.5331295 L26.9806941,89.62809 C27.0532066,89.4848112 27.0894628,89.3409252 27.0894628,89.2698929 C27.1619753,89.2698929 27.3438711,89.3409252 27.5251523,89.3409252 L39.3219535,89.3409252 C39.5032347,89.3409252 39.6482597,89.3051055 39.7207722,89.2698929 C39.7141151,89.3707365 39.7394632,89.4711202 39.7932847,89.5570577 L41.6448116,92.5331295 L48.4689756,92.5331295 L48.4689756,92.5331295 Z M89.4864722,85.2538352 C89.4864722,83.6753394 88.8326306,81.8461055 86.800437,79.2998703 L81.8996979,73.1680211 L75.0755339,73.1680211 L78.9592544,77.4712436 C79.6130959,78.1888521 80.4476043,78.8336069 80.4476043,78.8336069 C79.5043272,78.295097 78.3066419,78.0807858 77.3627503,78.0807858 C75.1124046,78.0807858 72.8245737,78.5470492 70.7929946,79.6592817 C68.6145469,80.8413322 67.1624533,82.814452 67.1624533,85.4329338 C67.1624533,87.4406591 68.0700886,88.9833352 69.2315177,90.1666 C71.8456549,92.7480478 76.5995255,92.9993929 78.3422836,92.9993929 C80.9189355,92.9993929 84.9482956,92.4256704 87.2361265,90.3815182 C88.5794514,89.1618266 89.4864722,87.4770859 89.4864722,85.2538352 L89.4864722,85.2538352 Z M83.8237373,85.4329338 C83.8237373,86.9033634 82.8429749,88.0143816 81.6090333,88.6239238 C80.5926293,89.1624338 79.3943294,89.3057126 78.3422836,89.3057126 C77.2902378,89.3057126 76.0556817,89.0901872 75.0392776,88.5881041 C73.805336,87.9785619 72.8608299,86.7952971 72.8608299,85.5039661 C72.8608299,83.9625042 74.0585153,82.7422055 75.4749671,82.1326632 C76.3463462,81.7392535 77.3990065,81.5953675 78.2329003,81.5953675 C79.0323814,81.5953675 80.1938105,81.7022196 81.1014458,82.0616309 C82.7354352,82.7422055 83.8237373,84.0335365 83.8237373,85.4329338 Z M95.120325,27.0000265 C90.870318,26.9932746 86.7434605,28.409829 83.4132427,31.0185394 C80.0831198,28.4096585 75.9562001,26.9930827 71.7061605,27.0000265 C67.4563886,26.9935558 63.3298166,28.4100866 59.9996927,31.0185394 C56.6698771,28.4095324 52.5431029,26.9929322 48.293225,27.0000265 C44.0434531,26.9935558 39.9168811,28.4100866 36.5867573,31.0185394 C33.2566808,28.4100013 29.1300777,26.9934599 24.8802895,27.0000265 C14.4513937,27.0000265 6,35.349082 6,45.6530172 C6,55.9557381 14.4507792,64.3060071 24.8802895,64.3060071 C29.1300533,64.3124307 33.2566097,62.8959052 36.5867573,60.287495 C39.9168337,62.896033 44.0434368,64.3125745 48.293225,64.3060071 C52.5430866,64.3130062 56.6698296,62.8964167 59.9996927,60.287495 C63.3298166,62.8959478 67.4563886,64.3124786 71.7061605,64.3060071 C75.9561919,64.3129037 80.0830961,62.8963332 83.4132427,60.287495 C86.7433894,62.8963332 90.8702936,64.3129037 95.120325,64.3060071 C105.549221,64.3060071 114,55.9563452 114,45.6530172 C114,35.3496891 105.549221,27.0000265 95.120325,27.0000265 Z M33.4976017,57.2403909 C31.0917843,58.9743079 28.0862025,60.0325072 24.8802895,60.0325072 C16.8350887,60.0325072 10.3249407,53.6013509 10.3249407,45.6530172 C10.3249407,37.7046835 16.8350887,31.2729201 24.8802895,31.2729201 C28.0862025,31.2729201 31.0899408,32.3317265 33.4976017,34.0662506 C30.8449006,37.3587717 29.4046722,41.4448097 29.41355,45.6530172 C29.4155441,49.8595974 30.8545526,53.9423883 33.4976017,57.2403909 L33.4976017,57.2403909 Z M36.5873718,54.1969295 C34.7319551,51.7260331 33.7330458,48.7296166 33.7390597,45.6530172 C33.731288,42.5761412 34.7303749,39.5791918 36.5873718,37.1091049 C38.4440126,39.5793742 39.4430595,42.5762035 39.4356794,45.6530172 C39.4414784,48.729582 38.4425913,51.7259321 36.5873718,54.1969295 L36.5873718,54.1969295 Z M56.9111517,57.2403909 C54.4115925,59.0584464 51.3872809,60.0356848 48.2833928,60.0282994 C45.1859387,60.0344808 42.1684446,59.0571482 39.6759128,57.2403909 C42.3192162,53.9427605 43.7582651,49.8600688 43.7599645,45.6536243 C43.7688423,41.4454169 42.3286139,37.3593788 39.6759128,34.0668577 C42.1682071,32.2495746 45.1858141,31.2719925 48.2833928,31.2783529 C51.5126573,31.2783529 54.4961166,32.3104775 56.9111517,34.0668577 C54.2584506,37.3593788 52.8182222,41.4454169 52.8271,45.6536243 C52.8288957,49.8600527 54.2679339,53.9427141 56.9111517,57.2403909 L56.9111517,57.2403909 Z M59.9996927,54.1969295 C58.1442761,51.7260331 57.1453668,48.7296166 57.1513842,45.6530172 C57.1439171,42.5761896 58.1429728,39.5793337 59.9996927,37.1091049 C61.8567901,39.5791771 62.8560813,42.576093 62.8486158,45.6530172 C62.8544994,48.7296923 61.855368,51.7261287 59.9996927,54.1969295 L59.9996927,54.1969295 Z M80.3240872,57.2403909 C77.9090521,58.9973782 74.9255927,60.0282574 71.6969428,60.0282574 C68.4682928,60.0282574 65.5038834,58.9955569 63.0888483,57.2403909 C65.7324085,53.9428999 67.1714895,49.8601172 67.1729,45.6536243 C67.1817778,41.4454169 65.7415494,37.3593788 63.0888483,34.0668577 C65.5038834,32.3110846 68.4682928,31.2783841 71.6969428,31.2783841 C74.9255927,31.2783841 77.9090521,32.3104775 80.3240872,34.0668577 C77.67169,37.3595443 76.2314999,41.4454737 76.2400355,45.6536243 C76.242168,49.8599964 77.6811688,53.9425516 80.3240872,57.2403909 L80.3240872,57.2403909 Z M83.4138573,54.1969295 C81.5584406,51.7260331 80.5595313,48.7296166 80.5655421,45.6530172 C80.5575092,42.5760996 81.5566228,39.57907 83.4138573,37.1091049 C85.2704981,39.5793742 86.269545,42.5762035 86.2621649,45.6530172 C86.2677009,48.7295406 85.2688404,51.7258111 83.4138573,54.1969295 L83.4138573,54.1969295 Z M95.120325,60.0325072 C91.913183,60.0325072 88.9082157,58.9743079 86.5030128,57.2403909 C89.1460595,53.9426212 90.5850764,49.8600205 90.5870645,45.6536243 C90.5956001,41.4454737 89.15541,37.3595443 86.5030128,34.0668577 C88.9106737,32.3329407 91.9137975,31.2735272 95.120325,31.2735272 C103.164297,31.2735272 109.675674,37.7052906 109.675674,45.6536243 C109.675674,53.6007438 103.164297,60.0325072 95.120325,60.0325072 Z" id="Shape" fill="#9397AD"></path>
        </g>
    </g>
</svg>