<?xml version="1.0" encoding="UTF-8"?>
<svg width="154px" height="36px" viewBox="0 0 154 36" version="1.1" xmlns="http://www.w3.org/2000/svg" xmlns:xlink="http://www.w3.org/1999/xlink">
    <title>bmw</title>
    <g id="bmw" stroke="none" stroke-width="1" fill="none" fill-rule="evenodd">
        <g id="bmw-logo" transform="translate(59.000000, 0.000000)" fill-rule="nonzero">
            <path d="M17.9999639,36 C22.8079029,36 27.327988,34.127578 30.7278552,30.7278552 C34.127578,27.3280602 36,22.8079029 36,17.9999639 C36,13.1920971 34.127578,8.67193979 30.7278552,5.2721448 C27.3280602,1.87234982 22.8079029,0 17.9999639,0 C8.07471169,0 0,8.07471169 0,17.9999639 C0,22.8079029 1.87234982,27.3280602 5.2721448,30.7278552 C8.67193979,34.127578 13.1920971,36 17.9999639,36 Z" id="Path" fill="#9397AD"></path>
            <path d="M0.622792641,17.9999639 C0.622792641,13.3584833 2.43036451,8.99467405 5.71251928,5.71251928 C8.99467405,2.4302923 13.3584111,0.622792641 17.9999639,0.622792641 C22.6415167,0.622792641 27.0053259,2.4302923 30.2874085,5.71251928 C33.5695633,8.99467405 35.3771351,13.3584111 35.3771351,17.9999639 C35.3771351,27.581828 27.5817558,35.3772074 17.9999639,35.3772074 C13.3584111,35.3772074 8.99467405,33.5696355 5.71251928,30.2874807 C2.43036451,27.0052537 0.622792641,22.6415167 0.622792641,17.9999639 Z" id="Path" fill="#FFFFFF"></path>
            <path d="M17.9999639,1.33896085 C8.7984626,1.33896085 1.33896085,8.7984626 1.33896085,17.9999639 C1.33896085,27.2014652 8.7984626,34.6610392 17.9999639,34.6610392 C27.2014652,34.6610392 34.6609669,27.2014652 34.6609669,17.9999639 C34.6609669,8.7984626 27.2014652,1.33896085 17.9999639,1.33896085 Z" id="Path" fill="#9397AD"></path>
            <path d="M17.9999639,28.6424675 C12.1223583,28.6424675 7.35746024,23.8776417 7.35746024,17.9999639 C7.35746024,12.1223583 12.1223583,7.35746024 17.9999639,7.35746024 C23.8775694,7.35746024 28.6424675,12.1223583 28.6424675,17.9999639 C28.6424675,23.8776417 23.8776417,28.6424675 17.9999639,28.6424675 Z" id="Path" fill="#FFFFFF"></path>
            <path d="M8.04214217,17.9999639 L17.9999639,17.9999639 L17.9999639,8.04214217 C12.5004824,8.04214217 8.04214217,12.5005547 8.04214217,17.9999639 Z M17.9999639,17.9999639 L17.9999639,27.9578578 C23.4994453,27.9578578 27.9577856,23.4995176 27.9577856,17.9999639 L17.9999639,17.9999639 Z" id="Shape" fill="#9397AD"></path>
            <path d="M10.17902,7.84578628 C9.82624377,7.50290369 9.28093913,7.39956229 8.76899838,7.71695256 C8.86677914,7.46354586 8.82684357,7.20493959 8.77492011,7.06224035 C8.55437179,6.66006824 8.4773893,6.60973354 8.29562109,6.4572129 C7.70720337,5.96347063 7.08794932,6.38499668 6.64504727,6.912825 L4.50513638,9.46299621 L7.86903991,12.2857114 L10.1257244,9.59637956 C10.6413482,8.98189178 10.7210749,8.37267579 10.17902,7.84578628 L10.17902,7.84578628 Z M18.5574009,6.63399819 L19.7126437,3.57195844 L19.7126437,6.63399819 L20.5906484,6.63399819 L20.5906484,2.2485963 L19.2714748,2.2485963 L18.0716024,5.38848512 L18.0840236,5.38848512 L16.8841511,2.2485963 L15.5650498,2.2485963 L15.5650498,6.63399819 L16.4429823,6.63399819 L16.4429823,3.57195844 L17.5982973,6.63399819 L18.5574009,6.63399819 Z M30.3618634,8.45846866 L28.7088342,10.7987795 L31.2714989,9.58215297 L31.9500424,10.4200777 L27.9164779,12.3753317 L27.1201497,11.3840198 L28.7066678,9.06421827 L28.6972797,9.05259146 L26.0982903,10.1221136 L25.2941627,9.13708443 L28.0453839,5.59820101 L28.7239274,6.43612576 L27.0010652,8.68984941 L29.633924,7.55952121 L30.3618634,8.45846866 Z" id="Shape" fill="#FFFFFF"></path>
            <path d="M7.11264727,7.54399472 C7.2615571,7.36648726 7.59808467,7.3737811 7.81451666,7.55533267 C8.05246909,7.7550105 8.05304682,8.03809807 7.89323234,8.22846001 L6.6224436,9.74290626 L5.82734307,9.07570065 L7.11264727,7.54399472 L7.11264727,7.54399472 Z M9.37366475,9.33055167 L8.03383731,10.9272522 L7.19367386,10.2222775 L8.54433374,8.61257806 C8.69685438,8.43080984 9.03692054,8.37787536 9.26627924,8.57040379 C9.52589653,8.78813568 9.55160551,9.11852486 9.37366475,9.33055167 Z" id="Shape" fill="#9397AD"></path>
        </g>
    </g>
</svg>