<?xml version="1.0" encoding="UTF-8"?>
<svg width="154px" height="36px" viewBox="0 0 154 36" version="1.1" xmlns="http://www.w3.org/2000/svg" xmlns:xlink="http://www.w3.org/1999/xlink">
    <title>chevrolet</title>
    <g id="chevrolet" stroke="none" stroke-width="1" fill="none" fill-rule="evenodd">
        <g id="chevrolet-logo5" transform="translate(0.000000, 12.000000)" fill="#9397AD" fill-rule="nonzero">
            <path d="M43.0461926,8.93423642 C43.0461926,9.34351151 43.2759423,9.56186279 43.6734628,9.56186279 L50.7661394,9.56115039 L50.7661394,11.2196228 L42.148922,11.2196228 C41.1935906,11.2196228 40.5139589,10.5399911 40.5139589,9.58465966 L40.5139589,2.7427486 C40.5139589,1.78171799 41.1935906,1.10814168 42.148922,1.10814168 L50.7661394,1.10814168 L50.7661394,2.76198346 L43.673819,2.76162726 C43.282354,2.76162726 43.0458364,2.95575687 43.0458364,3.38889743 L43.0458364,8.93423642 L43.0461926,8.93423642 L43.0461926,8.93423642 Z M67.3900456,6.75143598 L67.3900456,8.93423642 C67.3900456,9.34351151 67.6197953,9.56186279 68.0173158,9.56186279 L75.9655875,9.56115039 L75.9655875,11.2196228 L66.492775,11.2196228 C65.5377998,11.2196228 64.8578118,10.5399911 64.8578118,9.58465966 L64.8578118,2.7427486 C64.8578118,1.78171799 65.5377998,1.10814168 66.492775,1.10814168 L75.1997551,1.10814168 L75.1997551,2.76198346 L68.0180282,2.76162726 C67.6265631,2.76162726 67.3900456,2.95575687 67.3900456,3.38889743 L67.3900456,5.09545698 L75.2353752,5.09545698 L75.2353752,6.75179218 L67.3900456,6.75179218 L67.3900456,6.75143598 L67.3900456,6.75143598 Z M60.114994,6.75143598 L60.114994,11.2160608 L62.6475839,11.2160608 L62.6475839,1.10564827 L60.114994,1.10564827 L60.114994,5.09510078 L54.4549582,5.09510078 L54.4549582,1.10564827 L51.9223683,1.10564827 L51.9223683,11.2160608 L54.4549582,11.2160608 L54.4549582,6.75143598 L60.114994,6.75143598 Z M140.657053,1.10244246 L140.657053,2.76162726 L145.09995,2.76233966 L145.09995,11.2160608 L147.631471,11.2160608 L147.631471,2.76233966 L152.075436,2.76162726 L152.075436,1.10244246 L140.657053,1.10244246 L140.657053,1.10244246 Z M117.716989,11.2153484 L117.716633,1.10386726 L120.25136,1.10315486 L120.25136,9.55723218 L128.15012,9.55830078 L128.15012,11.2167732 L117.716989,11.2153484 Z M83.5711937,11.2178418 C84.5240317,11.2178418 84.7644675,10.7814954 85.0138083,10.2560988 C85.263149,9.73070212 89.1115459,1.10636067 89.1115459,1.10636067 L86.4713832,1.10636067 C86.4713832,1.10636067 83.0286994,9.2769019 82.9834619,9.37450101 C82.9179209,9.51698145 82.8320764,9.53479151 82.5916407,9.53479151 C82.3512049,9.53479151 82.2653604,9.51698145 82.1994632,9.37450101 C82.1545819,9.2769019 78.7118981,1.10636067 78.7118981,1.10636067 L76.0717354,1.10636067 C76.0717354,1.10636067 79.9201323,9.73070212 80.1694731,10.2560988 C80.4188139,10.7818516 80.6592496,11.2178418 81.6120876,11.2178418 L83.5711937,11.2178418 Z M113.862537,1.10529207 L105.526006,1.10529207 C104.570674,1.10529207 103.891043,1.77922458 103.891043,2.73989899 L103.891043,9.58252246 C103.891043,10.5374977 104.570674,11.2171294 105.526006,11.2171294 L113.862537,11.2171294 C114.818224,11.2171294 115.4975,10.5374977 115.4975,9.58252246 L115.4975,2.73989899 C115.4975,1.77922458 114.818224,1.10529207 113.862537,1.10529207 Z M112.965266,8.93174302 C112.965266,9.3410181 112.735516,9.55901318 112.337996,9.55901318 L107.050547,9.55901318 C106.653382,9.55901318 106.423633,9.3413743 106.423633,8.93174302 L106.423633,3.38604782 C106.423633,2.95290726 106.659438,2.75877765 107.051259,2.75877765 L112.33764,2.75877765 C112.729105,2.75877765 112.965266,2.95290726 112.965266,3.38604782 L112.965266,8.93174302 Z M131.506247,6.75143598 L131.506247,8.93423642 C131.506247,9.34351151 131.735996,9.56186279 132.133517,9.56186279 L140.081432,9.56115039 L140.081432,11.2196228 L130.60862,11.2196228 C129.653288,11.2196228 128.973657,10.5399911 128.973657,9.58465966 L128.973657,2.7427486 C128.973657,1.78171799 129.653288,1.10814168 130.60862,1.10814168 L139.3156,1.10814168 L139.3156,2.76198346 L132.133873,2.76162726 C131.742052,2.76162726 131.50589,2.95575687 131.50589,3.38889743 L131.50589,5.09545698 L139.350864,5.09545698 L139.350864,6.75179218 L131.506247,6.75179218 L131.506247,6.75143598 L131.506247,6.75143598 Z M99.1008501,4.69045631 C99.1008501,5.1000876 98.8711003,5.31808268 98.4735799,5.31808268 L94.4884018,5.31808268 C94.1129658,5.31808268 93.7774244,5.62833385 93.7774244,6.01694927 C93.7774244,6.24064358 93.868968,6.44510302 93.9890078,6.55623777 C94.1621216,6.71652827 99.6176979,11.2256782 99.6176979,11.2256782 L103.452559,11.22176 L97.8943969,6.97156827 L99.9984769,6.97085587 C100.953452,6.97085587 101.633084,6.29158033 101.633084,5.33660514 L101.633084,2.74631061 C101.633084,1.78528 100.953452,1.11170369 99.9984769,1.11170369 L90.1801493,1.11170369 L90.1801493,11.22176 L92.7084648,11.22176 L92.7084648,2.76376447 L98.4735799,2.76483307 C98.8650449,2.76483307 99.1012063,2.95931888 99.1012063,3.39245944 L99.1012063,4.69045631 L99.1008501,4.69045631 L99.1008501,4.69045631 Z M33.8081166,2.52368492 L23.9644988,2.52439732 C23.7123084,2.52439732 23.5484559,2.44995128 23.5484559,2.1044362 L23.5477435,0.644367821 C23.5477435,0.222981899 23.3211996,0 22.9094311,0 L11.6417211,0.000712402235 C11.2203352,0.000712402235 11.0037649,0.237942346 11.0037649,0.640449609 L11.0030525,2.10051799 C11.0030525,2.40863196 10.8577225,2.52083531 10.5870096,2.52083531 L4.13620737,2.52226011 C3.64322503,2.52226011 3.35398972,2.75806525 3.20545385,3.06689162 L0.0641162011,9.20744268 C0.024221676,9.28402592 0,9.37521341 0,9.4678257 C0,9.71146726 0.159221899,10.0249242 0.598774078,10.0249242 L10.5866534,10.0234994 C10.8947674,10.0234994 11.0026963,10.1641989 11.0026963,10.4438168 L11.0019839,11.9042413 C11.0019839,12.3437935 11.2577363,12.5439785 11.6413649,12.5439785 L17.1713873,12.5436223 L22.9097873,12.5432661 C23.2934159,12.5432661 23.5491683,12.3573292 23.5491683,11.9081596 L23.5484559,10.4480912 C23.5484559,10.1488822 23.6749073,10.0270615 23.9644988,10.0270615 L30.227583,10.0252804 C30.6592988,10.0252804 30.9699061,9.91200849 31.1864764,9.50950123 L34.292194,3.4423276 C34.3598722,3.31124559 34.4076031,3.23644335 34.4076031,3.08042726 C34.4072469,2.66865877 34.051402,2.52368492 33.8081166,2.52368492 Z M31.3271759,4.96900559 L29.8304188,7.89733497 C29.7367379,8.0668867 29.5696796,8.07472313 29.4524894,8.07472313 L22.0210655,8.07507933 C21.7129515,8.07507933 21.6000358,8.21506637 21.6000358,8.49504045 L21.5993234,10.1791593 C21.5993234,10.4591334 21.476434,10.5934212 21.1775812,10.5934212 L17.1710311,10.5934212 L13.3725023,10.5937774 C13.1110507,10.5937774 12.9514726,10.5018775 12.9514726,10.1748849 L12.9507602,8.49076603 C12.9507602,8.18265207 12.8097046,8.07294212 12.5300867,8.07294212 L3.41953073,8.07294212 C3.19583642,8.07294212 3.04088894,7.93188648 3.04088894,7.73597587 C3.04088894,7.67933989 3.05513698,7.62590972 3.08007106,7.57889117 L4.57682816,4.65056179 C4.63453274,4.54655106 4.72821363,4.47531084 4.95440134,4.47531084 L12.5304429,4.47566704 C12.7915383,4.47566704 12.953966,4.37058771 12.953966,4.05285631 L12.9532536,2.36873743 C12.9532536,2.07024089 13.0836232,1.95020112 13.3728585,1.95020112 L21.1786498,1.94948872 C21.4586239,1.94948872 21.5982547,2.0738029 21.5982547,2.37265564 L21.5975423,4.05713073 C21.5975423,4.34636603 21.7321864,4.47424223 22.0214217,4.47424223 L30.98736,4.47424223 C31.2726771,4.47424223 31.3660121,4.66267263 31.3660121,4.81120849 C31.3664372,4.86622414 31.3530893,4.92047307 31.3271759,4.96900559 Z" id="Shape"></path>
            <path d="M25.5757399,1.22458111 C25.5757399,1.00915436 25.3538379,0.960318212 25.1261722,0.960318212 L24.5757399,0.960318212 L24.5757399,1.96031821 L24.7532615,1.96031821 L24.7532615,1.52261853 L24.9987946,1.52261853 L25.3596016,1.96031821 L25.5578725,1.96031821 L25.1826563,1.50801333 C25.4074402,1.50390562 25.5757399,1.42220776 25.5757399,1.22458111 L25.5757399,1.22458111 Z M24.7538379,1.40303843 L24.7538379,1.07989831 L25.0910137,1.07989831 C25.2241549,1.07989831 25.3987946,1.09130863 25.3987946,1.22275546 C25.3987946,1.32134058 25.340005,1.40303843 25.0858263,1.40303843 L24.7538379,1.40303843 L24.7538379,1.40303843 Z" id="Shape"></path>
            <path d="M24.8354105,0.653269567 C24.6502524,0.652705241 24.472468,0.725788175 24.3412405,0.856414288 C24.2100131,0.987040402 24.1361143,1.16448732 24.1358315,1.34964603 C24.1358315,1.73398704 24.4446579,2.04602252 24.8354105,2.04602252 C25.0203688,2.0465892 25.197916,1.97336704 25.3287018,1.84258118 C25.4594877,1.71179531 25.5327099,1.5342481 25.5321432,1.34928983 C25.5320454,1.16460017 25.4585872,0.987512443 25.3279251,0.856983934 C25.1972629,0.726455424 25.0201002,0.653178355 24.8354105,0.653269567 L24.8354105,0.653269567 Z M24.8354105,1.93666547 C24.6791953,1.93647834 24.5294895,1.87407087 24.4193968,1.7632429 C24.3093041,1.65241493 24.2478945,1.50229705 24.2487385,1.34608402 C24.2487385,1.02657162 24.5101989,0.762982793 24.8354105,0.762982793 C25.1591973,0.762982793 25.4185117,1.02657162 25.4185117,1.34608402 C25.4185117,1.67307665 25.1591973,1.93666547 24.8354105,1.93666547 L24.8354105,1.93666547 Z M153.661956,1.81199508 C153.661956,1.64386816 153.524819,1.60539844 153.384119,1.60539844 L153.044303,1.60539844 L153.044303,2.38583508 L153.154013,2.38583508 L153.154013,2.04423821 L153.305755,2.04423821 L153.529093,2.38583508 L153.65127,2.38583508 L153.419383,2.03319598 C153.557589,2.02963397 153.661956,1.96587397 153.661956,1.81199508 Z M153.153657,1.95126972 L153.153657,1.69872313 L153.362035,1.69872313 C153.444317,1.69872313 153.552246,1.70798436 153.552246,1.81021408 C153.552246,1.88679732 153.515558,1.95091352 153.358473,1.95091352 L153.153657,1.95091352 L153.153657,1.95126972 L153.153657,1.95126972 Z" id="Shape"></path>
            <path d="M153.303618,1.29870918 C152.919022,1.29870918 152.607245,1.61048617 152.607245,1.99508246 C152.607245,2.37967875 152.919022,2.69146014 153.303618,2.69146014 C153.488511,2.69212124 153.666023,2.61896733 153.796763,2.48822746 C153.927503,2.35748759 154.000657,2.17997535 153.999996,1.99508246 C154.000086,1.81036383 153.926748,1.63318365 153.796132,1.50256784 C153.665517,1.37195203 153.488336,1.29861472 153.303618,1.29870918 L153.303618,1.29870918 Z M153.303618,2.5813895 C152.979613,2.5813895 152.716955,2.31873141 152.716955,1.99472626 C152.716955,1.6707211 152.979613,1.40806302 153.303618,1.40806302 C153.627048,1.40806302 153.886719,1.67129564 153.886719,1.99116425 C153.888047,2.14687161 153.827268,2.29668855 153.717833,2.40746077 C153.608398,2.51823299 153.45933,2.58082652 153.303618,2.5813895 L153.303618,2.5813895 Z" id="Shape"></path>
        </g>
    </g>
</svg>