<?xml version="1.0" encoding="UTF-8"?>
<svg width="154px" height="36px" viewBox="0 0 154 36" version="1.1" xmlns="http://www.w3.org/2000/svg" xmlns:xlink="http://www.w3.org/1999/xlink">
    <title>cupra</title>
    <g id="cupra" stroke="none" stroke-width="1" fill="none" fill-rule="evenodd">
        <g id="Cupra-Racing-logo---Brandlogos.net" transform="translate(-1.000000, 9.000000)" fill="#9397AD" fill-rule="nonzero">
            <path d="M28.8627227,0 C27.1768248,2.63290444 25.4879163,5.26127981 23.7959974,7.88512609 L21.3823034,6.96345857 L22.8409061,4.53360782 L22.8409061,4.53360782 L18.1580236,6.7981472 L21.0120079,7.88512609 C21.5990617,8.11158003 22.2990103,8.39464745 22.5564108,9.08533196 C22.8138113,9.77601647 22.4299685,10.4282038 22.0867678,10.9603706 L20.5288175,13.3834277 C18.6803509,16.2518442 16.8288737,19.124035 14.974386,22 C14.974386,21.1138103 14.974386,20.2276205 14.974386,19.3414308 L14.974386,19.3414308 C15.6833663,17.1267113 16.3727781,14.9051981 17.0426215,12.6768914 C17.2345429,12.0450849 17.4196906,11.4110139 17.6048384,10.7769429 C17.7177333,10.3942357 17.6432226,10.1655172 17.2751851,9.98435409 L14.439264,8.59392692 C13.4924517,9.05740264 12.546392,9.52087837 11.601085,9.98435409 C11.2307895,10.1655172 11.1495052,10.3942357 11.2691738,10.7769429 C11.4543215,11.4125236 11.6417271,12.0458398 11.8313907,12.6768914 C12.4997288,14.9051981 13.1898932,17.1267113 13.901884,19.3414308 L13.901884,19.3414308 C13.901884,20.2291302 13.901884,21.1145651 13.901884,22 C12.0458911,19.1315835 10.1944139,16.2593927 8.34745253,13.3834277 L6.77369694,10.9762223 C6.4304963,10.441791 6.03987977,9.80998456 6.30405395,9.10118374 C6.56822814,8.39238291 7.25914522,8.12743181 7.84845686,7.90097787 L10.7024412,6.81399897 L10.7024412,6.81399897 L6.01955868,4.5494596 L6.01955868,4.5494596 L7.47816143,6.97931034 L5.06672531,7.90097787 C3.37631161,5.26354435 1.68740317,2.62988506 0,0 C4.80706693,1.69161091 9.60510227,3.39680906 14.4324903,5.03407102 C19.2553625,3.39680906 24.0556557,1.68934637 28.8627227,0 Z M61.6022579,5.1880597 L61.6022579,8.09346372 L44.7651052,8.09346372 C44.6339316,8.08794588 44.5059548,8.13497365 44.4093859,8.22418029 C44.312817,8.31338694 44.2555843,8.43744848 44.2503042,8.56901698 L44.2503042,12.4187339 C44.2555843,12.5503024 44.312817,12.674364 44.4093859,12.7635706 C44.5059548,12.8527772 44.6339316,12.899805 44.7651052,12.8942872 L61.5909684,12.8942872 L61.5909684,15.7996912 L44.1803094,15.7996912 C42.5636537,15.7996912 41.2450407,14.5881626 41.2450407,13.0935666 L41.2450407,7.88512609 C41.2450407,6.39053011 42.55688,5.17900154 44.1803094,5.17900154 L61.6022579,5.1880597 Z M67.836317,5.1880597 L67.836317,12.4345857 C67.8485313,12.7080209 68.0784016,12.9203663 68.351118,12.910139 L80.688278,12.910139 C80.9618593,12.9216467 81.1931309,12.7089398 81.2053369,12.4345857 L81.2053369,5.1880597 L84.7028224,5.1880597 L84.7028224,13.1003603 C84.7028224,14.5949563 83.393241,15.8064848 81.7675537,15.8064848 L67.253779,15.8064848 C65.6348655,15.8064848 64.3185104,14.5949563 64.3185104,13.1003603 L64.3185104,5.1880597 L67.836317,5.1880597 Z M153.948068,5.1880597 C153.981937,5.20844056 153.997742,5.1880597 154,5.1880597 L154,15.8064848 L150.696694,15.8064848 L150.696694,12.5704581 L136.92351,12.5704581 L136.92351,15.8064848 L133.629235,15.8064848 L133.599883,7.89418425 C133.599883,6.39958827 134.909464,5.1880597 136.535151,5.1880597 L153.948068,5.1880597 Z M104.870376,5.1880597 C107.024412,5.1880597 107.805645,6.17313433 107.805645,7.67905301 L107.805645,9.8756562 C107.805645,11.3702522 107.146338,12.5817808 104.870376,12.5817808 L90.6907705,12.5817808 L90.6907705,15.8178075 L87.3987538,15.8178075 L87.3987538,5.1880597 L104.870376,5.1880597 Z M128.352525,5.12238806 C129.989502,5.12238806 131.319405,6.09387545 131.319405,7.56582604 L131.319405,9.72846114 C131.319405,11.2366444 130.283029,12.2624807 129.235364,12.2624807 L131.583579,15.5822954 L127.745151,15.5822954 L125.713042,12.3960885 L114.148083,12.3960885 L114.148083,15.5822954 L110.720592,15.5822954 L110.709303,5.12012352 L128.352525,5.12238806 Z M104.276549,7.5114771 L90.6907705,7.5114771 L90.6907705,10.0024704 L104.276549,10.0024704 C104.550109,10.0126764 104.78034,9.79898525 104.79135,9.5246526 L104.79135,7.98476583 C104.777938,7.71222855 104.548425,7.50122287 104.276549,7.5114771 L104.276549,7.5114771 Z M150.696694,7.5114771 L137.4067,7.5114771 C137.133119,7.49996937 136.901847,7.71267625 136.889642,7.98703037 L136.889642,9.99341225 C136.889642,9.99341225 137.580559,9.97982501 138.682413,9.97756047 L142.247636,9.97756047 L144.853251,9.97756047 L145.3387,9.97756047 L150.703467,9.99114771 L150.696694,7.5114771 Z M127.745151,7.40957283 L114.148083,7.40957283 L114.148083,9.8756562 L127.745151,9.8756562 C128.018331,9.88852464 128.250939,9.67846035 128.266725,9.40463201 L128.266725,7.88739063 C128.261468,7.7543995 128.20337,7.62904756 128.105388,7.53928509 C128.007405,7.44952261 127.877685,7.40281355 127.745151,7.40957283 Z" id="logos_CUPRA"></path>
        </g>
    </g>
</svg>