<?xml version="1.0" encoding="UTF-8"?>
<svg width="154px" height="36px" viewBox="0 0 154 36" version="1.1" xmlns="http://www.w3.org/2000/svg" xmlns:xlink="http://www.w3.org/1999/xlink">
    <title>ford</title>
    <g id="ford" stroke="none" stroke-width="1" fill="none" fill-rule="evenodd">
        <g id="ford-1" transform="translate(33.000000, -26.000000)" fill-rule="nonzero">
            <polygon id="Path" fill="#FFFFFF" points="0 0 88 0 88 88 0 88"></polygon>
            <path d="M44.5136299,59 C67.9766794,59 87,51.8521125 87,43.0135651 C87,34.1750177 67.9766794,27 44.5136299,27 C21.0233206,27 2,34.1750177 2,43.0135651 C2,51.8525646 21.0233206,59 44.5136299,59 Z" id="Path" fill="#9397AD"></path>
            <path d="M44.4861548,58 C21.5991515,58 3,51.5615348 3,43.5273628 C3,35.5210096 21.5991515,29 44.4861548,29 C67.4290004,29 86,35.5210096 86,43.5273628 C86,51.5615348 67.4290004,58 44.4861548,58 Z" id="Path" fill="#FFFFFF"></path>
            <path d="M43.9864504,58 C66.0718243,58 84,52.1775512 84,44.9862133 C84,37.8224488 66.0718243,32 43.9864504,32 C21.873518,32 4,37.8224488 4,44.9862133 C4,52.1775512 21.873518,58 43.9864504,58 Z" id="Path" fill="#9397AD"></path>
            <path d="M54.3815455,46.4600739 C56.2484962,44.6876465 57.2912032,42.8321293 59.9828529,42.8596729 C61.602667,42.8872164 62.0141062,44.1891082 62.2885507,44.7431926 L65.8308417,38.7056464 L68,38.7056464 L62.1242481,49.2024934 C62.0141062,49.4237599 61.7392066,49.8392085 61.7669696,50.1715673 C61.8229508,50.6976491 62.4815266,50.5594723 62.23439,50.5594723 C63.415002,50.5039262 65.5837051,48.2329604 66.1057413,47.6793351 C66.214973,47.5402402 66.4079489,47.2914301 66.5171805,47.2914301 C66.6273224,47.2914301 66.8471511,47.4020634 66.8471511,47.5682428 C66.8471511,47.6793351 66.6000145,48.0943246 66.4079489,48.3435937 C65.3092606,49.7285752 63.4973808,51.8609051 61.4379093,51.9164512 C60.4220551,51.9164512 60.0370136,51.5010027 59.9000189,50.6981082 C59.4335088,51.1130977 57.8405474,51.8333615 56.2207332,51.8333615 C54.8749084,51.805818 54.3255643,51.0024644 54.0515749,50.3657494 C53.8044383,49.8396675 53.6942964,49.0643166 53.886362,48.2889657 C53.1449523,48.6768707 52.4586135,48.7319578 51.4700672,48.7044142 C50.316308,48.6764116 49.6022062,48.1503298 49.2458379,46.7928918 C47.9277762,49.230496 47.8722501,49.3131267 46.5273355,51.8613641 L44.1934195,51.8613641 L47.1863664,46.7378047 C47.5714079,46.0450844 47.7634736,45.4914591 47.9000131,44.9102902 C47.9828471,44.5774723 47.7357105,44.272657 47.378432,44.2455725 C46.9943008,44.2455725 46.3634881,44.6334775 45.7586179,45.2146464 C45.7586179,45.2146464 44.2211826,46.8764406 43.0951864,48.5657783 C42.0238061,50.1724854 40.1846184,52 38.1802178,52 C36.7247062,52 35.4066445,51.1971055 35.1322,49.6459446 C35.1322,49.6459446 34.9947502,50.005847 33.7039963,50.7536544 C33.5943095,50.8087415 33.319865,50.9749209 33.2379413,50.9198338 C32.9903496,50.6985673 32.8533549,50.4212955 32.8255919,50.2271135 C32.9079707,50.2551161 33.0727285,50.1164802 33.5943095,49.7010317 C34.6101638,48.9256807 34.8299924,48.3155911 34.8299924,48.3155911 C35.0766739,47.7895093 35.5167864,46.9586122 35.8185388,46.3769842 C36.6427825,44.71519 38.0700759,43.0258523 40.4039919,42.9427626 C40.7885783,42.9427626 40.8982651,43.108942 40.980644,43.2475779 C41.2000175,43.4137573 41.1180938,43.7461161 41.1180938,43.7461161 C39.4705166,43.9953852 38.3449755,44.9644592 37.6581816,45.9064486 C37.2467424,46.5156201 36.8070851,47.5126966 36.7247062,48.2325014 C36.5599485,49.478847 37.1366005,50.3092851 37.9876971,50.5034671 C39.5802033,50.7527362 40.8982651,49.5894803 41.9418824,47.7895093 C42.216782,47.3185146 42.4088476,46.0997125 42.4088476,45.4349948 C42.4088476,44.7702771 42.0515691,44.0780159 41.7771247,43.8007442 C41.7771247,43.3302085 42.0788771,43.0253932 42.4357004,43.0253932 C42.5453872,43.0253932 42.6555291,43.0253932 42.7652159,43.1360265 C43.31456,43.6901109 43.6167675,44.7427336 43.6167675,45.5456281 C43.6167675,45.8228998 43.6167675,46.0997125 43.5616965,46.3769842 C44.7150006,44.9644592 46.170057,43.1364855 47.2965083,42.7765832 C47.5158819,42.6659499 47.7357105,42.6659499 47.9550841,42.6659499 C50.0145556,42.6104037 49.7401111,44.4939235 49.7401111,44.4939235 C50.8378891,43.2200343 51.6070619,42.7490396 52.6229161,42.8041267 C53.7216043,42.8596729 54.1057356,43.6354829 54.1057356,44.2446544 C54.0779725,44.9644592 53.5573017,45.7953563 52.6515894,45.8228998 C51.8541984,45.8228998 51.3876883,45.4349948 51.1405517,44.71519 C50.6189707,44.9093721 50.3722892,45.2692744 50.2621473,45.9890792 C50.0969345,46.903066 50.7837284,47.6233299 51.6621328,47.6233299 C53.1727153,47.6237889 53.8322014,46.9586122 54.3815455,46.4600739 L54.3815455,46.4600739 Z M56.0286676,34.5236174 C56.0286676,35.4100606 52.9528867,37.0993984 50.344071,37.0993984 C46.2806541,37.0993984 42.0520243,35.1327889 40.1031498,34.6897968 C37.9886073,34.1912585 36.0665856,33.77581 34.5560031,33.77581 C29.2564481,33.77581 26.894769,36.0747783 27.0049109,38.1795646 C27.0599819,39.0380053 27.7458656,39.5920897 28.7621749,39.3979077 C29.8608632,39.2041847 31.3982985,38.151562 31.7828849,37.2375752 C31.8652637,37.0438522 32.0850924,37.0158496 32.1674713,37.0713958 C32.332229,37.2100317 32.277158,37.4037546 32.277158,37.4037546 C32.1397082,38.4839208 30.492131,41.4751504 27.6366339,41.4751504 C26.0441277,41.4751504 24.9732025,39.9795356 25.0005104,38.5114644 C25.0278183,35.769504 27.8013916,33 34.6383819,33 C35.9286807,33 37.3841923,33.1106333 38.9771537,33.387905 C40.8163414,33.7202638 45.4017945,34.4956148 49.1361512,34.5511609 C50.509739,34.5511609 52.267003,34.6067071 53.6947515,34.3849815 C55.2048789,34.1357124 54.8753635,34.0801662 55.4797786,34.0801662 C56.0286676,34.0801662 56.0286676,34.3018918 56.0286676,34.5236174 L56.0286676,34.5236174 Z" id="Shape" fill="#FFFFFF"></path>
            <path d="M60.8180858,44.0110627 C59.7375592,43.8869993 58.3798696,44.8187618 57.2696835,46.1855184 C56.7143347,46.8686393 56.1283037,48.1731068 56.0352342,48.9494039 C55.9125052,49.7262158 56.1283037,50.502513 56.4059781,50.7197526 C56.6836525,50.9369923 57.9181017,51.589226 59.8306287,49.6330396 C60.9101325,48.5458118 61.9589541,46.775463 61.9589541,46.775463 L61.6194039,46.681772 C62.2673108,45.4709955 62.1430476,44.1660133 60.8180858,44.0110627 L60.8180858,44.0110627 Z" id="Path" fill="#9397AD"></path>
            <path d="M39.4020914,40.4403768 C39.4020914,40.7568307 39.8220069,41.0156175 40.1866459,41.0446894 C40.1025699,41.3606667 40.1304404,41.504596 39.9906234,41.4760008 C39.1498634,41.4760008 38.8135593,40.6419732 38.8135593,40.6419732 C37.6931653,40.843093 36.6001772,40.9870223 34.385866,41.2172139 C28.8089791,50.475874 27.071718,52 23.6524722,52 C21.214268,52 19.0566269,50.3610165 19.0004214,47.4280987 C18.9720864,45.6456625 20.373508,43.4600334 22.9798642,42.7985304 C23.2882977,42.7985304 23.4002442,42.9138645 23.4002442,43.0863891 C23.4002442,43.2017232 23.2882977,43.3451759 23.0356052,43.4600334 C22.2789211,43.7478921 20.96204,45.2715415 20.96204,46.6808099 C20.96204,47.7445526 21.6067776,48.9236294 22.6993011,49.1819397 C23.0077347,49.2686786 23.2882977,49.2396068 23.5683962,49.2396068 C26.2866989,49.2396068 29.3413056,46.1055692 32.6481404,41.3325481 C32.1158138,41.3611433 29.8457617,41.6204067 29.2851001,42.2814332 C29.0333366,42.482553 28.8651846,42.3676955 28.8089791,42.1375039 C28.8089791,42.0798368 28.8930551,41.878717 28.9775956,41.7633829 C29.8740967,40.7282354 32.5645289,40.4985204 33.2088019,40.4122581 C35.7310821,36.4441928 38.9817113,33.9711817 39.6543194,34.0002535 C39.7662659,34.0002535 40.0189584,34.1727781 39.9065474,34.4601602 C39.8782124,34.5178273 39.5981139,34.8338046 39.4866319,34.9200669 C38.9259703,35.4376406 37.0200927,36.7029797 34.9465276,40.296924 C36.6280477,40.2106617 38.5896663,39.8656126 38.5896663,39.8656126 C38.5896663,39.8656126 38.4777198,39.4919682 38.4777198,39.1755143 C38.5617958,37.939247 39.2622744,37.1914816 40.1592399,37.335411 C40.6641605,37.4216733 41,37.8529847 41,38.3128914 C41,38.8018699 40.6358255,39.5205634 40.2711864,39.8656126 C40.0184939,40.0662558 39.7379309,40.2678522 39.4020914,40.4403768 L39.4020914,40.4403768 Z" id="Path" fill="#FFFFFF"></path>
            <path d="M40.0717676,39.9998219 C40.0717676,39.9998219 40.3084536,40.0155946 40.6626988,39.7503021 C40.8045536,39.6566998 41.0412395,39.3758931 40.9938239,39.1886886 C40.9699202,39.0950864 40.8993847,38.9859699 40.734018,39.0014841 C40.3789891,39.0485438 40.1662069,39.1576602 40.0717676,39.3916659 C39.9538165,39.6411856 40.0012321,39.8128759 40.0717676,39.9998219 Z" id="Path" fill="#9397AD"></path>
        </g>
    </g>
</svg>