<?xml version="1.0" encoding="UTF-8"?>
<svg width="154px" height="36px" viewBox="0 0 154 36" version="1.1" xmlns="http://www.w3.org/2000/svg" xmlns:xlink="http://www.w3.org/1999/xlink">
    <title>hyundai</title>
    <g id="hyundai" stroke="none" stroke-width="1" fill="none" fill-rule="evenodd">
        <g transform="translate(0.000000, -59.000000)" fill-rule="nonzero">
            <polygon id="Path" fill="#FFFFFF" points="0 0 154 0 154 154 0 154"></polygon>
            <path d="M4,85 L4,65 L9.71033797,65 L9.71033797,72.6429641 L18.819004,72.6429641 L18.819004,65 L24.5285455,65 L24.5285455,85 L18.819004,85 L18.819004,76.9101796 L9.71033797,76.9101796 L9.71033797,85 L4,85 L4,85 Z M26.1428907,65 L35.183861,77.0381737 L35.183861,85 L40.8934025,85 L40.8934025,77.0381737 L49.8658806,65 L43.2723118,65 L38.03903,72.1332335 L32.7364595,65 L26.1428907,65 Z M51.4802258,65 L51.4802258,85 L66.1630418,85 C68.4057631,85 71.9402791,84.1721557 71.8725833,79.9041916 L71.8725833,65 L66.1630418,65 L66.1630418,78.502994 C66.1630418,80.0314371 65.279811,80.6047904 63.6479445,80.6047904 L57.1905637,80.6047904 L57.1905637,65 L51.4802258,65 Z M75.3903745,85 L75.3903745,65 L90.0731905,65 C92.3159118,65 95.8504279,65.8278443 95.7819357,70.0958084 L95.7819357,85 L90.0731905,85 L90.0731905,71.497006 C90.0731905,69.9685629 89.1899598,69.3952096 87.5580933,69.3952096 L81.0999161,69.3952096 L81.0999161,85 L75.3903745,85 L75.3903745,85 Z M153,85 L153,65 L147.289662,65 L147.289662,85 L153,85 Z M114.120324,65 L99.3005233,65 L99.3005233,85 L114.119527,85 C116.907,85 119.829865,83.5351796 119.829865,79.9041916 L119.829865,69.5860778 C119.829865,67.5479042 119.354402,65 114.120324,65 Z M114.120324,78.6938623 C114.120324,79.3952096 113.91644,80.3502994 112.488457,80.4139222 L105.010861,80.4139222 L105.010861,69.5860778 L112.625442,69.5860778 C113.575572,69.5860778 114.120324,70.2230539 114.120324,71.0508982 L114.120324,78.6938623 L114.120324,78.6938623 Z M128.650227,65 C124.911031,65 123.212265,66.6556886 123.212265,69.5860778 L123.212265,85 L128.922603,85 L128.922603,80.1586826 L137.895081,80.1586826 L137.895081,85 L143.605419,85 L143.605419,65 L128.650227,65 L128.650227,65 Z M137.894284,76.0651198 L128.921806,76.0651198 L128.921806,71.4154192 C128.921806,70.0778443 129.464965,69.6317365 130.689064,69.5681138 L137.894284,69.5681138 L137.894284,76.0651198 Z" id="Shape" fill="#9397AD"></path>
        </g>
    </g>
</svg>