<?xml version="1.0" encoding="UTF-8"?>
<svg width="154px" height="36px" viewBox="0 0 154 36" version="1.1" xmlns="http://www.w3.org/2000/svg" xmlns:xlink="http://www.w3.org/1999/xlink">
    <title>kia</title>
    <g id="kia" stroke="none" stroke-width="1" fill="none" fill-rule="evenodd">
        <g transform="translate(42.000000, -17.000000)" fill-rule="nonzero">
            <polygon id="Path" fill="#FFFFFF" points="0 0 71 0 71 71 0 71"></polygon>
            <path d="M23.5173741,35.0312145 L28.3656523,27.8617041 C28.5513865,27.5800304 28.3283607,27.2610441 27.9384275,27.2610441 L24.1955031,27.2328767 C23.9167208,27.2328767 23.3595182,27.5895415 23.1180275,27.8990167 L21.4279549,30.1231416 L19.0782181,33.2292344 L19.0966829,27.8613383 C19.0966829,27.4955283 18.715801,27.2606783 18.4837238,27.2606783 L14.1922862,27.2606783 C13.895039,27.2606783 13.6256701,27.3733478 13.6165277,27.9268183 C13.6075674,28.4711436 14.2759209,28.5838131 14.2759209,28.7337952 L14.2759209,43.082327 C14.2759209,43.3544896 14.6473893,43.7671233 14.9077068,43.7671233 L18.5854613,43.748467 C18.8457788,43.7389559 19.0684426,43.3636348 19.0684426,43.1101285 L19.077494,37.1324272 L21.4272308,40.0695157 L23.9163587,43.1664633 C24.1205577,43.4104585 24.5199044,43.748467 24.9380779,43.748467 L28.9319063,43.7202996 C29.3127881,43.7202996 29.2754965,43.2509654 29.1828104,43.1291506 C27.2840452,40.4372002 25.3955524,37.7378681 23.5173741,35.0312145 L23.5173741,35.0312145 Z M37.300083,27.2614099 L33.0557125,27.2614099 C32.5542663,27.2614099 32.4427534,27.5617399 32.3591187,27.8807262 C32.4518048,28.4623642 33.0557125,28.6218573 33.0557125,28.6313684 L33.0557125,43.1108601 C33.0557125,43.4956923 33.2881518,43.7491986 33.6132771,43.7491986 L35.1364424,43.7396875 L37.4025445,43.7210312 C37.820356,43.7210312 37.9315068,43.4678907 37.9315068,43.1108601 L37.9315068,27.8617041 C37.9315068,27.4958941 37.6252083,27.2614099 37.300083,27.2614099 L37.300083,27.2614099 Z" id="Shape" fill="#9397AD"></path>
            <path d="M50.7492959,19.3251338 C46.1476362,18.1603242 40.9686927,17.5068493 35.4955707,17.5068493 C35.4575527,17.5068493 35.4195346,17.5160792 35.372658,17.5160792 C30.4111187,17.5160792 25.6765803,18.0654411 21.396782,19.0408538 C9.38086535,21.7876633 0.97260274,27.9247888 0.97260274,35.0184982 C0.97260274,42.1125767 9.38086535,48.249333 21.3964129,50.9957733 C25.6762112,51.9715552 30.4103805,52.5205479 35.3722889,52.5205479 L35.4952016,52.5205479 C40.9683236,52.5205479 46.147267,51.8766722 50.7489268,50.7118625 C62.1587694,47.8517102 70.0273973,41.8851527 70.0273973,35.0184982 C70.0281355,28.1522128 62.1595076,22.1852861 50.7492959,19.3251338 Z M50.7492959,46.8951264 C46.2140755,47.9465933 41.0155693,48.5432121 35.4955707,48.5432121 C35.4575527,48.5432121 35.4195346,48.5339822 35.372658,48.5339822 C30.3731006,48.5339822 25.6293346,48.0318773 21.396782,47.1509784 C10.80119,44.944301 3.49139045,40.3319501 3.49139045,35.0188674 C3.49139045,29.7057847 10.80119,25.0934337 21.396782,22.8867563 C25.6293346,22.0058574 30.3731006,21.5037525 35.372658,21.4945226 L35.4955707,21.4945226 C41.0155693,21.4945226 46.2140755,22.0911414 50.7492959,23.1422391 C60.7196203,25.4342006 67.5089787,29.9044115 67.5089787,35.0184982 C67.5089787,40.1325849 60.7196203,44.603165 50.7492959,46.8951264 Z" id="Shape" fill="#9397AD"></path>
            <path d="M54.0570697,27.8539381 C53.9147983,27.5336861 53.6666591,27.2328767 53.3423694,27.2328767 L47.4535214,27.2328767 C47.2440146,27.2328767 46.9579859,27.4023571 46.9579859,27.6844577 C46.9486993,28.5124173 47.8257301,28.4845374 47.777811,28.6066953 L42.81317,43.0704927 C42.7277328,43.3151755 42.9465262,43.7667564 43.2514997,43.7667564 L46.7105897,43.7385097 C47.0151917,43.7385097 47.4442347,43.4846559 47.5683043,43.1174483 L49.2072116,38.2619441 C49.7599528,36.6430758 50.3130654,35.0245744 50.855777,33.406073 C50.8847514,33.3404085 50.97056,33.3026239 51.0559971,33.3026239 C51.1893534,33.3026239 51.3323677,33.3495795 51.3605991,33.4438576 L54.5722928,43.1743086 C54.6391567,43.3907447 55.086773,43.7388765 55.3245112,43.7388765 L58.9266155,43.7671233 C59.1361222,43.7671233 59.3842614,43.3529601 59.317769,43.1647708 L54.0570697,27.8539381 L54.0570697,27.8539381 Z" id="Path" fill="#9397AD"></path>
        </g>
    </g>
</svg>