<?xml version="1.0" encoding="UTF-8"?>
<svg width="154px" height="36px" viewBox="0 0 154 36" version="1.1" xmlns="http://www.w3.org/2000/svg" xmlns:xlink="http://www.w3.org/1999/xlink">
    <title>nissan</title>
    <g id="nissan" stroke="none" stroke-width="1" fill="none" fill-rule="evenodd">
        <g id="nissan-7" transform="translate(0.000000, 7.000000)" fill="#9397AD" fill-rule="nonzero">
            <path d="M106.534844,12.8298923 C108.192635,8.99079884 109.763173,5.23895748 109.763173,5.15170535 C109.850425,4.9772011 110.024929,4.80269685 110.286686,4.80269685 L111.508215,4.80269685 C111.769972,4.80269685 111.944476,4.9772011 112.031728,5.15170535 C112.467989,6.19873085 113.776771,9.51431158 115.172805,12.8298923 L106.534844,12.8298923 Z M117.44136,3.40666286 C115.870822,-0.257926377 116.481586,0.178334247 112.904249,0.00382999724 L108.716147,0.00382999724 C105.400567,0.0910821219 105.924079,-0.170674252 104.789802,2.18513311 C104.789802,2.18513311 99.1184136,15.1856997 96.6753541,20.5080793 L96.588102,20.7698357 C96.1518414,21.6423569 96.5008499,21.729609 97.1988669,21.729609 L102.346742,21.729609 C102.695751,21.729609 102.870255,21.5551048 102.957507,21.3806005 C102.957507,21.3806005 103.655524,19.7228102 104.615297,17.4542549 L117.092351,17.4542549 C117.615864,18.7630368 118.226629,20.0718187 118.750142,21.3806005 C118.837394,21.6423569 119.09915,21.8168612 119.360907,21.8168612 L124.683286,21.8168612 C125.468555,21.8168612 125.643059,21.9041133 125.381303,21.2060963 C124.42153,18.937541 118.313881,5.50071385 117.44136,3.40666286 M37.4311615,0.00382999724 L32.196034,0.00382999724 C31.7597734,0.00382999724 31.6725212,0.178334247 31.6725212,0.527342745 L31.6725212,21.031592 C31.6725212,21.5551048 31.7597734,21.729609 32.3705382,21.729609 L37.3439093,21.729609 C37.8674221,21.729609 38.0419263,21.6423569 38.0419263,21.031592 L38.0419263,0.61459487 C37.9546742,0.178334247 37.8674221,0.00382999724 37.4311615,0.00382999724 M25.7393768,0.00382999724 L21.4640227,0.00382999724 C20.9405099,0.00382999724 20.7660057,0.178334247 20.7660057,0.701846994 L20.7660057,16.9307422 C20.7660057,16.9307422 12.2152975,3.58116711 11.0810198,1.83612461 C9.77223796,-0.0834221274 9.33597734,0.00382999724 5.58413598,0.00382999724 L0.698016997,0.00382999724 C0.0872521246,0.00382999724 0,0.178334247 0,0.701846994 L0,21.1188442 C0,21.6423569 0.174504249,21.8168612 0.698016997,21.8168612 L4.9733711,21.8168612 C5.58413598,21.8168612 5.6713881,21.729609 5.6713881,21.1188442 L5.6713881,5.06445323 C5.6713881,5.06445323 12.7388102,16.1454731 15.0946176,19.8973144 C16.3161473,21.8168612 16.4906516,21.8168612 19.9807365,21.8168612 L25.7393768,21.8168612 C26.2628895,21.8168612 26.4373938,21.729609 26.4373938,21.1188442 L26.4373938,0.701846994 C26.4373938,0.178334247 26.2628895,0.00382999724 25.7393768,0.00382999724 M153.301983,0.00382999724 L149.026629,0.00382999724 C148.503116,0.00382999724 148.328612,0.178334247 148.328612,0.701846994 L148.328612,16.9307422 C148.328612,16.9307422 139.777904,3.58116711 138.643626,1.83612461 C137.334844,-0.170674252 136.898584,0.00382999724 133.146742,0.00382999724 L128.260623,0.00382999724 C127.649858,0.00382999724 127.562606,0.178334247 127.562606,0.701846994 L127.562606,21.1188442 C127.562606,21.6423569 127.649858,21.8168612 128.260623,21.8168612 L132.535977,21.8168612 C133.146742,21.8168612 133.233994,21.729609 133.233994,21.1188442 L133.233994,5.06445323 C133.233994,5.06445323 140.301416,16.1454731 142.657224,19.8973144 C143.878754,21.8168612 144.053258,21.8168612 147.543343,21.8168612 L153.301983,21.8168612 C153.825496,21.8168612 154,21.729609 154,21.1188442 L154,0.701846994 C154,0.178334247 153.912748,0.00382999724 153.301983,0.00382999724 M59.7677054,8.38003396 C57.6736544,8.20552971 52.0895184,7.68201697 50.2572238,7.50751272 C49.5592068,7.42026059 49.3847025,7.07125209 49.2974504,6.63499147 L49.2974504,6.11147872 L49.2974504,5.6752181 C49.3847025,5.06445323 49.6464589,4.80269685 50.3444759,4.80269685 L65.6135977,4.80269685 C66.1371105,4.80269685 66.3116147,4.71544473 66.3116147,4.10467986 L66.3116147,0.61459487 C66.3116147,0.0910821219 66.1371105,0.00382999724 65.6135977,0.00382999724 L50.1699717,0.00382999724 C46.1563739,0.00382999724 43.8878187,1.48711612 43.2770538,4.54094048 C43.1025496,5.23895748 43.1025496,6.0242266 43.1025496,6.63499147 C43.1025496,7.33300847 43.1898017,8.11827759 43.1898017,8.64179034 C43.4515581,10.3868328 44.4985836,12.3936317 49.1229462,12.9171444 C52.7875354,13.2661529 58.109915,13.7024136 59.8549575,13.8769178 C60.6402266,13.9641699 60.8147309,14.5749348 60.8147309,14.9239433 L60.8147309,16.3199773 C60.8147309,16.8434901 60.5529745,17.0179943 59.9422096,17.0179943 L43.8878187,17.0179943 C43.3643059,17.0179943 43.1898017,17.1052464 43.1898017,17.7160113 L43.1898017,21.2060963 C43.1898017,21.729609 43.3643059,21.9041133 43.8878187,21.9041133 L59.8549575,21.9041133 C63.7813031,21.9041133 66.3988669,21.2060963 67.0968839,17.8032634 C67.2713881,17.1052464 67.2713881,16.1454731 67.2713881,15.4474561 C67.2713881,14.4004306 67.184136,13.5279093 67.0968839,13.1789008 C66.3988669,9.42705946 63.694051,8.72904246 59.7677054,8.38003396 M87.7756374,8.38003396 C85.6815864,8.20552971 80.0974504,7.68201697 78.2651558,7.50751272 C77.5671388,7.42026059 77.3926346,7.07125209 77.3053824,6.63499147 L77.3053824,6.11147872 L77.3053824,5.6752181 C77.3926346,5.06445323 77.6543909,4.80269685 78.3524079,4.80269685 L93.6215297,4.80269685 C94.1450425,4.80269685 94.3195467,4.71544473 94.3195467,4.10467986 L94.3195467,0.61459487 C94.3195467,0.0910821219 94.1450425,0.00382999724 93.6215297,0.00382999724 L78.1779037,0.00382999724 C74.1643059,0.00382999724 71.8957507,1.48711612 71.2849858,4.54094048 C71.1104816,5.23895748 71.1104816,6.0242266 71.1104816,6.63499147 C71.1104816,7.33300847 71.1977337,8.11827759 71.1977337,8.64179034 C71.4594901,10.3868328 72.5065156,12.3936317 77.1308782,12.9171444 C80.7954674,13.2661529 86.117847,13.7024136 87.8628895,13.8769178 C88.6481586,13.9641699 88.8226629,14.5749348 88.8226629,14.9239433 L88.8226629,16.3199773 C88.8226629,16.8434901 88.5609065,17.0179943 87.9501416,17.0179943 L71.8957507,17.0179943 C71.2849858,17.0179943 71.1977337,17.1052464 71.1977337,17.7160113 L71.1977337,21.2060963 C71.1977337,21.729609 71.372238,21.9041133 71.8957507,21.9041133 L87.8628895,21.9041133 C91.7892351,21.9041133 94.4067989,21.2060963 95.1048159,17.8032634 C95.2793201,17.1052464 95.2793201,16.1454731 95.2793201,15.4474561 C95.2793201,14.4004306 95.192068,13.5279093 95.1048159,13.1789008 C94.3195467,9.42705946 91.6147309,8.72904246 87.7756374,8.38003396" id="Shape"></path>
        </g>
    </g>
</svg>