<?xml version="1.0" encoding="UTF-8"?>
<svg width="154px" height="36px" viewBox="0 0 154 36" version="1.1" xmlns="http://www.w3.org/2000/svg" xmlns:xlink="http://www.w3.org/1999/xlink">
    <title>porsche</title>
    <g id="porsche" stroke="none" stroke-width="1" fill="none" fill-rule="evenodd">
        <g id="porsche-1" transform="translate(0.000000, -59.000000)" fill-rule="nonzero">
            <polygon id="Path" fill="#FFFFFF" points="0 0 154 0 154 154 0 154"></polygon>
            <path d="M23.9089412,78.9703198 L23.9089412,73.0296802 C23.9089412,71.1338293 25.0739011,70 26.6806316,70 L40.6433122,70 C42.2500428,70 43.4150026,71.1338293 43.4150026,73.0296802 L43.4150026,78.9703198 C43.4150026,80.867091 42.2500428,81.9990797 40.6433122,81.9990797 L26.6806316,81.9990797 C25.0739011,81.9990797 23.9089412,80.867091 23.9089412,78.9703198 Z M2,70.0009203 L19.1176131,70.0009203 C20.7540088,70.0009203 21.4619644,71.7946162 21.4619644,73.4530255 L21.4619644,74.840862 C21.4619644,76.9391825 20.3707667,78.4632257 18.4689879,78.4632257 L4.38924998,78.4632257 L4.38924998,81.9990797 L2,81.9990797 L2,70.0009203 Z M45.9950718,70.0009203 L63.1856453,70.0009203 C64.4091337,70.0009203 65.5299966,70.9313598 65.5299966,72.4038653 L65.5299966,75.5182146 C65.5299966,76.821382 64.6448516,77.5143799 63.6426494,77.8199248 C65.0874241,78.5985122 65.3824724,80.3241046 65.5299966,81.9990797 L63.1856453,81.9990797 C63.082218,80.1888182 62.4039276,78.4632257 60.5911443,78.4632257 L48.3835201,78.4632257 L48.3835201,81.9990797 L45.9950718,81.9990797 L45.9950718,70.0009203 Z M87.1575195,70.0009203 L87.1575195,72.4038653 L71.2649983,72.4038653 C70.6308048,72.4038653 70.3654216,72.9284454 70.3654216,73.6223637 C70.3654216,74.2822302 70.6604699,74.7902447 71.2649983,74.7902447 L84.224675,74.7902447 C86.3477401,74.7902447 87.4974664,75.9581256 87.4974664,78.4457397 C87.4974664,80.5274944 86.5249294,81.9990797 84.6383841,81.9990797 L68.3465856,81.9990797 L68.3465856,79.5961347 L84.2254768,79.5961347 C84.7706748,79.5961347 85.0071945,79.0549889 85.0071945,78.4963571 C85.0071945,77.8548968 84.8901373,77.176624 84.2254768,77.176624 L70.7638972,77.176624 C69.0240742,77.176624 68.0218721,75.6369353 68.0218721,73.7245188 C68.0218721,71.3381394 69.1419332,70.0018406 71.2658001,70.0018406 L87.1575195,70.0018406 L87.1575195,70.0009203 Z M108.56536,70.0009203 L108.56536,72.4038653 L92.8780895,72.4038653 C92.5100808,72.4038653 92.3769884,72.8097247 92.3769884,73.165887 L92.3769884,79.0052918 C92.3769884,79.3614541 92.5694112,79.597055 92.8780895,79.597055 L108.56536,79.597055 L108.56536,82 L92.8780895,82 C91.1679317,82 90.0045754,80.6462152 90.0045754,78.6656952 L90.0045754,73.5220492 C90.0045754,71.2543907 90.8440199,70.0018406 92.8780895,70.0018406 L108.56536,70.0018406 L108.56536,70.0009203 Z M111.130195,70.0009203 L113.533877,70.0009203 L113.533877,74.6715239 L127.408364,74.6715239 L127.408364,70.0009203 L129.869773,70.0009203 L129.869773,81.9990797 L127.408364,81.9990797 L127.408364,77.0744689 L113.533877,77.0744689 L113.533877,81.9990797 L111.130195,81.9990797 L111.130195,70.0009203 Z M132.391313,70.0009203 L152,70.0009203 L152,72.4038653 L134.77896,72.4038653 L134.77896,74.7230616 L152,74.7230616 L152,77.1085206 L134.77896,77.1085206 L134.77896,79.5961347 L152,79.5961347 L152,81.9990797 L132.391313,81.9990797 L132.391313,70.0009203 L132.391313,70.0009203 Z" id="Shape" fill="#9397AD"></path>
            <path d="M28.3750511,78 L40.5364497,78 C41.2758202,78 41.882442,77.6898669 41.882442,76.8845957 L41.882442,73.116172 C41.882442,72.3116684 41.2911064,72.0007677 40.5364497,72.0007677 L28.3750511,72.0007677 C27.6203944,72.0007677 27.0137726,72.3116684 27.0137726,73.116172 L27.0137726,76.8845957 C27.0137726,77.6898669 27.634876,78 28.3750511,78 Z M5,72.0007677 L5,75.0498976 L18.6699075,75.0498976 C19.2620476,75.0498976 19.7793656,74.8242068 19.7793656,74.1885875 L19.7793656,73.0601331 C19.7793656,72.3968782 19.3650285,72.0015353 18.6699075,72.0015353 L5,72.0015353 L5,72.0007677 L5,72.0007677 Z M49.1466168,72.0007677 L49.1466168,75.0498976 L63.4086645,75.0498976 C63.8817329,75.0498976 64,74.6683726 64,74.2876151 L64,72.9319345 C64,72.2824974 63.7489841,72 63.0530586,72 L49.1466168,72 L49.1466168,72.0007677 Z" id="Shape" fill="#FFFFFF"></path>
        </g>
    </g>
</svg>