<?xml version="1.0" encoding="UTF-8"?>
<svg width="154px" height="36px" viewBox="0 0 154 36" version="1.1" xmlns="http://www.w3.org/2000/svg" xmlns:xlink="http://www.w3.org/1999/xlink">
    <title>tesla</title>
    <g id="tesla" stroke="none" stroke-width="1" fill="none" fill-rule="evenodd">
        <g id="tesla-9" transform="translate(0.000000, 7.934673)" fill="#9397AD" fill-rule="nonzero">
            <path d="M131.613065,7.95979899 L131.613065,20.0653266 L135.482412,20.0653266 L135.482412,11.9949749 L149.633166,11.9949749 L149.633166,20.0653266 L153.502513,20.0653266 L153.502513,7.95979899 L131.613065,7.95979899 M135.040201,4.03517588 L149.964824,4.03517588 C152.065327,3.64824121 153.557789,1.76884422 154,0 L131.005025,0 C131.447236,1.76884422 132.994975,3.59296482 135.040201,4.03517588 M119.839196,20.0653266 C121.773869,19.2361809 122.824121,17.798995 123.266332,16.1407035 L105.854271,16.1407035 L105.854271,0.0552763819 L101.929648,0.0552763819 L101.929648,20.0653266 L119.839196,20.0653266 M72.9095477,3.9798995 L86.7286432,3.9798995 C88.8291457,3.3718593 90.5427136,1.76884422 90.9849246,0.0552763819 L69.0954774,0.0552763819 L69.0954774,11.8844221 L87.0050251,11.8844221 L87.0050251,16.0301508 L72.9648241,16.0301508 C70.7537688,16.638191 68.8743719,18.1306533 67.9346734,20.0653266 L90.8743719,20.0653266 L90.8743719,7.95979899 L72.9648241,7.95979899 L72.9095477,3.9798995 M38.8592965,4.03517588 L53.7839196,4.03517588 C55.8844221,3.64824121 57.4321608,1.76884422 57.8190955,0 L34.7688442,0 C35.2110553,1.76884422 36.758794,3.59296482 38.8592965,4.03517588 M38.8592965,11.9396985 L53.7839196,11.9396985 C55.8844221,11.5527638 57.4321608,9.67336683 57.8190955,7.90452261 L34.7688442,7.90452261 C35.2110553,9.67336683 36.758794,11.4974874 38.8592965,11.9396985 M38.8592965,20.0653266 L53.7839196,20.0653266 C55.8844221,19.678392 57.4321608,17.798995 57.8190955,16.0301508 L34.7688442,16.0301508 C35.2110553,17.798995 36.758794,19.678392 38.8592965,20.0653266" id="Shape"></path>
            <path d="M0,0.0552763819 C0.442211055,1.8241206 1.98994975,3.59296482 4.03517588,4.03517588 L10.3366834,4.03517588 L10.6683417,4.14572864 L10.6683417,20.0100503 L14.5929648,20.0100503 L14.5929648,4.14572864 L14.9246231,4.03517588 L21.2261307,4.03517588 C23.3266332,3.48241206 24.8190955,1.8241206 25.2613065,0.0552763819 L25.2613065,0 L0,0.0552763819" id="Path"></path>
        </g>
    </g>
</svg>