<?xml version="1.0" encoding="UTF-8"?>
<svg width="154px" height="36px" viewBox="0 0 154 36" version="1.1" xmlns="http://www.w3.org/2000/svg" xmlns:xlink="http://www.w3.org/1999/xlink">
    <title>toyota</title>
    <g id="toyota" stroke="none" stroke-width="1" fill="none" fill-rule="evenodd">
        <g id="toyota-1" transform="translate(0.000000, -59.000000)" fill-rule="nonzero">
            <polygon id="Path" fill="#FFFFFF" points="0 0 154 0 154 154 0 154"></polygon>
            <path d="M18.8708246,87.727715 C16.8720145,86.4674327 15.3987468,82.1184585 15.3987468,76.9501008 C15.3987468,76.7604583 15.3995419,76.5732164 15.4043123,76.3867746 L15.4059025,76.3891752 C9.84517165,75.5097782 5.82767481,73.1004385 5.7243155,70.2502 L5.70841407,70.2838076 C4.34804655,71.9857888 3.57126158,73.9534296 3.57126158,76.0498992 C3.57126158,82.2192811 10.2999526,87.2740134 18.8350463,87.7213136 L18.8708246,87.727715 L18.8708246,87.727715 Z M1,76.4995999 C1,69.5972538 9.5358888,64 20.0650221,64 C30.5949505,64 39.1308393,69.5972538 39.1308393,76.4995999 C39.1308393,83.4027462 30.5949505,89 20.0650221,89 C9.5358888,89 1,83.4027462 1,76.4995999 Z M20.0658172,65.803604 C22.0988153,65.803604 23.828096,68.9074993 24.4689238,73.2380693 L24.4705139,73.2308677 C28.4259952,72.611529 31.1944345,71.1824089 31.1944345,69.5188362 C31.1944345,67.2871363 26.2117207,65.4795314 20.0658172,65.4795314 C13.9207087,65.4795314 8.93799495,67.2871363 8.93799495,69.5188362 C8.93799495,71.1824089 11.7064343,72.6107288 15.6611205,73.2308677 L15.6635057,73.2380693 C16.3043334,68.9074993 18.0336142,65.803604 20.0658172,65.803604 Z M21.296588,87.7205134 C29.8316818,87.2732132 36.5611679,82.2184809 36.5611679,76.049099 C36.5611679,73.9526294 35.7835878,71.9849886 34.4240154,70.2830074 L34.4073189,70.2493999 C34.3047546,73.0996383 30.2872578,75.508978 24.7257319,76.388375 L24.7281171,76.3859745 C24.7320925,76.5724162 24.7336826,76.7596582 24.7336826,76.9493006 C24.7336826,82.1176584 23.2596198,86.4666325 21.2616049,87.7269148 L21.296588,87.7205134 L21.296588,87.7205134 Z M20.0658172,73.5589628 C20.9482487,73.5600001 21.8303015,73.5220885 22.7094303,73.4453158 L22.7086352,73.4461159 C22.2872473,70.6710943 21.263195,68.7114554 20.0666123,68.7114554 C18.8700295,68.7114554 17.8467723,70.6710943 17.4245893,73.4461159 L17.4237942,73.4453158 C18.3024163,73.5217066 19.1839229,73.5596175 20.0658172,73.5589628 Z M20.0658172,83.8380437 C21.59633,83.8380437 22.8453875,80.6325257 22.9113785,76.6132254 L22.9193292,76.6156259 C21.0212721,76.7916189 19.1111574,76.7916189 17.2131003,76.6156259 L17.221051,76.6132254 C17.2870419,80.6325257 18.5353043,83.8380437 20.0658172,83.8380437 L20.0658172,83.8380437 Z M98.2865522,76.4995999 C98.2865522,71.2240182 102.537005,66.94626 107.778912,66.94626 C113.023205,66.94626 117.272862,71.2240182 117.272862,76.4995999 C117.272862,81.776782 113.022409,86.0529399 107.778912,86.0529399 C102.537005,86.0529399 98.2865522,81.776782 98.2865522,76.4995999 L98.2865522,76.4995999 Z M107.778912,82.5497551 C110.706366,82.5497551 113.08045,79.8403482 113.08045,76.4987997 C113.08045,73.1580514 110.706366,70.4486445 107.778912,70.4486445 C104.851459,70.4486445 102.478965,73.1580514 102.478965,76.4987997 C102.478965,79.8411484 104.852254,82.5497551 107.778912,82.5497551 L107.778912,82.5497551 Z M128.044492,70.9263515 L128.044492,85.6192427 L124.043692,85.6192427 L124.043692,70.9263515 L124.058003,70.9263515 L118.464675,70.9263515 L118.464675,67.6048075 L133.62351,67.6048075 L133.62351,70.9263515 L128.044492,70.9263515 Z M138.462316,81.5663349 L138.459135,81.5703358 L136.924647,85.6200429 L132.252011,85.6200429 L139.637432,67.6048075 L144.61617,67.6048075 L152,85.6200429 L147.328954,85.6200429 L145.794466,81.5703358 L145.789696,81.5663349 L138.462316,81.5663349 L138.462316,81.5663349 Z M142.126801,78.5256537 L144.643997,78.5256537 L144.642407,78.5264539 L142.143497,71.932977 L142.109309,71.932977 L139.610399,78.5264539 L139.608809,78.5256537 L142.126801,78.5256537 L142.126801,78.5256537 Z M54.3151169,70.9263515 L54.3151169,85.6192427 L50.3151116,85.6192427 L50.3151116,70.9263515 L50.3294229,70.9263515 L44.7352991,70.9263515 L44.7352991,67.6048075 L59.8949294,67.6048075 L59.8949294,70.9263515 L54.3151169,70.9263515 Z M60.9181866,76.4995999 C60.9181866,71.2240182 65.1686394,66.94626 70.4121367,66.94626 C75.6548389,66.94626 79.9052917,71.2240182 79.9052917,76.4995999 C79.9052917,81.776782 75.6548389,86.0529399 70.4121367,86.0529399 C65.1686394,86.0529399 60.9181866,81.776782 60.9181866,76.4995999 L60.9181866,76.4995999 Z M70.4121367,82.5497551 C73.3387953,82.5497551 75.7128791,79.8403482 75.7128791,76.4987997 C75.7128791,73.1580514 73.3387953,70.4486445 70.4121367,70.4486445 C67.484683,70.4486445 65.1113943,73.1580514 65.1113943,76.4987997 C65.1113943,79.8411484 67.484683,82.5497551 70.4121367,82.5497551 L70.4121367,82.5497551 Z M89.0947294,85.6192427 L91.122957,85.6192427 L91.122957,78.7793106 L98.1013005,67.6048075 L93.4302548,67.6048075 L89.0947294,75.1769036 L84.760794,67.6048075 L80.0897483,67.6048075 L87.0672968,78.7793106 L87.0672968,85.6192427 L89.0947294,85.6192427 Z" id="Shape" fill="#9397AD"></path>
        </g>
    </g>
</svg>