<?xml version="1.0" encoding="UTF-8"?>
<svg width="154px" height="36px" viewBox="0 0 154 36" version="1.1" xmlns="http://www.w3.org/2000/svg" xmlns:xlink="http://www.w3.org/1999/xlink">
    <title>volkswagen</title>
    <g id="volkswagen" stroke="none" stroke-width="1" fill="none" fill-rule="evenodd">
        <g id="volkswagen-6" transform="translate(0.000000, -98.000000)">
            <polygon id="Path" fill="#FFFFFF" points="0 0 229 0 229 229 0 229"></polygon>
            <path d="M13.4097668,125.983259 L8.95113337,125.983259 L2,106.099888 L6.5110319,106.099888 L10.091991,117.318499 C10.5134923,118.637156 10.885336,119.972883 11.2066493,121.322545 C11.5246128,119.94894 11.8699663,118.744838 12.2939176,117.457868 L16.0082546,106.099888 L20.4656971,106.099888 L13.4097668,125.983259 L13.4097668,125.983259 Z M28.92805,119.820871 C28.92805,121.470703 27.819346,122.954799 26.1568855,122.954799 C24.7052097,122.954799 23.3595217,121.667829 23.3595217,119.877372 C23.3595217,118.199916 24.4158272,116.71582 26.1306862,116.71582 C27.6871589,116.717076 28.92805,118.060547 28.92805,119.820871 Z M32.7400387,119.820871 C32.7400387,116.049107 29.960538,113.273019 26.1556946,113.273019 C22.2115189,113.273019 19.5451513,116.162109 19.5451513,119.794503 C19.5451513,123.654157 22.371096,126.401367 25.9711091,126.401367 C30.3047007,126.401367 32.7400387,123.151925 32.7400387,119.820871 Z M35.6279089,125.983259 L35.6279089,105 L39.4005987,105 L39.4005987,125.983259 L35.6279089,125.983259 L35.6279089,125.983259 Z M50.2125466,125.983259 L46.5470355,120.235212 L46.5470355,125.983259 L42.7743456,125.983259 L42.7743456,105 L46.5470355,105 L46.5470355,118.752372 L50.2125466,113.716239 L54.8355207,113.716239 L50.3459245,119.367606 L55.1534841,125.983259 L50.2125466,125.983259 L50.2125466,125.983259 Z M60.8172824,126.351144 C58.1413878,126.351144 56.7564009,125.429548 56.0383037,123.440709 L59.2334195,122.128627 C59.5263746,122.938477 60.1420566,123.526088 60.9256519,123.526088 C61.6818571,123.526088 62.1415346,123.217215 62.1415346,122.68736 C62.1415346,120.896903 56.4372466,121.679129 56.4372466,117.402623 C56.4372466,115.166434 58.167587,113.319475 61.1412002,113.319475 C63.3335998,113.319475 64.8698276,114.158203 65.6379416,116.201032 L62.6166934,117.431501 C62.2451407,116.453404 61.5996868,116.144531 60.9780504,116.144531 C60.4921737,116.144531 59.9515167,116.453404 59.9515167,117.012137 C59.9515167,118.969587 65.6641413,118.074358 65.6641413,122.377232 C65.6653317,124.868304 63.5717746,126.351144 60.8172824,126.351144 L60.8172824,126.351144 Z M83.8880904,125.983259 L80.3273762,125.983259 L78.3350435,119.947684 C78.1241539,119.34725 77.9639548,118.728357 77.856312,118.098214 C77.7325198,118.732916 77.5730585,119.359299 77.3787714,119.974051 L75.3852478,125.982003 L71.6649565,125.982003 L66.6430395,113.686105 L70.5753065,113.686105 L72.7808057,119.611189 C73.0463707,120.282924 73.2321471,121.038783 73.4453136,121.76702 C73.63109,121.038783 73.8168664,120.254046 74.0038336,119.66769 L75.9699671,113.686105 L79.8498356,113.686105 L81.6825912,119.274693 C81.9493471,120.113421 82.1875219,120.898158 82.3470991,121.711775 C82.6126641,120.787667 82.878229,119.972796 83.143794,119.274693 L85.2159153,113.686105 L89.0695846,113.686105 L83.8880904,125.983259 Z M99.1789166,120.046875 C99.1789166,121.726842 98.1416651,123.266183 96.3863164,123.266183 C94.5773783,123.266183 93.4865374,121.725586 93.4865374,119.903739 C93.4865374,118.027902 94.6833661,116.76981 96.2529384,116.76981 C98.0356773,116.771066 99.1789166,118.281529 99.1789166,120.046875 L99.1789166,120.046875 Z M102.769403,125.982003 L102.769403,113.717494 L99.0467296,113.717494 L99.0467296,115.145089 C98.4084209,114.109235 97.024625,113.325753 95.4014633,113.325753 C91.7895415,113.325753 89.615005,116.15332 89.615005,120.017997 C89.615005,123.743304 91.6835537,126.403878 95.0561098,126.403878 C96.8650478,126.403878 98.0880758,125.732143 99.0467296,124.721401 L99.0467296,125.982003 L102.769403,125.982003 Z M114.972292,119.689035 C114.972292,121.341378 113.98982,122.796596 112.319024,122.796596 C110.567248,122.796596 109.504988,121.538504 109.504988,119.719169 C109.504988,118.095703 110.593447,116.722098 112.185646,116.722098 C114.095808,116.722098 114.972292,118.374442 114.972292,119.689035 L114.972292,119.689035 Z M118.588977,124.814314 L118.588977,113.70745 L114.865113,113.70745 L114.865113,115.1024 C114.148207,113.902065 112.822764,113.37221 111.203175,113.37221 C108.046167,113.37221 105.632265,116.108119 105.632265,119.802037 C105.632265,123.048968 107.38285,125.879046 111.097187,125.879046 C112.557199,125.879046 113.830243,125.430804 114.865113,124.226702 L114.865113,125.96317 C114.865113,127.959542 114.017211,129.028041 112.265434,129.028041 C111.124577,129.028041 110.036118,128.268415 110.036118,127.198661 L106.296772,127.198661 C106.296772,129.895647 108.39152,132 112.02726,132 C114.149398,132 115.764223,131.467634 117.059894,130.148019 C118.219806,128.913783 118.588977,127.536412 118.588977,124.814314 L118.588977,124.814314 Z M129.804631,118.449777 L125.136404,118.449777 C125.268591,117.088728 126.176037,116.08803 127.537207,116.08803 C128.951965,116.089286 129.804631,117.283343 129.804631,118.449777 Z M133.528495,119.684012 C133.528495,115.61091 131.100303,113.273019 127.564597,113.273019 C123.940766,113.273019 121.470893,116.145787 121.470893,119.933873 C121.470893,124.264369 124.392108,126.3976 127.537207,126.3976 C130.228583,126.3976 131.917242,125.416992 133.264121,123.5625 L130.835929,121.877511 C130.070196,122.953544 129.140123,123.475865 127.93734,123.475865 C126.311797,123.475865 125.189993,122.31822 125.109014,120.800223 L133.503487,120.800223 C133.528495,120.326869 133.528495,119.907506 133.528495,119.684012 Z M144.228501,125.983259 L144.228501,119.185547 C144.228501,118.064314 143.884338,116.772321 142.45648,116.772321 C141.716947,116.772321 140.158093,117.223075 140.158093,119.520787 L140.158093,125.982003 L136.385403,125.982003 L136.385403,113.702427 L140.158093,113.702427 L140.158093,115.322126 C140.711849,114.511021 141.795545,113.423689 143.909347,113.423689 C145.395558,113.423689 146.354212,113.981166 146.962748,114.624023 C147.707045,115.40625 148,116.41197 148,118.204939 L148,125.983259 L144.228501,125.983259 L144.228501,125.983259 Z" id="Shape" fill="#9397AD" fill-rule="nonzero"></path>
        </g>
    </g>
</svg>