<?xml version="1.0" encoding="UTF-8"?>
<svg width="154px" height="36px" viewBox="0 0 154 36" version="1.1" xmlns="http://www.w3.org/2000/svg" xmlns:xlink="http://www.w3.org/1999/xlink">
    <title>volvo</title>
    <g id="volvo" stroke="none" stroke-width="1" fill="none" fill-rule="evenodd">
        <g id="volvo-logo-1" transform="translate(0.000000, 7.000000)" fill="#9397AD">
            <path d="M0,0.9091775 L0,3.721025 L4.6121075,3.721025 L13.637855,20.6477425 L24.7445275,20.6477425 L33.770275,3.69292 L38.3816125,3.6638525 L38.3916225,0.9091775 L24.5939925,0.9091775 L24.5939925,3.6734775 L28.2684325,3.6734775 L21.89495,15.7070375 L15.0021025,3.7154425 L20.029625,3.69292 L20.02077,0.9091775 L0,0.9091775 Z M89.0129625,0.9091775 L89.0129625,3.721025 L93.6237225,3.721025 L102.649662,20.6477425 L113.75672,20.6477425 L122.782467,3.69292 L127.394382,3.6638525 L127.40266,0.9091775 L113.607532,0.9091775 L113.607532,3.6734775 L117.280432,3.6734775 L110.907142,15.7070375 L104.013525,3.7154425 L109.042587,3.69292 L109.033155,0.9091775 L89.0129625,0.9091775 Z M66.3191375,0.908985 L66.3191375,3.721025 L70.930475,3.721025 L70.938175,17.540215 L66.0765875,17.540215 L66.0765875,20.6204075 L70.9414475,20.647935 L93.9667575,20.647935 L93.9667575,11.45991 L90.967415,11.45991 C90.80302,16.3245775 86.583035,17.54676 84.80549,17.54676 C83.1767475,17.54676 80.0209025,17.5404075 80.0209025,17.5404075 L80.0209025,3.7154425 L84.56294,3.6927275 L84.55678,0.908985 L66.3191375,0.908985 L66.3191375,0.908985 Z M50.59054,18.120025 C47.8272025,18.120025 45.588235,14.8099875 45.588235,10.7247525 C45.588235,6.638555 47.8272025,3.326015 50.59054,3.326015 C53.3531075,3.326015 55.592845,6.638555 55.592845,10.7247525 C55.592845,14.8099875 53.3531075,18.120025 50.59054,18.120025 Z M50.79382,0.3420725 C42.95522,0.3420725 36.6009875,5.00962 36.6009875,10.764985 C36.6009875,16.520735 42.9550275,21.187705 50.79382,21.187705 C58.6318425,21.187705 64.9870375,16.520735 64.9870375,10.764985 C64.9870375,5.00962 58.6318425,0.3420725 50.79382,0.3420725 Z M139.603887,18.0674725 C136.841512,18.0674725 134.602737,14.7025725 134.602737,10.54977 C134.602737,6.3985075 136.841705,3.0328375 139.603887,3.0328375 C142.366647,3.0328375 144.605037,6.3985075 144.605037,10.54977 C144.60523,14.70238 142.366647,18.0674725 139.603887,18.0674725 Z M139.80813,0 C131.967797,0 125.61549,4.743585 125.61549,10.59289 C125.61549,16.4420025 131.967605,21.184625 139.80813,21.184625 C147.645575,21.184625 154,16.4420025 154,10.59289 C154,4.743585 147.645575,0 139.80813,0 Z" id="Shape"></path>
        </g>
    </g>
</svg>