<?xml version="1.0" encoding="UTF-8"?>
<svg width="1032px" height="172px" viewBox="0 0 1032 172" version="1.1" xmlns="http://www.w3.org/2000/svg" xmlns:xlink="http://www.w3.org/1999/xlink">
    <title>SVG icon</title>
    <g id="SVG-icon" stroke="none" stroke-width="1" fill="none" fill-rule="evenodd">
        <path d="M41.2075195,139.977539 C51.3637695,139.977539 60.3237305,137.072266 68.0874023,131.261719 C72.4819336,127.990234 74.6791992,124.59668 74.6791992,121.081055 C74.6791992,119.420898 74.0688477,117.80957 72.8481445,116.24707 C71.6274414,114.68457 70.3823242,113.90332 69.112793,113.90332 C68.1362305,113.90332 66.8178711,114.489258 65.1577148,115.661133 C63.3022461,116.979492 60.9462891,118.090332 58.0898438,118.993652 C55.2333984,119.896973 52.6333008,120.348633 50.2895508,120.348633 C46.3344727,120.348633 42.6357422,118.944824 39.1933594,116.137207 C35.7509766,113.32959 34.0297852,110.338867 34.0297852,107.165039 C34.0297852,105.84668 34.7866211,105.1875 36.300293,105.1875 L36.300293,105.1875 L70.7241211,105.1875 C72.8237305,105.1875 74.5327148,104.174316 75.8510742,102.147949 C77.1694336,100.121582 77.8286133,97.5214844 77.8286133,94.3476562 C77.8286133,90.4414062 76.6811523,86.4375 74.3862305,82.3359375 C72.3842773,78.7226562 69.7475586,75.5976562 66.4760742,72.9609375 C59.9819336,67.6875 52.0961914,65.0507812 42.8188477,65.0507812 C37.0083008,65.0507812 31.612793,66.1005859 26.6323242,68.2001953 C19.9916992,70.9833984 14.5229492,75.2070312 10.2260742,80.8710938 C5.24560547,87.4140625 2.75537109,94.7871094 2.75537109,102.990234 C2.75537109,109.09375 4.19580078,114.904297 7.07666016,120.421875 C9.27392578,124.572266 12.0571289,128.112305 15.4262695,131.041992 C22.3598633,136.999023 30.9536133,139.977539 41.2075195,139.977539 Z M45.6020508,91.4912109 L38.2045898,91.4912109 C36.4467773,91.4912109 35.2138672,91.1982422 34.5058594,90.6123047 C33.7978516,90.0263672 33.4438477,89.0009766 33.4438477,87.5361328 C33.4438477,85.4853516 34.1762695,83.4589844 35.6411133,81.4570312 C37.2036133,79.3085938 39.3520508,78.234375 42.0864258,78.234375 C44.527832,78.234375 46.5053711,79.0644531 48.019043,80.7246094 C49.5327148,82.3847656 50.2895508,84.5332031 50.2895508,87.1699219 C50.2895508,90.0507812 48.7270508,91.4912109 45.6020508,91.4912109 L45.6020508,91.4912109 Z M141.256348,139.977539 C145.260254,139.977539 149.093262,138.90332 152.755371,136.754883 C155.733887,135.045898 158.163086,132.921875 160.042969,130.382812 C161.922852,127.84375 162.862793,125.402344 162.862793,123.058594 C162.862793,121.251953 162.081543,120.226562 160.519043,119.982422 C158.956543,119.738281 157.931152,119.469727 157.442871,119.176758 C156.95459,118.883789 156.441895,118.200195 155.904785,117.125977 C154.830566,114.879883 154.293457,109.972656 154.293457,102.404297 L154.293457,102.404297 L154.439941,91.4912109 C154.439941,86.3154297 153.817383,82.2504883 152.572266,79.2963867 C151.327148,76.3422852 149.14209,73.7177734 146.01709,71.4228516 C140.108887,67.1259766 132.906738,64.9775391 124.410645,64.9775391 C114.791504,64.9775391 105.562988,67.3212891 96.7250977,72.0087891 C93.5024414,73.7666016 90.9511719,75.8173828 89.0712891,78.1611328 C87.1914062,80.5048828 86.2514648,82.8486328 86.2514648,85.1923828 C86.2514648,87.4873047 87.0083008,89.3427734 88.5219727,90.7587891 C90.0356445,92.1748047 91.9887695,92.8828125 94.3813477,92.8828125 C99.1176758,92.8828125 103.658691,89.7822266 108.004395,83.5810547 C109.713379,81.2373047 111.141602,79.6259766 112.289062,78.7470703 C113.436523,77.8681641 114.742676,77.4287109 116.20752,77.4287109 C118.648926,77.4287109 120.406738,78.5883789 121.480957,80.9077148 C122.555176,83.2270508 123.092285,86.9746094 123.092285,92.1503906 C123.092285,94.2011719 122.726074,95.5073242 121.993652,96.0688477 C121.26123,96.6303711 119.479004,96.9111328 116.646973,96.9111328 C103.902832,96.9599609 94.3325195,100.060547 87.9360352,106.212891 C83.8344727,110.119141 81.7836914,114.611328 81.7836914,119.689453 C81.7836914,122.863281 82.5405273,125.902832 84.0541992,128.808105 C85.5678711,131.713379 87.6186523,134.069336 90.206543,135.875977 C94.1616211,138.610352 99.3374023,139.977539 105.733887,139.977539 C111.935059,139.977539 117.477051,138.195312 122.359863,134.630859 C123.971191,133.410156 125.265137,132.799805 126.241699,132.799805 C127.120605,132.799805 128.072754,133.43457 129.098145,134.704102 C132.07666,138.219727 136.129395,139.977539 141.256348,139.977539 Z M117.672363,124.157227 C115.816895,124.157227 114.327637,123.437012 113.20459,121.996582 C112.081543,120.556152 111.52002,118.664062 111.52002,116.320312 C111.52002,113.878906 112.313477,111.779297 113.900391,110.021484 C115.487305,108.263672 117.35498,107.384766 119.503418,107.384766 C121.065918,107.433594 122.12793,107.921875 122.689453,108.849609 C123.250977,109.777344 123.531738,111.583984 123.531738,114.269531 C123.531738,120.861328 121.578613,124.157227 117.672363,124.157227 Z M205.050293,139.977539 C212.472168,139.977539 218.746582,138 223.873535,134.044922 C229.830566,129.503906 232.809082,123.839844 232.809082,117.052734 C232.809082,111.681641 230.953613,107.140625 227.242676,103.429688 C222.848145,99.0351562 216.524902,94.9824219 208.272949,91.2714844 C203.683105,89.171875 201.388184,86.9257812 201.388184,84.5332031 C201.388184,83.1660156 201.888672,81.9819336 202.889648,80.980957 C203.890625,79.9799805 205.074707,79.4794922 206.441895,79.4794922 C208.492676,79.4794922 211.080566,80.9931641 214.205566,84.0205078 C217.184082,86.8525391 219.344727,88.6835938 220.6875,89.5136719 C222.030273,90.34375 223.556152,90.7587891 225.265137,90.7587891 C227.315918,90.7587891 229.024902,90.1118164 230.39209,88.8178711 C231.759277,87.5239258 232.442871,85.9003906 232.442871,83.9472656 C232.442871,81.9453125 231.856934,79.5771484 230.685059,76.8427734 C229.513184,74.1083984 227.999512,71.59375 226.144043,69.2988281 C223.849121,66.4179688 221.578613,64.9775391 219.33252,64.9775391 C218.55127,64.9775391 217.599121,65.1972656 216.476074,65.6367188 C214.083496,66.515625 212.472168,66.9550781 211.64209,66.9550781 C210.909668,66.9550781 209.981934,66.8574219 208.858887,66.6621094 C203.341309,65.5878906 199.361816,65.0507812 196.92041,65.0507812 C188.131348,65.0507812 181.197754,68.0537109 176.119629,74.0595703 C172.555176,78.2587891 170.772949,83.2636719 170.772949,89.0742188 C170.772949,94.4453125 172.518555,99.1816406 176.009766,103.283203 C179.500977,107.384766 185.177246,111.364258 193.038574,115.22168 C196.79834,117.02832 198.678223,119.030273 198.678223,121.227539 C198.678223,122.643555 198.189941,123.778809 197.213379,124.633301 C196.236816,125.487793 194.942871,125.915039 193.331543,125.915039 C191.817871,125.915039 190.401855,125.512207 189.083496,124.706543 C187.765137,123.900879 186.10498,122.423828 184.103027,120.275391 C180.440918,116.369141 178.036133,113.964355 176.888672,113.061035 C175.741211,112.157715 174.483887,111.706055 173.116699,111.706055 C169.601074,111.706055 167.843262,113.952148 167.843262,118.444336 C167.843262,121.227539 168.697754,124.560059 170.406738,128.441895 C172.115723,132.32373 173.971191,135.167969 175.973145,136.974609 C177.291504,138.146484 179.098145,138.732422 181.393066,138.732422 C182.027832,138.732422 183.053223,138.634766 184.469238,138.439453 C185.299316,138.292969 186.031738,138.219727 186.666504,138.219727 C187.252441,138.219727 189.913574,138.488281 194.649902,139.025391 C199.679199,139.660156 203.145996,139.977539 205.050293,139.977539 Z M260.86084,163.561523 C269.796387,163.561523 277.437988,160.53418 283.785645,154.479492 C286.861816,151.549805 289.608398,147.997559 292.025391,143.822754 C294.442383,139.647949 296.847168,134.264648 299.239746,127.672852 L299.239746,127.672852 L308.907715,101.085938 C311.690918,93.5664062 314.156738,88.1708984 316.305176,84.8994141 C317.672363,82.8486328 319.527832,81.3837891 321.871582,80.5048828 C324.654785,79.5283203 326.571289,78.4907227 327.621094,77.3920898 C328.670898,76.293457 329.195801,74.8408203 329.195801,73.0341797 C329.195801,68.0537109 324.02002,65.5634766 313.668457,65.5634766 C308.102051,65.5634766 303.658691,66.3081055 300.338379,67.7973633 C297.018066,69.2866211 295.35791,71.2763672 295.35791,73.7666016 C295.35791,75.3291016 296.285645,77.2089844 298.141113,79.40625 C299.361816,80.8222656 299.972168,82.6533203 299.972168,84.8994141 C299.972168,87.6826172 299.166504,90.5756836 297.555176,93.5786133 C295.943848,96.581543 294.381348,98.0830078 292.867676,98.0830078 C291.45166,98.0830078 289.815918,96.3740234 287.960449,92.9560547 C286.300293,89.9287109 285.213867,87.7802734 284.701172,86.5107422 C284.188477,85.2412109 283.932129,84.0205078 283.932129,82.8486328 C283.932129,81.6279297 284.469238,80.2363281 285.543457,78.6738281 C286.666504,77.0136719 287.228027,75.5732422 287.228027,74.3525391 C287.228027,70.9345703 285.226074,68.5175781 281.222168,67.1015625 C278.243652,66.0273438 274.166504,65.4902344 268.990723,65.4902344 C261.617676,65.4902344 255.050293,66.0029297 249.288574,67.0283203 C240.645996,68.5908203 236.324707,71.5449219 236.324707,75.890625 C236.324707,76.9648438 236.678711,78.0756836 237.386719,79.2231445 C238.094727,80.3706055 238.937012,81.1396484 239.913574,81.5302734 C243.087402,82.9462891 245.138184,84.1425781 246.065918,85.1191406 C246.993652,86.0957031 248.385254,88.5371094 250.240723,92.4433594 L250.240723,92.4433594 L267.89209,130.016602 C270.431152,135.387695 271.700684,139.220703 271.700684,141.515625 C271.700684,143.46875 271.187988,145.104492 270.162598,146.422852 C269.137207,147.741211 267.867676,148.400391 266.354004,148.400391 C264.449707,148.400391 263.229004,147.326172 262.691895,145.177734 C262.008301,142.345703 261.495605,140.514648 261.153809,139.68457 C260.812012,138.854492 260.128418,137.902344 259.103027,136.828125 C256.95459,134.484375 254.122559,133.3125 250.606934,133.3125 C247.091309,133.3125 244.125,134.594238 241.708008,137.157715 C239.291016,139.721191 238.08252,142.882812 238.08252,146.642578 C238.08252,151.183594 239.815918,154.918945 243.282715,157.848633 C247.774902,161.657227 253.634277,163.561523 260.86084,163.561523 Z M387.496582,139.977539 C395.309082,139.977539 402.828613,138.244141 410.055176,134.777344 C413.131348,133.3125 415.597168,132.40918 417.452637,132.067383 C420.675293,131.432617 422.799316,130.700195 423.824707,129.870117 C426.217285,127.868164 428.268066,125.109375 429.977051,121.59375 C431.686035,118.078125 432.540527,114.904297 432.540527,112.072266 C432.540527,109.826172 431.930176,107.909668 430.709473,106.322754 C429.48877,104.73584 428.023926,103.942383 426.314941,103.942383 C425.143066,103.942383 423.629395,104.821289 421.773926,106.579102 C419.625488,108.678711 416.610352,110.387695 412.728516,111.706055 C408.84668,113.024414 404.928223,113.683594 400.973145,113.683594 C390.230957,113.683594 381.979004,109.020508 376.217285,99.6943359 C371.969238,92.7119141 369.845215,85.0214844 369.845215,76.6230469 C369.845215,70.5195312 371.322266,65.6489258 374.276367,62.0112305 C377.230469,58.3735352 381.222168,56.5546875 386.251465,56.5546875 C391.427246,56.5546875 396.383301,58.2148438 401.119629,61.5351562 C403.023926,62.9023438 404.635254,64.4282227 405.953613,66.112793 C407.271973,67.7973633 408.980957,70.5683594 411.080566,74.4257812 C412.54541,77.1601562 414.059082,79.0644531 415.621582,80.1386719 C417.184082,81.2128906 419.210449,81.75 421.700684,81.75 C424.435059,81.75 426.900879,81.0175781 429.098145,79.5527344 C433.150879,76.8183594 435.177246,72.4970703 435.177246,66.5888672 C435.177246,58.1904297 432.833496,51.1591797 428.145996,45.4951172 C426.241699,43.1513672 424.02002,41.9794922 421.480957,41.9794922 C420.699707,41.9794922 419.991699,42.0527344 419.356934,42.1992188 C417.403809,42.6386719 415.987793,42.8583984 415.108887,42.8583984 C413.888184,42.8583984 411.715332,42.1259766 408.590332,40.6611328 C401.949707,37.5361328 395.064941,35.9736328 387.936035,35.9736328 C380.318848,35.9736328 372.921387,37.5361328 365.743652,40.6611328 C356.319824,44.7626953 348.678223,50.6953125 342.818848,58.4589844 C336.080566,67.3945312 332.711426,77.2822266 332.711426,88.1220703 C332.711426,97.4482422 335.396973,106.383789 340.768066,114.928711 C346.236816,123.717773 353.683105,130.236328 363.106934,134.484375 C371.212402,138.146484 379.342285,139.977539 387.496582,139.977539 Z M513.546387,139.464844 C529.464355,139.464844 537.42334,136.828125 537.42334,131.554688 C537.42334,129.992188 536.715332,128.649414 535.299316,127.526367 C533.248535,125.915039 531.942383,124.572266 531.380859,123.498047 C530.819336,122.423828 530.51416,120.739258 530.465332,118.444336 L530.465332,118.444336 L529.806152,92.0039062 C529.708496,86.6328125 529.232422,82.5068359 528.37793,79.6259766 C527.523438,76.7451172 526.070801,74.2548828 524.02002,72.1552734 C519.430176,67.4189453 513.253418,65.0507812 505.489746,65.0507812 C497.57959,65.0507812 491.256348,68.4931641 486.52002,75.3779297 C485.396973,76.9892578 484.249512,77.7949219 483.077637,77.7949219 C480.733887,77.7949219 479.61084,75.9638672 479.708496,72.3017578 L479.708496,72.3017578 L480.660645,41.6132812 C480.758301,39.171875 479.391113,37.9511719 476.559082,37.9511719 C471.334473,37.9511719 464.327637,39.171875 455.538574,41.6132812 C449.044434,43.3710938 444.649902,45.0068359 442.35498,46.5205078 C440.060059,48.0341797 438.912598,50.0117188 438.912598,52.453125 C438.912598,54.5039062 440.42627,56.3105469 443.453613,57.8730469 C444.869629,58.6054688 445.833984,59.3256836 446.34668,60.0336914 C446.859375,60.7416992 447.213379,61.8525391 447.408691,63.3662109 C447.994629,67.4189453 448.287598,74.6943359 448.287598,85.1923828 L448.287233,85.9317496 C448.274365,98.9248953 447.920482,108.260959 447.225586,113.939941 C446.517578,119.726074 445.23584,123.27832 443.380371,124.59668 C441.280762,126.061523 439.962402,127.147949 439.425293,127.855957 C438.888184,128.563965 438.619629,129.577148 438.619629,130.895508 C438.619629,136.608398 447.018066,139.464844 463.814941,139.464844 C478.17041,139.464844 485.348145,136.706055 485.348145,131.188477 C485.348145,129.821289 484.884277,128.625 483.956543,127.599609 C481.95459,125.353516 480.831543,123.81543 480.587402,122.985352 C480.343262,122.155273 480.050293,118.615234 479.708496,112.365234 L479.708496,112.365234 L479.708496,98.2294922 C479.708496,93.9326172 480.221191,91.0029297 481.246582,89.4404297 C482.662598,87.2919922 484.859863,86.2177734 487.838379,86.2177734 C491.98877,86.2177734 494.869629,88.2441406 496.480957,92.296875 C497.70166,95.2753906 498.312012,100.011719 498.312012,106.505859 C498.312012,117.248047 497.286621,123.961914 495.23584,126.647461 C493.770996,128.551758 492.916504,129.723633 492.672363,130.163086 C492.428223,130.602539 492.306152,131.237305 492.306152,132.067383 C492.306152,136.999023 499.38623,139.464844 513.546387,139.464844 Z M600.411621,139.977539 C604.415527,139.977539 608.248535,138.90332 611.910645,136.754883 C614.88916,135.045898 617.318359,132.921875 619.198242,130.382812 C621.078125,127.84375 622.018066,125.402344 622.018066,123.058594 C622.018066,121.251953 621.236816,120.226562 619.674316,119.982422 C618.111816,119.738281 617.086426,119.469727 616.598145,119.176758 C616.109863,118.883789 615.597168,118.200195 615.060059,117.125977 C613.98584,114.879883 613.44873,109.972656 613.44873,102.404297 L613.44873,102.404297 L613.595215,91.4912109 C613.595215,86.3154297 612.972656,82.2504883 611.727539,79.2963867 C610.482422,76.3422852 608.297363,73.7177734 605.172363,71.4228516 C599.26416,67.1259766 592.062012,64.9775391 583.565918,64.9775391 C573.946777,64.9775391 564.718262,67.3212891 555.880371,72.0087891 C552.657715,73.7666016 550.106445,75.8173828 548.226562,78.1611328 C546.34668,80.5048828 545.406738,82.8486328 545.406738,85.1923828 C545.406738,87.4873047 546.163574,89.3427734 547.677246,90.7587891 C549.190918,92.1748047 551.144043,92.8828125 553.536621,92.8828125 C558.272949,92.8828125 562.813965,89.7822266 567.159668,83.5810547 C568.868652,81.2373047 570.296875,79.6259766 571.444336,78.7470703 C572.591797,77.8681641 573.897949,77.4287109 575.362793,77.4287109 C577.804199,77.4287109 579.562012,78.5883789 580.63623,80.9077148 C581.710449,83.2270508 582.247559,86.9746094 582.247559,92.1503906 C582.247559,94.2011719 581.881348,95.5073242 581.148926,96.0688477 C580.416504,96.6303711 578.634277,96.9111328 575.802246,96.9111328 C563.058105,96.9599609 553.487793,100.060547 547.091309,106.212891 C542.989746,110.119141 540.938965,114.611328 540.938965,119.689453 C540.938965,122.863281 541.695801,125.902832 543.209473,128.808105 C544.723145,131.713379 546.773926,134.069336 549.361816,135.875977 C553.316895,138.610352 558.492676,139.977539 564.88916,139.977539 C571.090332,139.977539 576.632324,138.195312 581.515137,134.630859 C583.126465,133.410156 584.42041,132.799805 585.396973,132.799805 C586.275879,132.799805 587.228027,133.43457 588.253418,134.704102 C591.231934,138.219727 595.284668,139.977539 600.411621,139.977539 Z M576.827637,124.157227 C574.972168,124.157227 573.48291,123.437012 572.359863,121.996582 C571.236816,120.556152 570.675293,118.664062 570.675293,116.320312 C570.675293,113.878906 571.46875,111.779297 573.055664,110.021484 C574.642578,108.263672 576.510254,107.384766 578.658691,107.384766 C580.221191,107.433594 581.283203,107.921875 581.844727,108.849609 C582.40625,109.777344 582.687012,111.583984 582.687012,114.269531 C582.687012,120.861328 580.733887,124.157227 576.827637,124.157227 Z M651.168457,139.464844 C660.250488,139.464844 667.135254,138.976562 671.822754,138 C674.166504,137.511719 676.046387,136.522949 677.462402,135.033691 C678.878418,133.544434 679.586426,131.798828 679.586426,129.796875 C679.586426,126.525391 677.38916,124.230469 672.994629,122.912109 C670.992676,122.326172 669.686523,121.752441 669.076172,121.190918 C668.46582,120.629395 667.989746,119.616211 667.647949,118.151367 C667.11084,115.46582 666.842285,110.436523 666.842285,103.063477 L666.842933,102.591518 C666.855889,97.9249007 667.063193,94.847357 667.464844,93.3588867 C667.879883,91.8208008 668.770996,91.0517578 670.138184,91.0517578 C671.01709,91.0517578 671.969238,91.5644531 672.994629,92.5898438 C675.729004,95.2753906 677.938477,97.0576172 679.623047,97.9365234 C681.307617,98.8154297 683.39502,99.2548828 685.885254,99.2548828 C690.42627,99.2548828 694.259277,97.765625 697.384277,94.7871094 C699.093262,93.2246094 700.484863,91.2348633 701.559082,88.8178711 C702.633301,86.4008789 703.17041,84.0449219 703.17041,81.75 C703.17041,79.6992188 702.730957,77.5629883 701.852051,75.3413086 C700.973145,73.1196289 699.850098,71.3007812 698.48291,69.8847656 C695.650879,67.0039062 692.013184,65.5634766 687.569824,65.5634766 C681.270996,65.5634766 676.168457,68.6152344 672.262207,74.71875 C671.383301,76.1347656 670.455566,76.8427734 669.479004,76.8427734 C668.209473,76.8427734 667.452637,75.7685547 667.208496,73.6201172 C666.769043,69.6650391 666.268555,67.3212891 665.707031,66.5888672 C665.145508,65.8564453 663.570801,65.4902344 660.98291,65.4902344 C655.709473,65.5390625 649.312988,66.6865234 641.793457,68.9326172 C636.178223,70.5927734 632.174316,72.2651367 629.781738,73.949707 C627.38916,75.6342773 626.192871,77.6484375 626.192871,79.9921875 C626.192871,82.5800781 627.92627,84.5576172 631.393066,85.9248047 C632.85791,86.5107422 633.834473,87.2797852 634.322754,88.2319336 C634.811035,89.184082 635.055176,90.7587891 635.055176,92.9560547 C635.055176,104.967773 634.664551,113.195312 633.883301,117.638672 C633.687988,118.957031 633.321777,119.994629 632.784668,120.751465 C632.247559,121.508301 631.270996,122.350586 629.85498,123.27832 C626.925293,125.280273 625.460449,127.550781 625.460449,130.089844 C625.460449,133.458984 627.462402,135.827148 631.466309,137.194336 C635.958496,138.708008 642.525879,139.464844 651.168457,139.464844 Z M742.794434,166.930664 C751.388184,166.930664 758.956543,165.905273 765.499512,163.854492 C773.849121,161.217773 780.172363,157.165039 784.469238,151.696289 C788.08252,147.057617 789.88916,142.272461 789.88916,137.34082 C789.88916,134.313477 789.144531,131.481445 787.655273,128.844727 C786.166016,126.208008 784.151855,124.157227 781.612793,122.692383 C778.438965,120.788086 773.971191,119.835938 768.209473,119.835938 C764.400879,119.835938 758.492676,120.397461 750.484863,121.520508 C746.67627,122.057617 743.79541,122.326172 741.842285,122.326172 C738.961426,122.326172 736.678711,121.850098 734.994141,120.897949 C733.30957,119.945801 732.467285,118.639648 732.467285,116.979492 C732.467285,114.391602 733.76123,113.097656 736.349121,113.097656 C737.032715,113.097656 738.009277,113.170898 739.278809,113.317383 C740.841309,113.512695 742.428223,113.610352 744.039551,113.610352 C750.680176,113.610352 756.771484,112.633789 762.313477,110.680664 C767.855469,108.727539 772.384277,105.993164 775.899902,102.477539 C779.806152,98.5224609 781.759277,93.6396484 781.759277,87.8291016 C781.759277,86.9990234 781.686035,86.0712891 781.539551,85.0458984 C781.441895,84.0205078 781.393066,83.4345703 781.393066,83.2880859 C781.393066,82.7021484 781.95459,81.9208984 783.077637,80.9443359 C784.835449,79.4306641 786.336914,77.4042969 787.582031,74.8652344 C788.827148,72.3261719 789.449707,70.0556641 789.449707,68.0537109 C789.449707,66.1982422 788.98584,64.574707 788.058105,63.1831055 C787.130371,61.7915039 786.056152,61.0957031 784.835449,61.0957031 C784.200684,61.0957031 783.297363,61.5351562 782.125488,62.4140625 C776.852051,66.6132812 771.554199,68.7128906 766.231934,68.7128906 C764.571777,68.7128906 761.52002,68.2734375 757.07666,67.3945312 C752.38916,66.4179688 748.141113,65.9296875 744.33252,65.9296875 C734.762207,65.9296875 726.046387,68.4931641 718.185059,73.6201172 C715.01123,75.7197266 712.533203,78.2587891 710.750977,81.2373047 C708.96875,84.2158203 708.077637,87.3408203 708.077637,90.6123047 C708.077637,96.8134766 710.592285,102.233398 715.621582,106.87207 C717.086426,108.239258 717.818848,109.264648 717.818848,109.948242 C717.818848,110.53418 717.23291,111.120117 716.061035,111.706055 C713.277832,113.073242 710.946289,115.001953 709.066406,117.492188 C707.186523,119.982422 706.246582,122.399414 706.246582,124.743164 C706.246582,128.258789 708.199707,131.652344 712.105957,134.923828 C713.32666,135.949219 713.937012,136.730469 713.937012,137.267578 C713.937012,137.951172 713.20459,138.585938 711.739746,139.171875 C710.128418,139.855469 708.797852,141.00293 707.748047,142.614258 C706.698242,144.225586 706.17334,145.983398 706.17334,147.887695 C706.17334,150.62207 707.101074,153.258789 708.956543,155.797852 C710.812012,158.336914 713.302246,160.387695 716.427246,161.950195 C723.165527,165.270508 731.95459,166.930664 742.794434,166.930664 Z M745.724121,103.869141 C743.087402,103.869141 740.963379,102.282227 739.352051,99.1083984 C737.740723,95.9345703 736.935059,91.7109375 736.935059,86.4375 C736.935059,83.3613281 737.679688,80.8955078 739.168945,79.0400391 C740.658203,77.1845703 742.623535,76.2568359 745.064941,76.2568359 C747.945801,76.3544922 750.179688,77.855957 751.766602,80.7612305 C753.353516,83.6665039 754.146973,87.7314453 754.146973,92.9560547 C754.146973,96.2763672 753.390137,98.925293 751.876465,100.902832 C750.362793,102.880371 748.312012,103.869141 745.724121,103.869141 Z M744.112793,154.699219 C739.132324,154.699219 735.07959,153.808105 731.95459,152.025879 C728.82959,150.243652 727.26709,147.912109 727.26709,145.03125 C727.26709,143.615234 727.877441,142.907227 729.098145,142.907227 C729.342285,142.907227 729.708496,142.956055 730.196777,143.053711 C731.270996,143.297852 732.662598,143.493164 734.371582,143.639648 C736.666504,143.883789 739.059082,144.005859 741.549316,144.005859 C744.918457,144.005859 747.970215,143.786133 750.70459,143.34668 C752.169434,143.151367 753.29248,143.053711 754.07373,143.053711 C755.587402,143.053711 756.856934,143.480957 757.882324,144.335449 C758.907715,145.189941 759.42041,146.227539 759.42041,147.448242 C759.42041,149.743164 758.06543,151.525391 755.355469,152.794922 C752.645508,154.064453 748.897949,154.699219 744.112793,154.699219 Z M806.515137,60.9492188 C814.962402,60.9492188 822.164551,59.2158203 828.121582,55.7490234 C831.881348,53.5517578 833.76123,50.5732422 833.76123,46.8134766 C833.76123,44.1279297 832.516113,41.9916992 830.025879,40.4047852 C827.535645,38.8178711 824.166504,38.0244141 819.918457,38.0244141 C814.596191,38.0244141 808.883301,39.2451172 802.779785,41.6865234 C796.773926,44.0791016 793.770996,47.375 793.770996,51.5742188 C793.770996,54.6992188 795.187012,57.140625 798.019043,58.8984375 C800.118652,60.265625 802.950684,60.9492188 806.515137,60.9492188 Z M818.893066,139.464844 C834.859863,139.464844 842.843262,136.31543 842.843262,130.016602 C842.843262,128.844727 842.586914,127.880371 842.074219,127.123535 C841.561523,126.366699 840.54834,125.451172 839.034668,124.376953 C837.179199,123.058594 835.946289,121.618164 835.335938,120.055664 C834.725586,118.493164 834.42041,116.027344 834.42041,112.658203 L834.42041,112.658203 L834.42041,70.1044922 C834.42041,67.0771484 833.077637,65.5634766 830.39209,65.5634766 C826.974121,65.5634766 822.140137,66.2958984 815.890137,67.7607422 C809.640137,69.2255859 803.780762,71.0078125 798.312012,73.1074219 C794.356934,74.6210938 792.379395,76.9160156 792.379395,79.9921875 C792.379395,82.5800781 793.893066,84.5332031 796.92041,85.8515625 C799.361816,86.9257812 800.729004,88.4638672 801.021973,90.4658203 C801.119629,91.1982422 801.27832,93.7739258 801.498047,98.1928711 C801.717773,102.611816 801.827637,105.626953 801.827637,107.238281 C801.827637,112.267578 801.510254,116.051758 800.875488,118.59082 C800.240723,121.129883 799.166504,122.960938 797.652832,124.083984 C795.455566,125.695312 794.088379,126.867188 793.55127,127.599609 C793.01416,128.332031 792.745605,129.357422 792.745605,130.675781 C792.745605,132.238281 793.270508,133.629883 794.320312,134.850586 C795.370117,136.071289 796.749512,136.925781 798.458496,137.414062 C803.487793,138.78125 810.299316,139.464844 818.893066,139.464844 Z M867.086426,139.538086 C875.58252,139.538086 881.83252,138.854492 885.836426,137.487305 C889.840332,136.120117 891.842285,133.996094 891.842285,131.115234 C891.842285,129.992188 891.57373,128.991211 891.036621,128.112305 C888.98584,125.036133 887.777344,122.960938 887.411133,121.886719 C887.044922,120.8125 886.861816,118.834961 886.861816,115.954102 L886.861816,115.954102 L886.861816,101.452148 C886.861816,95.9345703 887.472168,92.1259766 888.692871,90.0263672 C889.913574,87.9267578 892.159668,86.8769531 895.431152,86.8769531 C898.849121,86.8769531 901.192871,88.1708984 902.462402,90.7587891 C904.024902,93.9814453 904.806152,98.9619141 904.806152,105.700195 C904.806152,117.321289 903.82959,124.157227 901.876465,126.208008 C900.216309,128.014648 899.239746,129.149902 898.946777,129.61377 C898.653809,130.077637 898.507324,130.797852 898.507324,131.774414 C898.507324,134.508789 899.947754,136.486328 902.828613,137.707031 C905.611816,138.878906 910.372559,139.464844 917.11084,139.464844 C927.022949,139.464844 933.907715,138.830078 937.765137,137.560547 C941.622559,136.291016 943.55127,134.044922 943.55127,130.822266 C943.55127,129.40625 943.185059,128.307617 942.452637,127.526367 C939.962402,124.889648 938.460938,123.107422 937.948242,122.179688 C937.435547,121.251953 937.130371,119.811523 937.032715,117.858398 L937.032715,117.858398 L936.007324,92.0771484 C935.714355,86.0712891 934.95752,81.5180664 933.736816,78.4174805 C932.516113,75.3168945 930.367676,72.6191406 927.291504,70.3242188 C922.896973,67.1015625 917.623535,65.4902344 911.471191,65.4902344 C903.463379,65.4902344 897.359863,68.5175781 893.160645,74.5722656 C891.842285,76.4277344 890.597168,77.3554688 889.425293,77.3554688 C887.472168,77.3554688 886.495605,76.1835938 886.495605,73.8398438 C886.495605,73.546875 886.52002,73.2050781 886.568848,72.8144531 C886.617676,71.7402344 886.64209,71.1298828 886.64209,70.9833984 C886.64209,69.5185547 886.141602,68.2490234 885.140625,67.1748047 C884.139648,66.1005859 882.906738,65.5634766 881.441895,65.5634766 C879.830566,65.5634766 876.852051,66.137207 872.506348,67.284668 C868.160645,68.4321289 863.644043,69.8359375 858.956543,71.4960938 C853.634277,73.4003906 850.118652,74.9750977 848.409668,76.2202148 C846.700684,77.465332 845.846191,79.0644531 845.846191,81.0175781 C845.846191,82.921875 846.895996,84.5332031 848.995605,85.8515625 C851.437012,87.3652344 852.914062,88.6469727 853.426758,89.6967773 C853.939453,90.746582 854.195801,92.9560547 854.195801,96.3251953 C854.195801,102.428711 854.024902,108.263672 853.683105,113.830078 C853.390137,118.517578 853.072754,121.459473 852.730957,122.655762 C852.38916,123.852051 851.583496,124.914062 850.313965,125.841797 C848.751465,126.964844 847.762695,127.831543 847.347656,128.441895 C846.932617,129.052246 846.725098,129.943359 846.725098,131.115234 C846.725098,136.730469 853.512207,139.538086 867.086426,139.538086 Z M983.614746,166.930664 C992.208496,166.930664 999.776855,165.905273 1006.31982,163.854492 C1014.66943,161.217773 1020.99268,157.165039 1025.28955,151.696289 C1028.90283,147.057617 1030.70947,142.272461 1030.70947,137.34082 C1030.70947,134.313477 1029.96484,131.481445 1028.47559,128.844727 C1026.98633,126.208008 1024.97217,124.157227 1022.43311,122.692383 C1019.25928,120.788086 1014.7915,119.835938 1009.02979,119.835938 C1005.22119,119.835938 999.312988,120.397461 991.305176,121.520508 C987.496582,122.057617 984.615723,122.326172 982.662598,122.326172 C979.781738,122.326172 977.499023,121.850098 975.814453,120.897949 C974.129883,119.945801 973.287598,118.639648 973.287598,116.979492 C973.287598,114.391602 974.581543,113.097656 977.169434,113.097656 C977.853027,113.097656 978.82959,113.170898 980.099121,113.317383 C981.661621,113.512695 983.248535,113.610352 984.859863,113.610352 C991.500488,113.610352 997.591797,112.633789 1003.13379,110.680664 C1008.67578,108.727539 1013.20459,105.993164 1016.72021,102.477539 C1020.62646,98.5224609 1022.57959,93.6396484 1022.57959,87.8291016 C1022.57959,86.9990234 1022.50635,86.0712891 1022.35986,85.0458984 C1022.26221,84.0205078 1022.21338,83.4345703 1022.21338,83.2880859 C1022.21338,82.7021484 1022.7749,81.9208984 1023.89795,80.9443359 C1025.65576,79.4306641 1027.15723,77.4042969 1028.40234,74.8652344 C1029.64746,72.3261719 1030.27002,70.0556641 1030.27002,68.0537109 C1030.27002,66.1982422 1029.80615,64.574707 1028.87842,63.1831055 C1027.95068,61.7915039 1026.87646,61.0957031 1025.65576,61.0957031 C1025.021,61.0957031 1024.11768,61.5351562 1022.9458,62.4140625 C1017.67236,66.6132812 1012.37451,68.7128906 1007.05225,68.7128906 C1005.39209,68.7128906 1002.34033,68.2734375 997.896973,67.3945312 C993.209473,66.4179688 988.961426,65.9296875 985.152832,65.9296875 C975.58252,65.9296875 966.866699,68.4931641 959.005371,73.6201172 C955.831543,75.7197266 953.353516,78.2587891 951.571289,81.2373047 C949.789062,84.2158203 948.897949,87.3408203 948.897949,90.6123047 C948.897949,96.8134766 951.412598,102.233398 956.441895,106.87207 C957.906738,108.239258 958.63916,109.264648 958.63916,109.948242 C958.63916,110.53418 958.053223,111.120117 956.881348,111.706055 C954.098145,113.073242 951.766602,115.001953 949.886719,117.492188 C948.006836,119.982422 947.066895,122.399414 947.066895,124.743164 C947.066895,128.258789 949.02002,131.652344 952.92627,134.923828 C954.146973,135.949219 954.757324,136.730469 954.757324,137.267578 C954.757324,137.951172 954.024902,138.585938 952.560059,139.171875 C950.94873,139.855469 949.618164,141.00293 948.568359,142.614258 C947.518555,144.225586 946.993652,145.983398 946.993652,147.887695 C946.993652,150.62207 947.921387,153.258789 949.776855,155.797852 C951.632324,158.336914 954.122559,160.387695 957.247559,161.950195 C963.98584,165.270508 972.774902,166.930664 983.614746,166.930664 Z M986.544434,103.869141 C983.907715,103.869141 981.783691,102.282227 980.172363,99.1083984 C978.561035,95.9345703 977.755371,91.7109375 977.755371,86.4375 C977.755371,83.3613281 978.5,80.8955078 979.989258,79.0400391 C981.478516,77.1845703 983.443848,76.2568359 985.885254,76.2568359 C988.766113,76.3544922 991,77.855957 992.586914,80.7612305 C994.173828,83.6665039 994.967285,87.7314453 994.967285,92.9560547 C994.967285,96.2763672 994.210449,98.925293 992.696777,100.902832 C991.183105,102.880371 989.132324,103.869141 986.544434,103.869141 Z M984.933105,154.699219 C979.952637,154.699219 975.899902,153.808105 972.774902,152.025879 C969.649902,150.243652 968.087402,147.912109 968.087402,145.03125 C968.087402,143.615234 968.697754,142.907227 969.918457,142.907227 C970.162598,142.907227 970.528809,142.956055 971.01709,143.053711 C972.091309,143.297852 973.48291,143.493164 975.191895,143.639648 C977.486816,143.883789 979.879395,144.005859 982.369629,144.005859 C985.73877,144.005859 988.790527,143.786133 991.524902,143.34668 C992.989746,143.151367 994.112793,143.053711 994.894043,143.053711 C996.407715,143.053711 997.677246,143.480957 998.702637,144.335449 C999.728027,145.189941 1000.24072,146.227539 1000.24072,147.448242 C1000.24072,149.743164 998.885742,151.525391 996.175781,152.794922 C993.46582,154.064453 989.718262,154.699219 984.933105,154.699219 Z" id="easyCharging" fill="#FFFFFF" fill-rule="nonzero"></path>
    </g>
</svg>