<?xml version="1.0" encoding="UTF-8"?>
<svg width="1032px" height="250px" viewBox="0 0 1032 250" version="1.1" xmlns="http://www.w3.org/2000/svg" xmlns:xlink="http://www.w3.org/1999/xlink">
    <title>logo-white</title>
    <g id="logo-white" stroke="none" stroke-width="1" fill="none" fill-rule="evenodd">
        <path d="M70.6835938,196.681641 L70.6835938,179.220703 L81.6992188,179.220703 C87.7734375,179.220703 91.9726562,177.956055 94.296875,175.426758 C96.6210938,172.897461 97.7832031,169.806641 97.7832031,166.154297 C97.7832031,164.025391 97.3486328,162.072266 96.4794922,160.294922 C95.6103516,158.517578 94.4628906,157.135742 93.0371094,156.149414 C91.6113281,155.163086 89.84375,154.494141 87.734375,154.142578 C86.2304688,153.869141 84.0527344,153.732422 81.2011719,153.732422 L81.2011719,153.732422 L65,153.732422 L65,196.681641 L70.6835938,196.681641 Z M81.7871094,174.152344 L70.6835938,174.152344 L70.6835938,158.800781 L81.6699219,158.800781 C84.2480469,158.800781 86.015625,158.927734 86.9726562,159.181641 C88.4570312,159.591797 89.6533203,160.436523 90.5615234,161.71582 C91.4697266,162.995117 91.9238281,164.533203 91.9238281,166.330078 C91.9238281,168.810547 91.1523438,170.734375 89.609375,172.101562 C88.0664062,173.46875 85.4589844,174.152344 81.7871094,174.152344 L81.7871094,174.152344 Z M113.193359,197.384766 C115.263672,197.384766 117.202148,197.042969 119.008789,196.359375 C120.81543,195.675781 122.695312,194.503906 124.648438,192.84375 C124.804688,194.308594 125.15625,195.587891 125.703125,196.681641 L125.703125,196.681641 L131.210938,196.681641 C130.546875,195.490234 130.102539,194.245117 129.87793,192.946289 C129.65332,191.647461 129.541016,188.546875 129.541016,183.644531 L129.541016,176.613281 C129.541016,174.269531 129.453125,172.648438 129.277344,171.75 C128.964844,170.304688 128.417969,169.108398 127.636719,168.161133 C126.855469,167.213867 125.634766,166.427734 123.974609,165.802734 C122.314453,165.177734 120.15625,164.865234 117.5,164.865234 C114.824219,164.865234 112.470703,165.231445 110.439453,165.963867 C108.408203,166.696289 106.855469,167.741211 105.78125,169.098633 C104.707031,170.456055 103.935547,172.238281 103.466797,174.445312 L103.466797,174.445312 L108.623047,175.148438 C109.189453,172.941406 110.063477,171.40332 111.245117,170.53418 C112.426758,169.665039 114.257812,169.230469 116.738281,169.230469 C119.394531,169.230469 121.396484,169.826172 122.744141,171.017578 C123.740234,171.896484 124.238281,173.410156 124.238281,175.558594 C124.238281,175.753906 124.228516,176.212891 124.208984,176.935547 C122.197266,177.638672 119.0625,178.244141 114.804688,178.751953 C112.714844,179.005859 111.152344,179.269531 110.117188,179.542969 C108.710938,179.933594 107.446289,180.509766 106.323242,181.271484 C105.200195,182.033203 104.291992,183.043945 103.598633,184.303711 C102.905273,185.563477 102.558594,186.955078 102.558594,188.478516 C102.558594,191.076172 103.476562,193.209961 105.3125,194.879883 C107.148438,196.549805 109.775391,197.384766 113.193359,197.384766 Z M114.453125,193.253906 C112.402344,193.253906 110.844727,192.785156 109.780273,191.847656 C108.71582,190.910156 108.183594,189.738281 108.183594,188.332031 C108.183594,187.414062 108.427734,186.579102 108.916016,185.827148 C109.404297,185.075195 110.097656,184.503906 110.996094,184.113281 C111.894531,183.722656 113.427734,183.371094 115.595703,183.058594 C119.423828,182.511719 122.294922,181.847656 124.208984,181.066406 L124.208984,181.066406 L124.208984,183 C124.208984,185.324219 123.925781,187.082031 123.359375,188.273438 C122.617188,189.816406 121.455078,191.032227 119.873047,191.920898 C118.291016,192.80957 116.484375,193.253906 114.453125,193.253906 Z M142.929688,196.681641 L142.929688,180.392578 C142.929688,178.166016 143.222656,176.115234 143.808594,174.240234 C144.199219,173.009766 144.853516,172.047852 145.771484,171.354492 C146.689453,170.661133 147.724609,170.314453 148.876953,170.314453 C150.166016,170.314453 151.455078,170.695312 152.744141,171.457031 L152.744141,171.457031 L154.560547,166.564453 C152.724609,165.431641 150.917969,164.865234 149.140625,164.865234 C147.910156,164.865234 146.782227,165.216797 145.756836,165.919922 C144.731445,166.623047 143.613281,168.078125 142.402344,170.285156 L142.402344,170.285156 L142.402344,165.568359 L137.65625,165.568359 L137.65625,196.681641 L142.929688,196.681641 Z M165.986328,197.091797 C167.158203,197.091797 168.486328,196.935547 169.970703,196.623047 L169.970703,196.623047 L169.208984,191.964844 C168.251953,192.101562 167.480469,192.169922 166.894531,192.169922 C166.113281,192.169922 165.512695,192.042969 165.092773,191.789062 C164.672852,191.535156 164.370117,191.193359 164.18457,190.763672 C163.999023,190.333984 163.90625,189.367188 163.90625,187.863281 L163.90625,187.863281 L163.90625,169.669922 L169.208984,169.669922 L169.208984,165.568359 L163.90625,165.568359 L163.90625,154.699219 L158.662109,157.863281 L158.662109,165.568359 L154.794922,165.568359 L154.794922,169.669922 L158.662109,169.669922 L158.662109,187.570312 C158.662109,190.734375 158.876953,192.80957 159.306641,193.795898 C159.736328,194.782227 160.478516,195.578125 161.533203,196.183594 C162.587891,196.789062 164.072266,197.091797 165.986328,197.091797 Z M203.662109,197.384766 C206.376953,197.384766 208.881836,196.75 211.176758,195.480469 C213.47168,194.210938 215.219727,192.428711 216.420898,190.133789 C217.62207,187.838867 218.222656,184.689453 218.222656,180.685547 C218.222656,175.744141 216.865234,171.87207 214.150391,169.069336 C211.435547,166.266602 207.939453,164.865234 203.662109,164.865234 C199.814453,164.865234 196.552734,166.017578 193.876953,168.322266 C190.673828,171.095703 189.072266,175.363281 189.072266,181.125 C189.072266,186.378906 190.415039,190.402344 193.100586,193.195312 C195.786133,195.988281 199.306641,197.384766 203.662109,197.384766 Z M203.662109,193.048828 C201.025391,193.048828 198.837891,192.057617 197.099609,190.075195 C195.361328,188.092773 194.492188,185.109375 194.492188,181.125 C194.492188,177.140625 195.361328,174.162109 197.099609,172.189453 C198.837891,170.216797 201.025391,169.230469 203.662109,169.230469 C206.259766,169.230469 208.432617,170.22168 210.180664,172.204102 C211.928711,174.186523 212.802734,177.101562 212.802734,180.949219 C212.802734,185.03125 211.933594,188.068359 210.195312,190.060547 C208.457031,192.052734 206.279297,193.048828 203.662109,193.048828 Z M230.908203,196.681641 L230.908203,169.669922 L236.972656,169.669922 L236.972656,165.568359 L230.908203,165.568359 L230.908203,162.697266 C230.908203,160.822266 231.240234,159.542969 231.904297,158.859375 C232.568359,158.175781 233.701172,157.833984 235.302734,157.833984 C236.279297,157.833984 237.314453,157.931641 238.408203,158.126953 L238.408203,158.126953 L239.199219,153.527344 C237.402344,153.175781 235.761719,153 234.277344,153 C231.972656,153 230.180664,153.424805 228.901367,154.274414 C227.62207,155.124023 226.728516,156.232422 226.220703,157.599609 C225.849609,158.615234 225.664062,160.167969 225.664062,162.257812 L225.664062,162.257812 L225.664062,165.568359 L221.005859,165.568359 L221.005859,169.669922 L225.664062,169.669922 L225.664062,196.681641 L230.908203,196.681641 Z M266.035156,197.091797 C267.207031,197.091797 268.535156,196.935547 270.019531,196.623047 L270.019531,196.623047 L269.257812,191.964844 C268.300781,192.101562 267.529297,192.169922 266.943359,192.169922 C266.162109,192.169922 265.561523,192.042969 265.141602,191.789062 C264.72168,191.535156 264.418945,191.193359 264.233398,190.763672 C264.047852,190.333984 263.955078,189.367188 263.955078,187.863281 L263.955078,187.863281 L263.955078,169.669922 L269.257812,169.669922 L269.257812,165.568359 L263.955078,165.568359 L263.955078,154.699219 L258.710938,157.863281 L258.710938,165.568359 L254.84375,165.568359 L254.84375,169.669922 L258.710938,169.669922 L258.710938,187.570312 C258.710938,190.734375 258.925781,192.80957 259.355469,193.795898 C259.785156,194.782227 260.527344,195.578125 261.582031,196.183594 C262.636719,196.789062 264.121094,197.091797 266.035156,197.091797 Z M279.6875,196.681641 L279.6875,179.660156 C279.6875,177.21875 279.980469,175.304688 280.566406,173.917969 C281.152344,172.53125 282.133789,171.432617 283.510742,170.62207 C284.887695,169.811523 286.357422,169.40625 287.919922,169.40625 C290.009766,169.40625 291.625977,170.006836 292.768555,171.208008 C293.911133,172.40918 294.482422,174.328125 294.482422,176.964844 L294.482422,176.964844 L294.482422,196.681641 L299.755859,196.681641 L299.755859,176.964844 C299.755859,173.917969 299.389648,171.59375 298.657227,169.992188 C297.924805,168.390625 296.708984,167.135742 295.009766,166.227539 C293.310547,165.319336 291.308594,164.865234 289.003906,164.865234 C285.253906,164.865234 282.148438,166.291016 279.6875,169.142578 L279.6875,169.142578 L279.6875,153.732422 L274.414062,153.732422 L274.414062,196.681641 L279.6875,196.681641 Z M320.849609,197.384766 C324.462891,197.384766 327.431641,196.505859 329.755859,194.748047 C332.080078,192.990234 333.671875,190.519531 334.53125,187.335938 L334.53125,187.335938 L329.082031,186.662109 C328.28125,188.888672 327.197266,190.509766 325.830078,191.525391 C324.462891,192.541016 322.8125,193.048828 320.878906,193.048828 C318.28125,193.048828 316.113281,192.140625 314.375,190.324219 C312.636719,188.507812 311.669922,185.890625 311.474609,182.472656 L311.474609,182.472656 L334.677734,182.472656 C334.697266,181.847656 334.707031,181.378906 334.707031,181.066406 C334.707031,175.929688 333.388672,171.945312 330.751953,169.113281 C328.115234,166.28125 324.716797,164.865234 320.556641,164.865234 C316.259766,164.865234 312.763672,166.310547 310.068359,169.201172 C307.373047,172.091797 306.025391,176.154297 306.025391,181.388672 C306.025391,186.447266 307.358398,190.37793 310.024414,193.180664 C312.69043,195.983398 316.298828,197.384766 320.849609,197.384766 Z M329.140625,178.136719 L311.767578,178.136719 C311.943359,175.421875 312.856445,173.253906 314.506836,171.632812 C316.157227,170.011719 318.193359,169.201172 320.615234,169.201172 C323.291016,169.201172 325.46875,170.216797 327.148438,172.248047 C328.242188,173.556641 328.90625,175.519531 329.140625,178.136719 L329.140625,178.136719 Z M368.574219,197.472656 C372.636719,197.472656 376.220703,196.310547 379.326172,193.986328 C381.083984,192.677734 381.962891,191.320312 381.962891,189.914062 C381.962891,189.25 381.71875,188.605469 381.230469,187.980469 C380.742188,187.355469 380.244141,187.042969 379.736328,187.042969 C379.345703,187.042969 378.818359,187.277344 378.154297,187.746094 C377.412109,188.273438 376.469727,188.717773 375.327148,189.079102 C374.18457,189.44043 373.144531,189.621094 372.207031,189.621094 C370.625,189.621094 369.145508,189.05957 367.768555,187.936523 C366.391602,186.813477 365.703125,185.617188 365.703125,184.347656 C365.703125,183.820312 366.005859,183.556641 366.611328,183.556641 L366.611328,183.556641 L380.380859,183.556641 C381.220703,183.556641 381.904297,183.151367 382.431641,182.34082 C382.958984,181.530273 383.222656,180.490234 383.222656,179.220703 C383.222656,177.658203 382.763672,176.056641 381.845703,174.416016 C381.044922,172.970703 379.990234,171.720703 378.681641,170.666016 C376.083984,168.556641 372.929688,167.501953 369.21875,167.501953 C366.894531,167.501953 364.736328,167.921875 362.744141,168.761719 C360.087891,169.875 357.900391,171.564453 356.181641,173.830078 C354.189453,176.447266 353.193359,179.396484 353.193359,182.677734 C353.193359,185.119141 353.769531,187.443359 354.921875,189.650391 C355.800781,191.310547 356.914062,192.726562 358.261719,193.898438 C361.035156,196.28125 364.472656,197.472656 368.574219,197.472656 Z M370.332031,178.078125 L367.373047,178.078125 C366.669922,178.078125 366.176758,177.960938 365.893555,177.726562 C365.610352,177.492188 365.46875,177.082031 365.46875,176.496094 C365.46875,175.675781 365.761719,174.865234 366.347656,174.064453 C366.972656,173.205078 367.832031,172.775391 368.925781,172.775391 C369.902344,172.775391 370.693359,173.107422 371.298828,173.771484 C371.904297,174.435547 372.207031,175.294922 372.207031,176.349609 C372.207031,177.501953 371.582031,178.078125 370.332031,178.078125 L370.332031,178.078125 Z M408.59375,197.472656 C410.195312,197.472656 411.728516,197.042969 413.193359,196.183594 C414.384766,195.5 415.356445,194.650391 416.108398,193.634766 C416.860352,192.619141 417.236328,191.642578 417.236328,190.705078 C417.236328,189.982422 416.923828,189.572266 416.298828,189.474609 C415.673828,189.376953 415.263672,189.269531 415.068359,189.152344 C414.873047,189.035156 414.667969,188.761719 414.453125,188.332031 C414.023438,187.433594 413.808594,185.470703 413.808594,182.443359 L413.808594,182.443359 L413.867188,178.078125 C413.867188,176.007812 413.618164,174.381836 413.120117,173.200195 C412.62207,172.018555 411.748047,170.96875 410.498047,170.050781 C408.134766,168.332031 405.253906,167.472656 401.855469,167.472656 C398.007812,167.472656 394.316406,168.410156 390.78125,170.285156 C389.492188,170.988281 388.47168,171.808594 387.719727,172.746094 C386.967773,173.683594 386.591797,174.621094 386.591797,175.558594 C386.591797,176.476562 386.894531,177.21875 387.5,177.785156 C388.105469,178.351562 388.886719,178.634766 389.84375,178.634766 C391.738281,178.634766 393.554688,177.394531 395.292969,174.914062 C395.976562,173.976562 396.547852,173.332031 397.006836,172.980469 C397.46582,172.628906 397.988281,172.453125 398.574219,172.453125 C399.550781,172.453125 400.253906,172.916992 400.683594,173.844727 C401.113281,174.772461 401.328125,176.271484 401.328125,178.341797 C401.328125,179.162109 401.181641,179.68457 400.888672,179.90918 C400.595703,180.133789 399.882812,180.246094 398.75,180.246094 C393.652344,180.265625 389.824219,181.505859 387.265625,183.966797 C385.625,185.529297 384.804688,187.326172 384.804688,189.357422 C384.804688,190.626953 385.107422,191.842773 385.712891,193.004883 C386.318359,194.166992 387.138672,195.109375 388.173828,195.832031 C389.755859,196.925781 391.826172,197.472656 394.384766,197.472656 C396.865234,197.472656 399.082031,196.759766 401.035156,195.333984 C401.679688,194.845703 402.197266,194.601562 402.587891,194.601562 C402.939453,194.601562 403.320312,194.855469 403.730469,195.363281 C404.921875,196.769531 406.542969,197.472656 408.59375,197.472656 Z M399.160156,191.144531 C398.417969,191.144531 397.822266,190.856445 397.373047,190.280273 C396.923828,189.704102 396.699219,188.947266 396.699219,188.009766 C396.699219,187.033203 397.016602,186.193359 397.651367,185.490234 C398.286133,184.787109 399.033203,184.435547 399.892578,184.435547 C400.517578,184.455078 400.942383,184.650391 401.166992,185.021484 C401.391602,185.392578 401.503906,186.115234 401.503906,187.189453 C401.503906,189.826172 400.722656,191.144531 399.160156,191.144531 Z M434.111328,197.472656 C437.080078,197.472656 439.589844,196.681641 441.640625,195.099609 C444.023438,193.283203 445.214844,191.017578 445.214844,188.302734 C445.214844,186.154297 444.472656,184.337891 442.988281,182.853516 C441.230469,181.095703 438.701172,179.474609 435.400391,177.990234 C433.564453,177.150391 432.646484,176.251953 432.646484,175.294922 C432.646484,174.748047 432.84668,174.274414 433.24707,173.874023 C433.647461,173.473633 434.121094,173.273438 434.667969,173.273438 C435.488281,173.273438 436.523438,173.878906 437.773438,175.089844 C438.964844,176.222656 439.829102,176.955078 440.366211,177.287109 C440.90332,177.619141 441.513672,177.785156 442.197266,177.785156 C443.017578,177.785156 443.701172,177.526367 444.248047,177.008789 C444.794922,176.491211 445.068359,175.841797 445.068359,175.060547 C445.068359,174.259766 444.833984,173.3125 444.365234,172.21875 C443.896484,171.125 443.291016,170.119141 442.548828,169.201172 C441.630859,168.048828 440.722656,167.472656 439.824219,167.472656 C439.511719,167.472656 439.130859,167.560547 438.681641,167.736328 C437.724609,168.087891 437.080078,168.263672 436.748047,168.263672 C436.455078,168.263672 436.083984,168.224609 435.634766,168.146484 C433.427734,167.716797 431.835938,167.501953 430.859375,167.501953 C427.34375,167.501953 424.570312,168.703125 422.539062,171.105469 C421.113281,172.785156 420.400391,174.787109 420.400391,177.111328 C420.400391,179.259766 421.098633,181.154297 422.495117,182.794922 C423.891602,184.435547 426.162109,186.027344 429.306641,187.570312 C430.810547,188.292969 431.5625,189.09375 431.5625,189.972656 C431.5625,190.539062 431.367188,190.993164 430.976562,191.334961 C430.585938,191.676758 430.068359,191.847656 429.423828,191.847656 C428.818359,191.847656 428.251953,191.686523 427.724609,191.364258 C427.197266,191.041992 426.533203,190.451172 425.732422,189.591797 C424.267578,188.029297 423.305664,187.067383 422.84668,186.706055 C422.387695,186.344727 421.884766,186.164062 421.337891,186.164062 C419.931641,186.164062 419.228516,187.0625 419.228516,188.859375 C419.228516,189.972656 419.570312,191.305664 420.253906,192.858398 C420.9375,194.411133 421.679688,195.548828 422.480469,196.271484 C423.007812,196.740234 423.730469,196.974609 424.648438,196.974609 C424.902344,196.974609 425.3125,196.935547 425.878906,196.857422 C426.210938,196.798828 426.503906,196.769531 426.757812,196.769531 C426.992188,196.769531 428.056641,196.876953 429.951172,197.091797 C431.962891,197.345703 433.349609,197.472656 434.111328,197.472656 Z M456.435547,206.90625 C460.009766,206.90625 463.066406,205.695312 465.605469,203.273438 C466.835938,202.101562 467.93457,200.680664 468.901367,199.010742 C469.868164,197.34082 470.830078,195.1875 471.787109,192.550781 L471.787109,192.550781 L475.654297,181.916016 C476.767578,178.908203 477.753906,176.75 478.613281,175.441406 C479.160156,174.621094 479.902344,174.035156 480.839844,173.683594 C481.953125,173.292969 482.719727,172.87793 483.139648,172.438477 C483.55957,171.999023 483.769531,171.417969 483.769531,170.695312 C483.769531,168.703125 481.699219,167.707031 477.558594,167.707031 C475.332031,167.707031 473.554688,168.004883 472.226562,168.600586 C470.898438,169.196289 470.234375,169.992188 470.234375,170.988281 C470.234375,171.613281 470.605469,172.365234 471.347656,173.244141 C471.835938,173.810547 472.080078,174.542969 472.080078,175.441406 C472.080078,176.554688 471.757812,177.711914 471.113281,178.913086 C470.46875,180.114258 469.84375,180.714844 469.238281,180.714844 C468.671875,180.714844 468.017578,180.03125 467.275391,178.664062 C466.611328,177.453125 466.176758,176.59375 465.97168,176.085938 C465.766602,175.578125 465.664062,175.089844 465.664062,174.621094 C465.664062,174.132812 465.878906,173.576172 466.308594,172.951172 C466.757812,172.287109 466.982422,171.710938 466.982422,171.222656 C466.982422,169.855469 466.181641,168.888672 464.580078,168.322266 C463.388672,167.892578 461.757812,167.677734 459.6875,167.677734 C456.738281,167.677734 454.111328,167.882812 451.806641,168.292969 C448.349609,168.917969 446.621094,170.099609 446.621094,171.837891 C446.621094,172.267578 446.762695,172.711914 447.045898,173.170898 C447.329102,173.629883 447.666016,173.9375 448.056641,174.09375 C449.326172,174.660156 450.146484,175.138672 450.517578,175.529297 C450.888672,175.919922 451.445312,176.896484 452.1875,178.458984 L452.1875,178.458984 L459.248047,193.488281 C460.263672,195.636719 460.771484,197.169922 460.771484,198.087891 C460.771484,198.869141 460.566406,199.523438 460.15625,200.050781 C459.746094,200.578125 459.238281,200.841797 458.632812,200.841797 C457.871094,200.841797 457.382812,200.412109 457.167969,199.552734 C456.894531,198.419922 456.689453,197.6875 456.552734,197.355469 C456.416016,197.023438 456.142578,196.642578 455.732422,196.212891 C454.873047,195.275391 453.740234,194.806641 452.333984,194.806641 C450.927734,194.806641 449.741211,195.319336 448.774414,196.344727 C447.807617,197.370117 447.324219,198.634766 447.324219,200.138672 C447.324219,201.955078 448.017578,203.449219 449.404297,204.621094 C451.201172,206.144531 453.544922,206.90625 456.435547,206.90625 Z M507.177734,197.472656 C510.693359,197.472656 514.023438,196.710938 517.167969,195.1875 C520.800781,193.410156 523.691406,190.861328 525.839844,187.541016 C527.988281,184.220703 529.0625,180.607422 529.0625,176.701172 C529.0625,173.380859 528.261719,170.226562 526.660156,167.238281 C524.785156,163.78125 522.099609,161.027344 518.603516,158.976562 C515.107422,156.925781 511.396484,155.900391 507.470703,155.900391 C503.779297,155.900391 500.380859,156.642578 497.275391,158.126953 C493.505859,159.923828 490.556641,162.462891 488.427734,165.744141 C486.259766,169.103516 485.175781,172.755859 485.175781,176.701172 C485.175781,180.041016 485.986328,183.205078 487.607422,186.193359 C489.521484,189.689453 492.255859,192.443359 495.810547,194.455078 C499.306641,196.466797 503.095703,197.472656 507.177734,197.472656 Z M507.177734,193.517578 C504.404297,193.517578 501.767578,192.912109 499.267578,191.701172 C496.298828,190.275391 493.945312,188.214844 492.207031,185.519531 C490.449219,182.804688 489.570312,179.865234 489.570312,176.701172 C489.570312,174.455078 490.019531,172.296875 490.917969,170.226562 C491.816406,168.136719 493.105469,166.300781 494.785156,164.71875 C498.222656,161.476562 502.431641,159.855469 507.412109,159.855469 C510.244141,159.933594 512.822266,160.539062 515.146484,161.671875 C518.095703,163.136719 520.410156,165.197266 522.089844,167.853516 C523.828125,170.568359 524.697266,173.517578 524.697266,176.701172 C524.697266,181.349609 522.988281,185.314453 519.570312,188.595703 C516.132812,191.876953 512.001953,193.517578 507.177734,193.517578 Z M514.824219,187.892578 C516.445312,187.892578 517.739258,187.663086 518.706055,187.204102 C519.672852,186.745117 520.15625,186.134766 520.15625,185.373047 C520.15625,184.669922 519.863281,184.240234 519.277344,184.083984 C518.632812,183.927734 518.227539,183.756836 518.061523,183.571289 C517.895508,183.385742 517.773438,182.980469 517.695312,182.355469 C517.460938,180.695312 517.06543,179.455078 516.508789,178.634766 C515.952148,177.814453 515.068359,177.179688 513.857422,176.730469 C513.408203,176.574219 513.183594,176.398438 513.183594,176.203125 C513.183594,176.046875 513.330078,175.910156 513.623047,175.792969 C514.462891,175.421875 515.141602,174.821289 515.65918,173.991211 C516.176758,173.161133 516.435547,172.248047 516.435547,171.251953 C516.435547,169.494141 515.703125,168.087891 514.238281,167.033203 C512.773438,165.978516 510.820312,165.451172 508.378906,165.451172 C507.96875,165.451172 507.236328,165.490234 506.181641,165.568359 C504.541016,165.666016 503.232422,165.714844 502.255859,165.714844 C501.728516,165.714844 501.298828,165.705078 500.966797,165.685547 C499.462891,165.587891 498.544922,165.539062 498.212891,165.539062 C495.634766,165.539062 494.345703,166.203125 494.345703,167.53125 C494.345703,168.117188 494.785156,168.615234 495.664062,169.025391 C496.113281,169.240234 496.411133,169.591797 496.557617,170.080078 C496.704102,170.568359 496.777344,171.486328 496.777344,172.833984 L496.777344,172.833984 L496.776736,173.692109 C496.770248,178.15794 496.711857,180.850414 496.601562,181.769531 C496.484375,182.746094 496.103516,183.429688 495.458984,183.820312 C494.716797,184.289062 494.345703,184.757812 494.345703,185.226562 C494.345703,186.808594 496.445312,187.599609 500.644531,187.599609 C502.871094,187.599609 504.458008,187.443359 505.405273,187.130859 C506.352539,186.818359 506.826172,186.291016 506.826172,185.548828 C506.826172,184.904297 506.464844,184.386719 505.742188,183.996094 C505.292969,183.761719 505.039062,183.507812 504.980469,183.234375 C504.804688,182.53125 504.716797,181.603516 504.716797,180.451172 C504.716797,179.494141 504.760742,178.908203 504.848633,178.693359 C504.936523,178.478516 505.166016,178.371094 505.537109,178.371094 C506.748047,178.46875 507.539062,179.328125 507.910156,180.949219 C508.632812,183.761719 509.443359,185.62207 510.341797,186.530273 C511.240234,187.438477 512.734375,187.892578 514.824219,187.892578 Z M505.185547,174.738281 C504.736328,174.738281 504.521484,174.503906 504.541016,174.035156 L504.541016,173.888672 L504.746094,170.255859 C504.765625,169.845703 504.838867,169.567383 504.96582,169.420898 C505.092773,169.274414 505.341797,169.201172 505.712891,169.201172 C507.080078,169.201172 507.763672,170.128906 507.763672,171.984375 C507.763672,172.960938 507.563477,173.664062 507.163086,174.09375 C506.762695,174.523438 506.103516,174.738281 505.185547,174.738281 Z M555.927734,196.681641 L555.927734,169.669922 L561.992188,169.669922 L561.992188,165.568359 L555.927734,165.568359 L555.927734,162.697266 C555.927734,160.822266 556.259766,159.542969 556.923828,158.859375 C557.587891,158.175781 558.720703,157.833984 560.322266,157.833984 C561.298828,157.833984 562.333984,157.931641 563.427734,158.126953 L563.427734,158.126953 L564.21875,153.527344 C562.421875,153.175781 560.78125,153 559.296875,153 C556.992188,153 555.200195,153.424805 553.920898,154.274414 C552.641602,155.124023 551.748047,156.232422 551.240234,157.599609 C550.869141,158.615234 550.683594,160.167969 550.683594,162.257812 L550.683594,162.257812 L550.683594,165.568359 L546.025391,165.568359 L546.025391,169.669922 L550.683594,169.669922 L550.683594,196.681641 L555.927734,196.681641 Z M574.941406,197.384766 C577.011719,197.384766 578.950195,197.042969 580.756836,196.359375 C582.563477,195.675781 584.443359,194.503906 586.396484,192.84375 C586.552734,194.308594 586.904297,195.587891 587.451172,196.681641 L587.451172,196.681641 L592.958984,196.681641 C592.294922,195.490234 591.850586,194.245117 591.625977,192.946289 C591.401367,191.647461 591.289062,188.546875 591.289062,183.644531 L591.289062,176.613281 C591.289062,174.269531 591.201172,172.648438 591.025391,171.75 C590.712891,170.304688 590.166016,169.108398 589.384766,168.161133 C588.603516,167.213867 587.382812,166.427734 585.722656,165.802734 C584.0625,165.177734 581.904297,164.865234 579.248047,164.865234 C576.572266,164.865234 574.21875,165.231445 572.1875,165.963867 C570.15625,166.696289 568.603516,167.741211 567.529297,169.098633 C566.455078,170.456055 565.683594,172.238281 565.214844,174.445312 L565.214844,174.445312 L570.371094,175.148438 C570.9375,172.941406 571.811523,171.40332 572.993164,170.53418 C574.174805,169.665039 576.005859,169.230469 578.486328,169.230469 C581.142578,169.230469 583.144531,169.826172 584.492188,171.017578 C585.488281,171.896484 585.986328,173.410156 585.986328,175.558594 C585.986328,175.753906 585.976562,176.212891 585.957031,176.935547 C583.945312,177.638672 580.810547,178.244141 576.552734,178.751953 C574.462891,179.005859 572.900391,179.269531 571.865234,179.542969 C570.458984,179.933594 569.194336,180.509766 568.071289,181.271484 C566.948242,182.033203 566.040039,183.043945 565.34668,184.303711 C564.65332,185.563477 564.306641,186.955078 564.306641,188.478516 C564.306641,191.076172 565.224609,193.209961 567.060547,194.879883 C568.896484,196.549805 571.523438,197.384766 574.941406,197.384766 Z M576.201172,193.253906 C574.150391,193.253906 572.592773,192.785156 571.52832,191.847656 C570.463867,190.910156 569.931641,189.738281 569.931641,188.332031 C569.931641,187.414062 570.175781,186.579102 570.664062,185.827148 C571.152344,185.075195 571.845703,184.503906 572.744141,184.113281 C573.642578,183.722656 575.175781,183.371094 577.34375,183.058594 C581.171875,182.511719 584.042969,181.847656 585.957031,181.066406 L585.957031,181.066406 L585.957031,183 C585.957031,185.324219 585.673828,187.082031 585.107422,188.273438 C584.365234,189.816406 583.203125,191.032227 581.621094,191.920898 C580.039062,192.80957 578.232422,193.253906 576.201172,193.253906 Z M604.736328,196.681641 L604.736328,180.539062 C604.736328,177.707031 605.019531,175.539062 605.585938,174.035156 C606.152344,172.53125 607.06543,171.388672 608.325195,170.607422 C609.584961,169.826172 610.957031,169.435547 612.441406,169.435547 C614.394531,169.435547 615.800781,170.021484 616.660156,171.193359 C617.519531,172.365234 617.949219,174.123047 617.949219,176.466797 L617.949219,176.466797 L617.949219,196.681641 L623.222656,196.681641 L623.222656,178.605469 C623.222656,175.402344 623.945312,173.073242 625.390625,171.618164 C626.835938,170.163086 628.652344,169.435547 630.839844,169.435547 C632.050781,169.435547 633.105469,169.71875 634.003906,170.285156 C634.902344,170.851562 635.522461,171.598633 635.864258,172.526367 C636.206055,173.454102 636.376953,174.972656 636.376953,177.082031 L636.376953,177.082031 L636.376953,196.681641 L641.621094,196.681641 L641.621094,175.324219 C641.621094,171.769531 640.791016,169.137695 639.130859,167.428711 C637.470703,165.719727 635.097656,164.865234 632.011719,164.865234 C628.066406,164.865234 624.863281,166.681641 622.402344,170.314453 C621.796875,168.595703 620.756836,167.257812 619.282227,166.300781 C617.807617,165.34375 615.917969,164.865234 613.613281,164.865234 C611.542969,164.865234 609.697266,165.329102 608.076172,166.256836 C606.455078,167.18457 605.15625,168.410156 604.179688,169.933594 L604.179688,169.933594 L604.179688,165.568359 L599.462891,165.568359 L599.462891,196.681641 L604.736328,196.681641 Z M654.746094,159.796875 L654.746094,153.732422 L649.472656,153.732422 L649.472656,159.796875 L654.746094,159.796875 Z M654.746094,196.681641 L654.746094,165.568359 L649.472656,165.568359 L649.472656,196.681641 L654.746094,196.681641 Z M667.929688,196.681641 L667.929688,153.732422 L662.65625,153.732422 L662.65625,196.681641 L667.929688,196.681641 Z M679.267578,209.308594 C680.947266,209.308594 682.392578,208.90332 683.603516,208.092773 C684.814453,207.282227 685.888672,206.007812 686.826172,204.269531 C687.529297,202.980469 688.515625,200.626953 689.785156,197.208984 L689.785156,197.208984 L701.621094,165.568359 L696.347656,165.568359 L689.697266,183.703125 C688.857422,186.007812 688.134766,188.371094 687.529297,190.792969 C686.865234,188.273438 686.113281,185.871094 685.273438,183.585938 L685.273438,183.585938 L678.798828,165.568359 L673.115234,165.568359 L684.921875,196.740234 C684.707031,197.306641 684.550781,197.736328 684.453125,198.029297 C683.710938,200.119141 683.173828,201.427734 682.841797,201.955078 C682.392578,202.658203 681.816406,203.205078 681.113281,203.595703 C680.410156,203.986328 679.472656,204.181641 678.300781,204.181641 C677.441406,204.181641 676.435547,204.025391 675.283203,203.712891 L675.283203,203.712891 L675.869141,208.664062 C677.119141,209.09375 678.251953,209.308594 679.267578,209.308594 Z M735.400391,197.384766 C738.115234,197.384766 740.620117,196.75 742.915039,195.480469 C745.209961,194.210938 746.958008,192.428711 748.15918,190.133789 C749.360352,187.838867 749.960938,184.689453 749.960938,180.685547 C749.960938,175.744141 748.603516,171.87207 745.888672,169.069336 C743.173828,166.266602 739.677734,164.865234 735.400391,164.865234 C731.552734,164.865234 728.291016,166.017578 725.615234,168.322266 C722.412109,171.095703 720.810547,175.363281 720.810547,181.125 C720.810547,186.378906 722.15332,190.402344 724.838867,193.195312 C727.524414,195.988281 731.044922,197.384766 735.400391,197.384766 Z M735.400391,193.048828 C732.763672,193.048828 730.576172,192.057617 728.837891,190.075195 C727.099609,188.092773 726.230469,185.109375 726.230469,181.125 C726.230469,177.140625 727.099609,174.162109 728.837891,172.189453 C730.576172,170.216797 732.763672,169.230469 735.400391,169.230469 C737.998047,169.230469 740.170898,170.22168 741.918945,172.204102 C743.666992,174.186523 744.541016,177.101562 744.541016,180.949219 C744.541016,185.03125 743.671875,188.068359 741.933594,190.060547 C740.195312,192.052734 738.017578,193.048828 735.400391,193.048828 Z M762.646484,196.681641 L762.646484,169.669922 L768.710938,169.669922 L768.710938,165.568359 L762.646484,165.568359 L762.646484,162.697266 C762.646484,160.822266 762.978516,159.542969 763.642578,158.859375 C764.306641,158.175781 765.439453,157.833984 767.041016,157.833984 C768.017578,157.833984 769.052734,157.931641 770.146484,158.126953 L770.146484,158.126953 L770.9375,153.527344 C769.140625,153.175781 767.5,153 766.015625,153 C763.710938,153 761.918945,153.424805 760.639648,154.274414 C759.360352,155.124023 758.466797,156.232422 757.958984,157.599609 C757.587891,158.615234 757.402344,160.167969 757.402344,162.257812 L757.402344,162.257812 L757.402344,165.568359 L752.744141,165.568359 L752.744141,169.669922 L757.402344,169.669922 L757.402344,196.681641 L762.646484,196.681641 Z M802.988281,197.384766 C806.679688,197.384766 809.84375,195.929688 812.480469,193.019531 C815.117188,190.109375 816.435547,185.988281 816.435547,180.65625 C816.435547,178.410156 816.123047,176.300781 815.498047,174.328125 C814.873047,172.355469 814.008789,170.670898 812.905273,169.274414 C811.801758,167.87793 810.395508,166.793945 808.686523,166.022461 C806.977539,165.250977 805.166016,164.865234 803.251953,164.865234 C799.794922,164.865234 796.953125,166.261719 794.726562,169.054688 L794.726562,169.054688 L794.726562,153.732422 L789.453125,153.732422 L789.453125,196.681641 L794.345703,196.681641 L794.345703,192.785156 C796.435547,195.851562 799.316406,197.384766 802.988281,197.384766 Z M802.548828,193.048828 C799.716797,193.048828 797.470703,191.691406 795.810547,188.976562 C794.794922,187.316406 794.287109,184.621094 794.287109,180.890625 C794.287109,177.101562 795.126953,174.206055 796.806641,172.204102 C798.486328,170.202148 800.478516,169.201172 802.783203,169.201172 C805.068359,169.201172 807.016602,170.167969 808.62793,172.101562 C810.239258,174.035156 811.044922,177.033203 811.044922,181.095703 C811.044922,185.060547 810.205078,188.043945 808.525391,190.045898 C806.845703,192.047852 804.853516,193.048828 802.548828,193.048828 Z M828.066406,196.681641 L828.066406,180.392578 C828.066406,178.166016 828.359375,176.115234 828.945312,174.240234 C829.335938,173.009766 829.990234,172.047852 830.908203,171.354492 C831.826172,170.661133 832.861328,170.314453 834.013672,170.314453 C835.302734,170.314453 836.591797,170.695312 837.880859,171.457031 L837.880859,171.457031 L839.697266,166.564453 C837.861328,165.431641 836.054688,164.865234 834.277344,164.865234 C833.046875,164.865234 831.918945,165.216797 830.893555,165.919922 C829.868164,166.623047 828.75,168.078125 827.539062,170.285156 L827.539062,170.285156 L827.539062,165.568359 L822.792969,165.568359 L822.792969,196.681641 L828.066406,196.681641 Z M851.679688,197.384766 C853.75,197.384766 855.688477,197.042969 857.495117,196.359375 C859.301758,195.675781 861.181641,194.503906 863.134766,192.84375 C863.291016,194.308594 863.642578,195.587891 864.189453,196.681641 L864.189453,196.681641 L869.697266,196.681641 C869.033203,195.490234 868.588867,194.245117 868.364258,192.946289 C868.139648,191.647461 868.027344,188.546875 868.027344,183.644531 L868.027344,176.613281 C868.027344,174.269531 867.939453,172.648438 867.763672,171.75 C867.451172,170.304688 866.904297,169.108398 866.123047,168.161133 C865.341797,167.213867 864.121094,166.427734 862.460938,165.802734 C860.800781,165.177734 858.642578,164.865234 855.986328,164.865234 C853.310547,164.865234 850.957031,165.231445 848.925781,165.963867 C846.894531,166.696289 845.341797,167.741211 844.267578,169.098633 C843.193359,170.456055 842.421875,172.238281 841.953125,174.445312 L841.953125,174.445312 L847.109375,175.148438 C847.675781,172.941406 848.549805,171.40332 849.731445,170.53418 C850.913086,169.665039 852.744141,169.230469 855.224609,169.230469 C857.880859,169.230469 859.882812,169.826172 861.230469,171.017578 C862.226562,171.896484 862.724609,173.410156 862.724609,175.558594 C862.724609,175.753906 862.714844,176.212891 862.695312,176.935547 C860.683594,177.638672 857.548828,178.244141 853.291016,178.751953 C851.201172,179.005859 849.638672,179.269531 848.603516,179.542969 C847.197266,179.933594 845.932617,180.509766 844.80957,181.271484 C843.686523,182.033203 842.77832,183.043945 842.084961,184.303711 C841.391602,185.563477 841.044922,186.955078 841.044922,188.478516 C841.044922,191.076172 841.962891,193.209961 843.798828,194.879883 C845.634766,196.549805 848.261719,197.384766 851.679688,197.384766 Z M852.939453,193.253906 C850.888672,193.253906 849.331055,192.785156 848.266602,191.847656 C847.202148,190.910156 846.669922,189.738281 846.669922,188.332031 C846.669922,187.414062 846.914062,186.579102 847.402344,185.827148 C847.890625,185.075195 848.583984,184.503906 849.482422,184.113281 C850.380859,183.722656 851.914062,183.371094 854.082031,183.058594 C857.910156,182.511719 860.78125,181.847656 862.695312,181.066406 L862.695312,181.066406 L862.695312,183 C862.695312,185.324219 862.412109,187.082031 861.845703,188.273438 C861.103516,189.816406 859.941406,191.032227 858.359375,191.920898 C856.777344,192.80957 854.970703,193.253906 852.939453,193.253906 Z M881.474609,196.681641 L881.474609,179.689453 C881.474609,175.705078 882.290039,173 883.920898,171.574219 C885.551758,170.148438 887.490234,169.435547 889.736328,169.435547 C891.142578,169.435547 892.368164,169.75293 893.413086,170.387695 C894.458008,171.022461 895.185547,171.87207 895.595703,172.936523 C896.005859,174.000977 896.210938,175.607422 896.210938,177.755859 L896.210938,177.755859 L896.210938,196.681641 L901.484375,196.681641 L901.484375,177.550781 C901.484375,175.109375 901.386719,173.400391 901.191406,172.423828 C900.878906,170.919922 900.332031,169.621094 899.550781,168.527344 C898.769531,167.433594 897.592773,166.549805 896.020508,165.875977 C894.448242,165.202148 892.724609,164.865234 890.849609,164.865234 C886.533203,164.865234 883.232422,166.574219 880.947266,169.992188 L880.947266,169.992188 L880.947266,165.568359 L876.201172,165.568359 L876.201172,196.681641 L881.474609,196.681641 Z M921.054688,197.384766 C924.882812,197.384766 927.783203,195.841797 929.755859,192.755859 L929.755859,192.755859 L929.755859,196.681641 L934.648438,196.681641 L934.648438,153.732422 L929.404297,153.732422 L929.404297,169.142578 C928.486328,167.873047 927.294922,166.842773 925.830078,166.051758 C924.365234,165.260742 922.695312,164.865234 920.820312,164.865234 C918.261719,164.865234 915.947266,165.539062 913.876953,166.886719 C911.806641,168.234375 910.253906,170.172852 909.21875,172.702148 C908.183594,175.231445 907.666016,178.048828 907.666016,181.154297 C907.666016,184.337891 908.237305,187.155273 909.379883,189.606445 C910.522461,192.057617 912.133789,193.966797 914.213867,195.333984 C916.293945,196.701172 918.574219,197.384766 921.054688,197.384766 Z M921.552734,193.048828 C919.267578,193.048828 917.285156,192.0625 915.605469,190.089844 C913.925781,188.117188 913.085938,185.138672 913.085938,181.154297 C913.085938,177.033203 913.87207,174.015625 915.444336,172.101562 C917.016602,170.1875 918.974609,169.230469 921.318359,169.230469 C923.720703,169.230469 925.742188,170.226562 927.382812,172.21875 C929.023438,174.210938 929.84375,177.335938 929.84375,181.59375 C929.84375,185.460938 929.038086,188.336914 927.426758,190.22168 C925.81543,192.106445 923.857422,193.048828 921.552734,193.048828 Z M954.130859,197.384766 C956.572266,197.384766 958.759766,196.959961 960.693359,196.110352 C962.626953,195.260742 964.106445,194.05957 965.131836,192.506836 C966.157227,190.954102 966.669922,189.298828 966.669922,187.541016 C966.669922,185.744141 966.25,184.240234 965.410156,183.029297 C964.570312,181.818359 963.413086,180.895508 961.938477,180.260742 C960.463867,179.625977 957.861328,178.810547 954.130859,177.814453 C951.552734,177.111328 950,176.662109 949.472656,176.466797 C948.554688,176.095703 947.880859,175.626953 947.451172,175.060547 C947.021484,174.513672 946.806641,173.898438 946.806641,173.214844 C946.806641,172.140625 947.324219,171.203125 948.359375,170.402344 C949.394531,169.601562 951.123047,169.201172 953.544922,169.201172 C955.595703,169.201172 957.182617,169.650391 958.305664,170.548828 C959.428711,171.447266 960.107422,172.697266 960.341797,174.298828 L960.341797,174.298828 L965.498047,173.595703 C965.166016,171.583984 964.560547,169.977539 963.681641,168.776367 C962.802734,167.575195 961.44043,166.623047 959.594727,165.919922 C957.749023,165.216797 955.605469,164.865234 953.164062,164.865234 C951.542969,164.865234 950.024414,165.075195 948.608398,165.495117 C947.192383,165.915039 946.074219,166.427734 945.253906,167.033203 C944.160156,167.814453 943.295898,168.795898 942.661133,169.977539 C942.026367,171.15918 941.708984,172.443359 941.708984,173.830078 C941.708984,175.353516 942.094727,176.745117 942.866211,178.004883 C943.637695,179.264648 944.770508,180.250977 946.264648,180.963867 C947.758789,181.676758 950.439453,182.521484 954.306641,183.498047 C957.177734,184.220703 958.974609,184.816406 959.697266,185.285156 C960.732422,185.96875 961.25,186.90625 961.25,188.097656 C961.25,189.425781 960.664062,190.583008 959.492188,191.569336 C958.320312,192.555664 956.523438,193.048828 954.101562,193.048828 C951.699219,193.048828 949.829102,192.492188 948.491211,191.378906 C947.15332,190.265625 946.337891,188.664062 946.044922,186.574219 L946.044922,186.574219 L940.830078,187.394531 C941.416016,190.695312 942.768555,193.185547 944.887695,194.865234 C947.006836,196.544922 950.087891,197.384766 954.130859,197.384766 Z" id="Partoftheeasy®familyofbrands" fill="#FFFFFF" fill-rule="nonzero"></path>
        <path d="M38.2075195,103.977539 C48.3637695,103.977539 57.3237305,101.072266 65.0874023,95.2617188 C69.4819336,91.9902344 71.6791992,88.5966797 71.6791992,85.0810547 C71.6791992,83.4208984 71.0688477,81.8095703 69.8481445,80.2470703 C68.6274414,78.6845703 67.3823242,77.9033203 66.112793,77.9033203 C65.1362305,77.9033203 63.8178711,78.4892578 62.1577148,79.6611328 C60.3022461,80.9794922 57.9462891,82.090332 55.0898438,82.9936523 C52.2333984,83.8969727 49.6333008,84.3486328 47.2895508,84.3486328 C43.3344727,84.3486328 39.6357422,82.9448242 36.1933594,80.137207 C32.7509766,77.3295898 31.0297852,74.3388672 31.0297852,71.1650391 C31.0297852,69.8466797 31.7866211,69.1875 33.300293,69.1875 L33.300293,69.1875 L67.7241211,69.1875 C69.8237305,69.1875 71.5327148,68.1743164 72.8510742,66.1479492 C74.1694336,64.121582 74.8286133,61.5214844 74.8286133,58.3476562 C74.8286133,54.4414062 73.6811523,50.4375 71.3862305,46.3359375 C69.3842773,42.7226562 66.7475586,39.5976562 63.4760742,36.9609375 C56.9819336,31.6875 49.0961914,29.0507812 39.8188477,29.0507812 C34.0083008,29.0507812 28.612793,30.1005859 23.6323242,32.2001953 C16.9916992,34.9833984 11.5229492,39.2070312 7.22607422,44.8710938 C2.24560547,51.4140625 -0.244628906,58.7871094 -0.244628906,66.9902344 C-0.244628906,73.09375 1.19580078,78.9042969 4.07666016,84.421875 C6.27392578,88.5722656 9.05712891,92.1123047 12.4262695,95.0419922 C19.3598633,100.999023 27.9536133,103.977539 38.2075195,103.977539 Z M42.6020508,55.4912109 L35.2045898,55.4912109 C33.4467773,55.4912109 32.2138672,55.1982422 31.5058594,54.6123047 C30.7978516,54.0263672 30.4438477,53.0009766 30.4438477,51.5361328 C30.4438477,49.4853516 31.1762695,47.4589844 32.6411133,45.4570312 C34.2036133,43.3085938 36.3520508,42.234375 39.0864258,42.234375 C41.527832,42.234375 43.5053711,43.0644531 45.019043,44.7246094 C46.5327148,46.3847656 47.2895508,48.5332031 47.2895508,51.1699219 C47.2895508,54.0507812 45.7270508,55.4912109 42.6020508,55.4912109 L42.6020508,55.4912109 Z M138.256348,103.977539 C142.260254,103.977539 146.093262,102.90332 149.755371,100.754883 C152.733887,99.0458984 155.163086,96.921875 157.042969,94.3828125 C158.922852,91.84375 159.862793,89.4023438 159.862793,87.0585938 C159.862793,85.2519531 159.081543,84.2265625 157.519043,83.9824219 C155.956543,83.7382812 154.931152,83.4697266 154.442871,83.1767578 C153.95459,82.8837891 153.441895,82.2001953 152.904785,81.1259766 C151.830566,78.8798828 151.293457,73.9726562 151.293457,66.4042969 L151.293457,66.4042969 L151.439941,55.4912109 C151.439941,50.3154297 150.817383,46.2504883 149.572266,43.2963867 C148.327148,40.3422852 146.14209,37.7177734 143.01709,35.4228516 C137.108887,31.1259766 129.906738,28.9775391 121.410645,28.9775391 C111.791504,28.9775391 102.562988,31.3212891 93.7250977,36.0087891 C90.5024414,37.7666016 87.9511719,39.8173828 86.0712891,42.1611328 C84.1914062,44.5048828 83.2514648,46.8486328 83.2514648,49.1923828 C83.2514648,51.4873047 84.0083008,53.3427734 85.5219727,54.7587891 C87.0356445,56.1748047 88.9887695,56.8828125 91.3813477,56.8828125 C96.1176758,56.8828125 100.658691,53.7822266 105.004395,47.5810547 C106.713379,45.2373047 108.141602,43.6259766 109.289062,42.7470703 C110.436523,41.8681641 111.742676,41.4287109 113.20752,41.4287109 C115.648926,41.4287109 117.406738,42.5883789 118.480957,44.9077148 C119.555176,47.2270508 120.092285,50.9746094 120.092285,56.1503906 C120.092285,58.2011719 119.726074,59.5073242 118.993652,60.0688477 C118.26123,60.6303711 116.479004,60.9111328 113.646973,60.9111328 C100.902832,60.9599609 91.3325195,64.0605469 84.9360352,70.2128906 C80.8344727,74.1191406 78.7836914,78.6113281 78.7836914,83.6894531 C78.7836914,86.8632812 79.5405273,89.902832 81.0541992,92.8081055 C82.5678711,95.7133789 84.6186523,98.0693359 87.206543,99.8759766 C91.1616211,102.610352 96.3374023,103.977539 102.733887,103.977539 C108.935059,103.977539 114.477051,102.195312 119.359863,98.6308594 C120.971191,97.4101562 122.265137,96.7998047 123.241699,96.7998047 C124.120605,96.7998047 125.072754,97.4345703 126.098145,98.7041016 C129.07666,102.219727 133.129395,103.977539 138.256348,103.977539 Z M114.672363,88.1572266 C112.816895,88.1572266 111.327637,87.4370117 110.20459,85.996582 C109.081543,84.5561523 108.52002,82.6640625 108.52002,80.3203125 C108.52002,77.8789062 109.313477,75.7792969 110.900391,74.0214844 C112.487305,72.2636719 114.35498,71.3847656 116.503418,71.3847656 C118.065918,71.4335938 119.12793,71.921875 119.689453,72.8496094 C120.250977,73.7773438 120.531738,75.5839844 120.531738,78.2695312 C120.531738,84.8613281 118.578613,88.1572266 114.672363,88.1572266 Z M202.050293,103.977539 C209.472168,103.977539 215.746582,102 220.873535,98.0449219 C226.830566,93.5039062 229.809082,87.8398438 229.809082,81.0527344 C229.809082,75.6816406 227.953613,71.140625 224.242676,67.4296875 C219.848145,63.0351562 213.524902,58.9824219 205.272949,55.2714844 C200.683105,53.171875 198.388184,50.9257812 198.388184,48.5332031 C198.388184,47.1660156 198.888672,45.9819336 199.889648,44.980957 C200.890625,43.9799805 202.074707,43.4794922 203.441895,43.4794922 C205.492676,43.4794922 208.080566,44.9931641 211.205566,48.0205078 C214.184082,50.8525391 216.344727,52.6835938 217.6875,53.5136719 C219.030273,54.34375 220.556152,54.7587891 222.265137,54.7587891 C224.315918,54.7587891 226.024902,54.1118164 227.39209,52.8178711 C228.759277,51.5239258 229.442871,49.9003906 229.442871,47.9472656 C229.442871,45.9453125 228.856934,43.5771484 227.685059,40.8427734 C226.513184,38.1083984 224.999512,35.59375 223.144043,33.2988281 C220.849121,30.4179688 218.578613,28.9775391 216.33252,28.9775391 C215.55127,28.9775391 214.599121,29.1972656 213.476074,29.6367188 C211.083496,30.515625 209.472168,30.9550781 208.64209,30.9550781 C207.909668,30.9550781 206.981934,30.8574219 205.858887,30.6621094 C200.341309,29.5878906 196.361816,29.0507812 193.92041,29.0507812 C185.131348,29.0507812 178.197754,32.0537109 173.119629,38.0595703 C169.555176,42.2587891 167.772949,47.2636719 167.772949,53.0742188 C167.772949,58.4453125 169.518555,63.1816406 173.009766,67.2832031 C176.500977,71.3847656 182.177246,75.3642578 190.038574,79.2216797 C193.79834,81.0283203 195.678223,83.0302734 195.678223,85.2275391 C195.678223,86.6435547 195.189941,87.7788086 194.213379,88.6333008 C193.236816,89.487793 191.942871,89.9150391 190.331543,89.9150391 C188.817871,89.9150391 187.401855,89.512207 186.083496,88.706543 C184.765137,87.9008789 183.10498,86.4238281 181.103027,84.2753906 C177.440918,80.3691406 175.036133,77.9643555 173.888672,77.0610352 C172.741211,76.1577148 171.483887,75.7060547 170.116699,75.7060547 C166.601074,75.7060547 164.843262,77.9521484 164.843262,82.4443359 C164.843262,85.2275391 165.697754,88.5600586 167.406738,92.4418945 C169.115723,96.3237305 170.971191,99.1679688 172.973145,100.974609 C174.291504,102.146484 176.098145,102.732422 178.393066,102.732422 C179.027832,102.732422 180.053223,102.634766 181.469238,102.439453 C182.299316,102.292969 183.031738,102.219727 183.666504,102.219727 C184.252441,102.219727 186.913574,102.488281 191.649902,103.025391 C196.679199,103.660156 200.145996,103.977539 202.050293,103.977539 Z M257.86084,127.561523 C266.796387,127.561523 274.437988,124.53418 280.785645,118.479492 C283.861816,115.549805 286.608398,111.997559 289.025391,107.822754 C291.442383,103.647949 293.847168,98.2646484 296.239746,91.6728516 L296.239746,91.6728516 L305.907715,65.0859375 C308.690918,57.5664062 311.156738,52.1708984 313.305176,48.8994141 C314.672363,46.8486328 316.527832,45.3837891 318.871582,44.5048828 C321.654785,43.5283203 323.571289,42.4907227 324.621094,41.3920898 C325.670898,40.293457 326.195801,38.8408203 326.195801,37.0341797 C326.195801,32.0537109 321.02002,29.5634766 310.668457,29.5634766 C305.102051,29.5634766 300.658691,30.3081055 297.338379,31.7973633 C294.018066,33.2866211 292.35791,35.2763672 292.35791,37.7666016 C292.35791,39.3291016 293.285645,41.2089844 295.141113,43.40625 C296.361816,44.8222656 296.972168,46.6533203 296.972168,48.8994141 C296.972168,51.6826172 296.166504,54.5756836 294.555176,57.5786133 C292.943848,60.581543 291.381348,62.0830078 289.867676,62.0830078 C288.45166,62.0830078 286.815918,60.3740234 284.960449,56.9560547 C283.300293,53.9287109 282.213867,51.7802734 281.701172,50.5107422 C281.188477,49.2412109 280.932129,48.0205078 280.932129,46.8486328 C280.932129,45.6279297 281.469238,44.2363281 282.543457,42.6738281 C283.666504,41.0136719 284.228027,39.5732422 284.228027,38.3525391 C284.228027,34.9345703 282.226074,32.5175781 278.222168,31.1015625 C275.243652,30.0273438 271.166504,29.4902344 265.990723,29.4902344 C258.617676,29.4902344 252.050293,30.0029297 246.288574,31.0283203 C237.645996,32.5908203 233.324707,35.5449219 233.324707,39.890625 C233.324707,40.9648438 233.678711,42.0756836 234.386719,43.2231445 C235.094727,44.3706055 235.937012,45.1396484 236.913574,45.5302734 C240.087402,46.9462891 242.138184,48.1425781 243.065918,49.1191406 C243.993652,50.0957031 245.385254,52.5371094 247.240723,56.4433594 L247.240723,56.4433594 L264.89209,94.0166016 C267.431152,99.3876953 268.700684,103.220703 268.700684,105.515625 C268.700684,107.46875 268.187988,109.104492 267.162598,110.422852 C266.137207,111.741211 264.867676,112.400391 263.354004,112.400391 C261.449707,112.400391 260.229004,111.326172 259.691895,109.177734 C259.008301,106.345703 258.495605,104.514648 258.153809,103.68457 C257.812012,102.854492 257.128418,101.902344 256.103027,100.828125 C253.95459,98.484375 251.122559,97.3125 247.606934,97.3125 C244.091309,97.3125 241.125,98.5942383 238.708008,101.157715 C236.291016,103.721191 235.08252,106.882812 235.08252,110.642578 C235.08252,115.183594 236.815918,118.918945 240.282715,121.848633 C244.774902,125.657227 250.634277,127.561523 257.86084,127.561523 Z M384.496582,103.977539 C392.309082,103.977539 399.828613,102.244141 407.055176,98.7773438 C410.131348,97.3125 412.597168,96.4091797 414.452637,96.0673828 C417.675293,95.4326172 419.799316,94.7001953 420.824707,93.8701172 C423.217285,91.8681641 425.268066,89.109375 426.977051,85.59375 C428.686035,82.078125 429.540527,78.9042969 429.540527,76.0722656 C429.540527,73.8261719 428.930176,71.909668 427.709473,70.3227539 C426.48877,68.7358398 425.023926,67.9423828 423.314941,67.9423828 C422.143066,67.9423828 420.629395,68.8212891 418.773926,70.5791016 C416.625488,72.6787109 413.610352,74.3876953 409.728516,75.7060547 C405.84668,77.0244141 401.928223,77.6835938 397.973145,77.6835938 C387.230957,77.6835938 378.979004,73.0205078 373.217285,63.6943359 C368.969238,56.7119141 366.845215,49.0214844 366.845215,40.6230469 C366.845215,34.5195312 368.322266,29.6489258 371.276367,26.0112305 C374.230469,22.3735352 378.222168,20.5546875 383.251465,20.5546875 C388.427246,20.5546875 393.383301,22.2148438 398.119629,25.5351562 C400.023926,26.9023438 401.635254,28.4282227 402.953613,30.112793 C404.271973,31.7973633 405.980957,34.5683594 408.080566,38.4257812 C409.54541,41.1601562 411.059082,43.0644531 412.621582,44.1386719 C414.184082,45.2128906 416.210449,45.75 418.700684,45.75 C421.435059,45.75 423.900879,45.0175781 426.098145,43.5527344 C430.150879,40.8183594 432.177246,36.4970703 432.177246,30.5888672 C432.177246,22.1904297 429.833496,15.1591797 425.145996,9.49511719 C423.241699,7.15136719 421.02002,5.97949219 418.480957,5.97949219 C417.699707,5.97949219 416.991699,6.05273438 416.356934,6.19921875 C414.403809,6.63867188 412.987793,6.85839844 412.108887,6.85839844 C410.888184,6.85839844 408.715332,6.12597656 405.590332,4.66113281 C398.949707,1.53613281 392.064941,-0.0263671875 384.936035,-0.0263671875 C377.318848,-0.0263671875 369.921387,1.53613281 362.743652,4.66113281 C353.319824,8.76269531 345.678223,14.6953125 339.818848,22.4589844 C333.080566,31.3945312 329.711426,41.2822266 329.711426,52.1220703 C329.711426,61.4482422 332.396973,70.3837891 337.768066,78.9287109 C343.236816,87.7177734 350.683105,94.2363281 360.106934,98.484375 C368.212402,102.146484 376.342285,103.977539 384.496582,103.977539 Z M510.546387,103.464844 C526.464355,103.464844 534.42334,100.828125 534.42334,95.5546875 C534.42334,93.9921875 533.715332,92.6494141 532.299316,91.5263672 C530.248535,89.9150391 528.942383,88.5722656 528.380859,87.4980469 C527.819336,86.4238281 527.51416,84.7392578 527.465332,82.4443359 L527.465332,82.4443359 L526.806152,56.0039062 C526.708496,50.6328125 526.232422,46.5068359 525.37793,43.6259766 C524.523438,40.7451172 523.070801,38.2548828 521.02002,36.1552734 C516.430176,31.4189453 510.253418,29.0507812 502.489746,29.0507812 C494.57959,29.0507812 488.256348,32.4931641 483.52002,39.3779297 C482.396973,40.9892578 481.249512,41.7949219 480.077637,41.7949219 C477.733887,41.7949219 476.61084,39.9638672 476.708496,36.3017578 L476.708496,36.3017578 L477.660645,5.61328125 C477.758301,3.171875 476.391113,1.95117188 473.559082,1.95117188 C468.334473,1.95117188 461.327637,3.171875 452.538574,5.61328125 C446.044434,7.37109375 441.649902,9.00683594 439.35498,10.5205078 C437.060059,12.0341797 435.912598,14.0117188 435.912598,16.453125 C435.912598,18.5039062 437.42627,20.3105469 440.453613,21.8730469 C441.869629,22.6054688 442.833984,23.3256836 443.34668,24.0336914 C443.859375,24.7416992 444.213379,25.8525391 444.408691,27.3662109 C444.994629,31.4189453 445.287598,38.6943359 445.287598,49.1923828 L445.287233,49.9317496 C445.274365,62.9248953 444.920482,72.2609592 444.225586,77.9399414 C443.517578,83.7260742 442.23584,87.2783203 440.380371,88.5966797 C438.280762,90.0615234 436.962402,91.1479492 436.425293,91.855957 C435.888184,92.5639648 435.619629,93.5771484 435.619629,94.8955078 C435.619629,100.608398 444.018066,103.464844 460.814941,103.464844 C475.17041,103.464844 482.348145,100.706055 482.348145,95.1884766 C482.348145,93.8212891 481.884277,92.625 480.956543,91.5996094 C478.95459,89.3535156 477.831543,87.8154297 477.587402,86.9853516 C477.343262,86.1552734 477.050293,82.6152344 476.708496,76.3652344 L476.708496,76.3652344 L476.708496,62.2294922 C476.708496,57.9326172 477.221191,55.0029297 478.246582,53.4404297 C479.662598,51.2919922 481.859863,50.2177734 484.838379,50.2177734 C488.98877,50.2177734 491.869629,52.2441406 493.480957,56.296875 C494.70166,59.2753906 495.312012,64.0117188 495.312012,70.5058594 C495.312012,81.2480469 494.286621,87.9619141 492.23584,90.6474609 C490.770996,92.5517578 489.916504,93.7236328 489.672363,94.1630859 C489.428223,94.6025391 489.306152,95.2373047 489.306152,96.0673828 C489.306152,100.999023 496.38623,103.464844 510.546387,103.464844 Z M597.411621,103.977539 C601.415527,103.977539 605.248535,102.90332 608.910645,100.754883 C611.88916,99.0458984 614.318359,96.921875 616.198242,94.3828125 C618.078125,91.84375 619.018066,89.4023438 619.018066,87.0585938 C619.018066,85.2519531 618.236816,84.2265625 616.674316,83.9824219 C615.111816,83.7382812 614.086426,83.4697266 613.598145,83.1767578 C613.109863,82.8837891 612.597168,82.2001953 612.060059,81.1259766 C610.98584,78.8798828 610.44873,73.9726562 610.44873,66.4042969 L610.44873,66.4042969 L610.595215,55.4912109 C610.595215,50.3154297 609.972656,46.2504883 608.727539,43.2963867 C607.482422,40.3422852 605.297363,37.7177734 602.172363,35.4228516 C596.26416,31.1259766 589.062012,28.9775391 580.565918,28.9775391 C570.946777,28.9775391 561.718262,31.3212891 552.880371,36.0087891 C549.657715,37.7666016 547.106445,39.8173828 545.226562,42.1611328 C543.34668,44.5048828 542.406738,46.8486328 542.406738,49.1923828 C542.406738,51.4873047 543.163574,53.3427734 544.677246,54.7587891 C546.190918,56.1748047 548.144043,56.8828125 550.536621,56.8828125 C555.272949,56.8828125 559.813965,53.7822266 564.159668,47.5810547 C565.868652,45.2373047 567.296875,43.6259766 568.444336,42.7470703 C569.591797,41.8681641 570.897949,41.4287109 572.362793,41.4287109 C574.804199,41.4287109 576.562012,42.5883789 577.63623,44.9077148 C578.710449,47.2270508 579.247559,50.9746094 579.247559,56.1503906 C579.247559,58.2011719 578.881348,59.5073242 578.148926,60.0688477 C577.416504,60.6303711 575.634277,60.9111328 572.802246,60.9111328 C560.058105,60.9599609 550.487793,64.0605469 544.091309,70.2128906 C539.989746,74.1191406 537.938965,78.6113281 537.938965,83.6894531 C537.938965,86.8632812 538.695801,89.902832 540.209473,92.8081055 C541.723145,95.7133789 543.773926,98.0693359 546.361816,99.8759766 C550.316895,102.610352 555.492676,103.977539 561.88916,103.977539 C568.090332,103.977539 573.632324,102.195312 578.515137,98.6308594 C580.126465,97.4101562 581.42041,96.7998047 582.396973,96.7998047 C583.275879,96.7998047 584.228027,97.4345703 585.253418,98.7041016 C588.231934,102.219727 592.284668,103.977539 597.411621,103.977539 Z M573.827637,88.1572266 C571.972168,88.1572266 570.48291,87.4370117 569.359863,85.996582 C568.236816,84.5561523 567.675293,82.6640625 567.675293,80.3203125 C567.675293,77.8789062 568.46875,75.7792969 570.055664,74.0214844 C571.642578,72.2636719 573.510254,71.3847656 575.658691,71.3847656 C577.221191,71.4335938 578.283203,71.921875 578.844727,72.8496094 C579.40625,73.7773438 579.687012,75.5839844 579.687012,78.2695312 C579.687012,84.8613281 577.733887,88.1572266 573.827637,88.1572266 Z M648.168457,103.464844 C657.250488,103.464844 664.135254,102.976562 668.822754,102 C671.166504,101.511719 673.046387,100.522949 674.462402,99.0336914 C675.878418,97.5444336 676.586426,95.7988281 676.586426,93.796875 C676.586426,90.5253906 674.38916,88.2304688 669.994629,86.9121094 C667.992676,86.3261719 666.686523,85.7524414 666.076172,85.190918 C665.46582,84.6293945 664.989746,83.6162109 664.647949,82.1513672 C664.11084,79.4658203 663.842285,74.4365234 663.842285,67.0634766 L663.842933,66.5915179 C663.855889,61.9249007 664.063193,58.847357 664.464844,57.3588867 C664.879883,55.8208008 665.770996,55.0517578 667.138184,55.0517578 C668.01709,55.0517578 668.969238,55.5644531 669.994629,56.5898438 C672.729004,59.2753906 674.938477,61.0576172 676.623047,61.9365234 C678.307617,62.8154297 680.39502,63.2548828 682.885254,63.2548828 C687.42627,63.2548828 691.259277,61.765625 694.384277,58.7871094 C696.093262,57.2246094 697.484863,55.2348633 698.559082,52.8178711 C699.633301,50.4008789 700.17041,48.0449219 700.17041,45.75 C700.17041,43.6992188 699.730957,41.5629883 698.852051,39.3413086 C697.973145,37.1196289 696.850098,35.3007812 695.48291,33.8847656 C692.650879,31.0039062 689.013184,29.5634766 684.569824,29.5634766 C678.270996,29.5634766 673.168457,32.6152344 669.262207,38.71875 C668.383301,40.1347656 667.455566,40.8427734 666.479004,40.8427734 C665.209473,40.8427734 664.452637,39.7685547 664.208496,37.6201172 C663.769043,33.6650391 663.268555,31.3212891 662.707031,30.5888672 C662.145508,29.8564453 660.570801,29.4902344 657.98291,29.4902344 C652.709473,29.5390625 646.312988,30.6865234 638.793457,32.9326172 C633.178223,34.5927734 629.174316,36.2651367 626.781738,37.949707 C624.38916,39.6342773 623.192871,41.6484375 623.192871,43.9921875 C623.192871,46.5800781 624.92627,48.5576172 628.393066,49.9248047 C629.85791,50.5107422 630.834473,51.2797852 631.322754,52.2319336 C631.811035,53.184082 632.055176,54.7587891 632.055176,56.9560547 C632.055176,68.9677734 631.664551,77.1953125 630.883301,81.6386719 C630.687988,82.9570312 630.321777,83.9946289 629.784668,84.7514648 C629.247559,85.5083008 628.270996,86.3505859 626.85498,87.2783203 C623.925293,89.2802734 622.460449,91.5507812 622.460449,94.0898438 C622.460449,97.4589844 624.462402,99.8271484 628.466309,101.194336 C632.958496,102.708008 639.525879,103.464844 648.168457,103.464844 Z M739.794434,130.930664 C748.388184,130.930664 755.956543,129.905273 762.499512,127.854492 C770.849121,125.217773 777.172363,121.165039 781.469238,115.696289 C785.08252,111.057617 786.88916,106.272461 786.88916,101.34082 C786.88916,98.3134766 786.144531,95.4814453 784.655273,92.8447266 C783.166016,90.2080078 781.151855,88.1572266 778.612793,86.6923828 C775.438965,84.7880859 770.971191,83.8359375 765.209473,83.8359375 C761.400879,83.8359375 755.492676,84.3974609 747.484863,85.5205078 C743.67627,86.0576172 740.79541,86.3261719 738.842285,86.3261719 C735.961426,86.3261719 733.678711,85.8500977 731.994141,84.8979492 C730.30957,83.9458008 729.467285,82.6396484 729.467285,80.9794922 C729.467285,78.3916016 730.76123,77.0976562 733.349121,77.0976562 C734.032715,77.0976562 735.009277,77.1708984 736.278809,77.3173828 C737.841309,77.5126953 739.428223,77.6103516 741.039551,77.6103516 C747.680176,77.6103516 753.771484,76.6337891 759.313477,74.6806641 C764.855469,72.7275391 769.384277,69.9931641 772.899902,66.4775391 C776.806152,62.5224609 778.759277,57.6396484 778.759277,51.8291016 C778.759277,50.9990234 778.686035,50.0712891 778.539551,49.0458984 C778.441895,48.0205078 778.393066,47.4345703 778.393066,47.2880859 C778.393066,46.7021484 778.95459,45.9208984 780.077637,44.9443359 C781.835449,43.4306641 783.336914,41.4042969 784.582031,38.8652344 C785.827148,36.3261719 786.449707,34.0556641 786.449707,32.0537109 C786.449707,30.1982422 785.98584,28.574707 785.058105,27.1831055 C784.130371,25.7915039 783.056152,25.0957031 781.835449,25.0957031 C781.200684,25.0957031 780.297363,25.5351562 779.125488,26.4140625 C773.852051,30.6132812 768.554199,32.7128906 763.231934,32.7128906 C761.571777,32.7128906 758.52002,32.2734375 754.07666,31.3945312 C749.38916,30.4179688 745.141113,29.9296875 741.33252,29.9296875 C731.762207,29.9296875 723.046387,32.4931641 715.185059,37.6201172 C712.01123,39.7197266 709.533203,42.2587891 707.750977,45.2373047 C705.96875,48.2158203 705.077637,51.3408203 705.077637,54.6123047 C705.077637,60.8134766 707.592285,66.2333984 712.621582,70.8720703 C714.086426,72.2392578 714.818848,73.2646484 714.818848,73.9482422 C714.818848,74.5341797 714.23291,75.1201172 713.061035,75.7060547 C710.277832,77.0732422 707.946289,79.0019531 706.066406,81.4921875 C704.186523,83.9824219 703.246582,86.3994141 703.246582,88.7431641 C703.246582,92.2587891 705.199707,95.6523438 709.105957,98.9238281 C710.32666,99.9492188 710.937012,100.730469 710.937012,101.267578 C710.937012,101.951172 710.20459,102.585938 708.739746,103.171875 C707.128418,103.855469 705.797852,105.00293 704.748047,106.614258 C703.698242,108.225586 703.17334,109.983398 703.17334,111.887695 C703.17334,114.62207 704.101074,117.258789 705.956543,119.797852 C707.812012,122.336914 710.302246,124.387695 713.427246,125.950195 C720.165527,129.270508 728.95459,130.930664 739.794434,130.930664 Z M742.724121,67.8691406 C740.087402,67.8691406 737.963379,66.2822266 736.352051,63.1083984 C734.740723,59.9345703 733.935059,55.7109375 733.935059,50.4375 C733.935059,47.3613281 734.679688,44.8955078 736.168945,43.0400391 C737.658203,41.1845703 739.623535,40.2568359 742.064941,40.2568359 C744.945801,40.3544922 747.179688,41.855957 748.766602,44.7612305 C750.353516,47.6665039 751.146973,51.7314453 751.146973,56.9560547 C751.146973,60.2763672 750.390137,62.925293 748.876465,64.902832 C747.362793,66.8803711 745.312012,67.8691406 742.724121,67.8691406 Z M741.112793,118.699219 C736.132324,118.699219 732.07959,117.808105 728.95459,116.025879 C725.82959,114.243652 724.26709,111.912109 724.26709,109.03125 C724.26709,107.615234 724.877441,106.907227 726.098145,106.907227 C726.342285,106.907227 726.708496,106.956055 727.196777,107.053711 C728.270996,107.297852 729.662598,107.493164 731.371582,107.639648 C733.666504,107.883789 736.059082,108.005859 738.549316,108.005859 C741.918457,108.005859 744.970215,107.786133 747.70459,107.34668 C749.169434,107.151367 750.29248,107.053711 751.07373,107.053711 C752.587402,107.053711 753.856934,107.480957 754.882324,108.335449 C755.907715,109.189941 756.42041,110.227539 756.42041,111.448242 C756.42041,113.743164 755.06543,115.525391 752.355469,116.794922 C749.645508,118.064453 745.897949,118.699219 741.112793,118.699219 Z M803.515137,24.9492188 C811.962402,24.9492188 819.164551,23.2158203 825.121582,19.7490234 C828.881348,17.5517578 830.76123,14.5732422 830.76123,10.8134766 C830.76123,8.12792969 829.516113,5.99169922 827.025879,4.40478516 C824.535645,2.81787109 821.166504,2.02441406 816.918457,2.02441406 C811.596191,2.02441406 805.883301,3.24511719 799.779785,5.68652344 C793.773926,8.07910156 790.770996,11.375 790.770996,15.5742188 C790.770996,18.6992188 792.187012,21.140625 795.019043,22.8984375 C797.118652,24.265625 799.950684,24.9492188 803.515137,24.9492188 Z M815.893066,103.464844 C831.859863,103.464844 839.843262,100.31543 839.843262,94.0166016 C839.843262,92.8447266 839.586914,91.8803711 839.074219,91.1235352 C838.561523,90.3666992 837.54834,89.4511719 836.034668,88.3769531 C834.179199,87.0585938 832.946289,85.6181641 832.335938,84.0556641 C831.725586,82.4931641 831.42041,80.0273438 831.42041,76.6582031 L831.42041,76.6582031 L831.42041,34.1044922 C831.42041,31.0771484 830.077637,29.5634766 827.39209,29.5634766 C823.974121,29.5634766 819.140137,30.2958984 812.890137,31.7607422 C806.640137,33.2255859 800.780762,35.0078125 795.312012,37.1074219 C791.356934,38.6210938 789.379395,40.9160156 789.379395,43.9921875 C789.379395,46.5800781 790.893066,48.5332031 793.92041,49.8515625 C796.361816,50.9257812 797.729004,52.4638672 798.021973,54.4658203 C798.119629,55.1982422 798.27832,57.7739258 798.498047,62.1928711 C798.717773,66.6118164 798.827637,69.6269531 798.827637,71.2382812 C798.827637,76.2675781 798.510254,80.0517578 797.875488,82.5908203 C797.240723,85.1298828 796.166504,86.9609375 794.652832,88.0839844 C792.455566,89.6953125 791.088379,90.8671875 790.55127,91.5996094 C790.01416,92.3320312 789.745605,93.3574219 789.745605,94.6757812 C789.745605,96.2382812 790.270508,97.6298828 791.320312,98.8505859 C792.370117,100.071289 793.749512,100.925781 795.458496,101.414062 C800.487793,102.78125 807.299316,103.464844 815.893066,103.464844 Z M864.086426,103.538086 C872.58252,103.538086 878.83252,102.854492 882.836426,101.487305 C886.840332,100.120117 888.842285,97.9960938 888.842285,95.1152344 C888.842285,93.9921875 888.57373,92.9912109 888.036621,92.1123047 C885.98584,89.0361328 884.777344,86.9609375 884.411133,85.8867188 C884.044922,84.8125 883.861816,82.8349609 883.861816,79.9541016 L883.861816,79.9541016 L883.861816,65.4521484 C883.861816,59.9345703 884.472168,56.1259766 885.692871,54.0263672 C886.913574,51.9267578 889.159668,50.8769531 892.431152,50.8769531 C895.849121,50.8769531 898.192871,52.1708984 899.462402,54.7587891 C901.024902,57.9814453 901.806152,62.9619141 901.806152,69.7001953 C901.806152,81.3212891 900.82959,88.1572266 898.876465,90.2080078 C897.216309,92.0146484 896.239746,93.1499023 895.946777,93.6137695 C895.653809,94.0776367 895.507324,94.7978516 895.507324,95.7744141 C895.507324,98.5087891 896.947754,100.486328 899.828613,101.707031 C902.611816,102.878906 907.372559,103.464844 914.11084,103.464844 C924.022949,103.464844 930.907715,102.830078 934.765137,101.560547 C938.622559,100.291016 940.55127,98.0449219 940.55127,94.8222656 C940.55127,93.40625 940.185059,92.3076172 939.452637,91.5263672 C936.962402,88.8896484 935.460938,87.1074219 934.948242,86.1796875 C934.435547,85.2519531 934.130371,83.8115234 934.032715,81.8583984 L934.032715,81.8583984 L933.007324,56.0771484 C932.714355,50.0712891 931.95752,45.5180664 930.736816,42.4174805 C929.516113,39.3168945 927.367676,36.6191406 924.291504,34.3242188 C919.896973,31.1015625 914.623535,29.4902344 908.471191,29.4902344 C900.463379,29.4902344 894.359863,32.5175781 890.160645,38.5722656 C888.842285,40.4277344 887.597168,41.3554688 886.425293,41.3554688 C884.472168,41.3554688 883.495605,40.1835938 883.495605,37.8398438 C883.495605,37.546875 883.52002,37.2050781 883.568848,36.8144531 C883.617676,35.7402344 883.64209,35.1298828 883.64209,34.9833984 C883.64209,33.5185547 883.141602,32.2490234 882.140625,31.1748047 C881.139648,30.1005859 879.906738,29.5634766 878.441895,29.5634766 C876.830566,29.5634766 873.852051,30.137207 869.506348,31.284668 C865.160645,32.4321289 860.644043,33.8359375 855.956543,35.4960938 C850.634277,37.4003906 847.118652,38.9750977 845.409668,40.2202148 C843.700684,41.465332 842.846191,43.0644531 842.846191,45.0175781 C842.846191,46.921875 843.895996,48.5332031 845.995605,49.8515625 C848.437012,51.3652344 849.914062,52.6469727 850.426758,53.6967773 C850.939453,54.746582 851.195801,56.9560547 851.195801,60.3251953 C851.195801,66.4287109 851.024902,72.2636719 850.683105,77.8300781 C850.390137,82.5175781 850.072754,85.4594727 849.730957,86.6557617 C849.38916,87.8520508 848.583496,88.9140625 847.313965,89.8417969 C845.751465,90.9648438 844.762695,91.831543 844.347656,92.4418945 C843.932617,93.0522461 843.725098,93.9433594 843.725098,95.1152344 C843.725098,100.730469 850.512207,103.538086 864.086426,103.538086 Z M980.614746,130.930664 C989.208496,130.930664 996.776855,129.905273 1003.31982,127.854492 C1011.66943,125.217773 1017.99268,121.165039 1022.28955,115.696289 C1025.90283,111.057617 1027.70947,106.272461 1027.70947,101.34082 C1027.70947,98.3134766 1026.96484,95.4814453 1025.47559,92.8447266 C1023.98633,90.2080078 1021.97217,88.1572266 1019.43311,86.6923828 C1016.25928,84.7880859 1011.7915,83.8359375 1006.02979,83.8359375 C1002.22119,83.8359375 996.312988,84.3974609 988.305176,85.5205078 C984.496582,86.0576172 981.615723,86.3261719 979.662598,86.3261719 C976.781738,86.3261719 974.499023,85.8500977 972.814453,84.8979492 C971.129883,83.9458008 970.287598,82.6396484 970.287598,80.9794922 C970.287598,78.3916016 971.581543,77.0976562 974.169434,77.0976562 C974.853027,77.0976562 975.82959,77.1708984 977.099121,77.3173828 C978.661621,77.5126953 980.248535,77.6103516 981.859863,77.6103516 C988.500488,77.6103516 994.591797,76.6337891 1000.13379,74.6806641 C1005.67578,72.7275391 1010.20459,69.9931641 1013.72021,66.4775391 C1017.62646,62.5224609 1019.57959,57.6396484 1019.57959,51.8291016 C1019.57959,50.9990234 1019.50635,50.0712891 1019.35986,49.0458984 C1019.26221,48.0205078 1019.21338,47.4345703 1019.21338,47.2880859 C1019.21338,46.7021484 1019.7749,45.9208984 1020.89795,44.9443359 C1022.65576,43.4306641 1024.15723,41.4042969 1025.40234,38.8652344 C1026.64746,36.3261719 1027.27002,34.0556641 1027.27002,32.0537109 C1027.27002,30.1982422 1026.80615,28.574707 1025.87842,27.1831055 C1024.95068,25.7915039 1023.87646,25.0957031 1022.65576,25.0957031 C1022.021,25.0957031 1021.11768,25.5351562 1019.9458,26.4140625 C1014.67236,30.6132812 1009.37451,32.7128906 1004.05225,32.7128906 C1002.39209,32.7128906 999.340332,32.2734375 994.896973,31.3945312 C990.209473,30.4179688 985.961426,29.9296875 982.152832,29.9296875 C972.58252,29.9296875 963.866699,32.4931641 956.005371,37.6201172 C952.831543,39.7197266 950.353516,42.2587891 948.571289,45.2373047 C946.789062,48.2158203 945.897949,51.3408203 945.897949,54.6123047 C945.897949,60.8134766 948.412598,66.2333984 953.441895,70.8720703 C954.906738,72.2392578 955.63916,73.2646484 955.63916,73.9482422 C955.63916,74.5341797 955.053223,75.1201172 953.881348,75.7060547 C951.098145,77.0732422 948.766602,79.0019531 946.886719,81.4921875 C945.006836,83.9824219 944.066895,86.3994141 944.066895,88.7431641 C944.066895,92.2587891 946.02002,95.6523438 949.92627,98.9238281 C951.146973,99.9492188 951.757324,100.730469 951.757324,101.267578 C951.757324,101.951172 951.024902,102.585938 949.560059,103.171875 C947.94873,103.855469 946.618164,105.00293 945.568359,106.614258 C944.518555,108.225586 943.993652,109.983398 943.993652,111.887695 C943.993652,114.62207 944.921387,117.258789 946.776855,119.797852 C948.632324,122.336914 951.122559,124.387695 954.247559,125.950195 C960.98584,129.270508 969.774902,130.930664 980.614746,130.930664 Z M983.544434,67.8691406 C980.907715,67.8691406 978.783691,66.2822266 977.172363,63.1083984 C975.561035,59.9345703 974.755371,55.7109375 974.755371,50.4375 C974.755371,47.3613281 975.5,44.8955078 976.989258,43.0400391 C978.478516,41.1845703 980.443848,40.2568359 982.885254,40.2568359 C985.766113,40.3544922 988,41.855957 989.586914,44.7612305 C991.173828,47.6665039 991.967285,51.7314453 991.967285,56.9560547 C991.967285,60.2763672 991.210449,62.925293 989.696777,64.902832 C988.183105,66.8803711 986.132324,67.8691406 983.544434,67.8691406 Z M981.933105,118.699219 C976.952637,118.699219 972.899902,117.808105 969.774902,116.025879 C966.649902,114.243652 965.087402,111.912109 965.087402,109.03125 C965.087402,107.615234 965.697754,106.907227 966.918457,106.907227 C967.162598,106.907227 967.528809,106.956055 968.01709,107.053711 C969.091309,107.297852 970.48291,107.493164 972.191895,107.639648 C974.486816,107.883789 976.879395,108.005859 979.369629,108.005859 C982.73877,108.005859 985.790527,107.786133 988.524902,107.34668 C989.989746,107.151367 991.112793,107.053711 991.894043,107.053711 C993.407715,107.053711 994.677246,107.480957 995.702637,108.335449 C996.728027,109.189941 997.240723,110.227539 997.240723,111.448242 C997.240723,113.743164 995.885742,115.525391 993.175781,116.794922 C990.46582,118.064453 986.718262,118.699219 981.933105,118.699219 Z" id="easyCharging" fill="#FFFFFF" fill-rule="nonzero"></path>
    </g>
</svg>