<?xml version="1.0" encoding="UTF-8"?>
<svg width="775px" height="232px" viewBox="0 0 775 232" version="1.1" xmlns="http://www.w3.org/2000/svg" xmlns:xlink="http://www.w3.org/1999/xlink">
    <title>easyCharging.app Part of the easy family of brands RGB - Vector Copy</title>
    <g id="Page-1" stroke="none" stroke-width="1" fill="none" fill-rule="evenodd">
        <g id="easyCharging.app-Part-of-the-easy-family-of-brands-RGB---Vector-Copy" transform="translate(0.219000, 0.867000)" fill="#FFFFFF" fill-rule="nonzero">
            <path d="M395.538,216.069 L381.451,216.069 L381.451,202.335 L395.538,202.335 C397.29,202.335 398.707,200.918 398.707,199.166 C398.707,197.415 397.29,195.997 395.538,195.997 L381.451,195.997 L381.451,189.808 C381.451,188.824 380.671,188.062 379.705,187.988 C379.705,187.969 379.705,187.951 379.705,187.932 C379.668,187.932 379.631,187.938 379.587,187.938 C379.581,187.938 379.581,187.932 379.575,187.932 C379.569,187.932 379.563,187.938 379.556,187.938 C364.373,187.981 352.088,193.991 352.088,209.199 C352.088,224.375 364.38,230.41 379.556,230.453 C379.562,230.453 379.568,230.459 379.575,230.459 C379.582,230.459 379.581,230.453 379.587,230.453 C379.63,230.453 379.668,230.459 379.705,230.459 C379.705,230.44 379.705,230.428 379.705,230.403 C380.67,230.329 381.451,229.574 381.451,228.584 L381.451,222.407 L395.538,222.407 C397.29,222.407 398.707,220.99 398.707,219.238 C398.707,217.486 397.29,216.069 395.538,216.069 Z" id="Path"></path>
            <g id="Group">
                <g transform="translate(106.228000, 44.603000)">
                    <path d="M28.719,29.246 L14.174,29.246 C13.536,29.246 13.215,29.525 13.215,30.082 C13.215,31.425 13.945,32.688 15.394,33.87 C16.854,35.058 18.415,35.653 20.085,35.653 C21.075,35.653 22.177,35.461 23.378,35.084 C24.591,34.7 25.581,34.23 26.367,33.673 C27.067,33.178 27.623,32.93 28.038,32.93 C28.576,32.93 29.102,33.258 29.616,33.92 C30.13,34.582 30.389,35.263 30.389,35.962 C30.389,37.447 29.461,38.883 27.604,40.263 C24.324,42.721 20.536,43.946 16.247,43.946 C11.914,43.946 8.281,42.69 5.354,40.17 C3.93,38.932 2.754,37.435 1.826,35.683 C0.606,33.35 -2.84217094e-14,30.898 -2.84217094e-14,28.317 C-2.84217094e-14,24.851 1.052,21.737 3.157,18.971 C4.97,16.575 7.285,14.793 10.089,13.617 C12.193,12.732 14.471,12.286 16.928,12.286 C20.845,12.286 24.182,13.4 26.924,15.628 C28.304,16.742 29.418,18.06 30.266,19.589 C31.238,21.322 31.721,23.012 31.721,24.665 C31.721,26.008 31.442,27.104 30.885,27.964 C30.328,28.819 29.604,29.246 28.719,29.246 Z M14.979,23.459 L18.104,23.459 C19.422,23.459 20.084,22.852 20.084,21.632 C20.084,20.518 19.762,19.608 19.125,18.909 C18.488,18.209 17.652,17.857 16.619,17.857 C15.461,17.857 14.558,18.309 13.895,19.219 C13.276,20.067 12.967,20.921 12.967,21.788 C12.967,22.407 13.115,22.84 13.413,23.088 C13.716,23.335 14.236,23.459 14.979,23.459 Z" id="Shape"></path>
                    <path d="M51.403,12.256 C54.993,12.256 58.038,13.166 60.532,14.98 C61.85,15.952 62.779,17.06 63.299,18.31 C63.831,19.554 64.091,21.275 64.091,23.46 L64.029,28.071 C64.029,31.271 64.258,33.345 64.71,34.292 C64.939,34.744 65.155,35.035 65.36,35.159 C65.564,35.283 65.997,35.394 66.66,35.499 C67.322,35.604 67.65,36.038 67.65,36.799 C67.65,37.789 67.254,38.823 66.455,39.894 C65.663,40.965 64.636,41.863 63.379,42.586 C61.832,43.496 60.21,43.948 58.52,43.948 C56.354,43.948 54.639,43.205 53.383,41.72 C52.95,41.181 52.548,40.915 52.176,40.915 C51.761,40.915 51.217,41.175 50.536,41.689 C48.475,43.193 46.129,43.948 43.511,43.948 C40.806,43.948 38.621,43.373 36.95,42.215 C35.854,41.453 34.988,40.457 34.35,39.232 C33.712,38 33.391,36.719 33.391,35.376 C33.391,33.229 34.258,31.334 35.991,29.682 C38.696,27.082 42.738,25.77 48.122,25.752 C49.316,25.752 50.072,25.634 50.381,25.393 C50.691,25.158 50.845,24.607 50.845,23.741 C50.845,21.556 50.616,19.971 50.164,18.993 C49.712,18.009 48.969,17.52 47.935,17.52 C47.316,17.52 46.766,17.706 46.276,18.077 C45.794,18.448 45.193,19.129 44.469,20.119 C42.631,22.737 40.712,24.05 38.713,24.05 C37.704,24.05 36.875,23.753 36.237,23.153 C35.599,22.552 35.278,21.773 35.278,20.8 C35.278,19.81 35.674,18.82 36.473,17.829 C37.265,16.839 38.342,15.973 39.704,15.23 C43.437,13.246 47.337,12.256 51.403,12.256 Z M49.329,30.175 C48.419,30.175 47.633,30.546 46.959,31.289 C46.291,32.032 45.956,32.917 45.956,33.951 C45.956,34.941 46.191,35.74 46.668,36.347 C47.145,36.96 47.77,37.263 48.556,37.263 C50.208,37.263 51.032,35.87 51.032,33.085 C51.032,31.952 50.914,31.185 50.673,30.794 C50.437,30.404 49.992,30.193 49.329,30.175 Z" id="Shape"></path>
                    <path d="M82.04,12.287 C83.074,12.287 84.751,12.516 87.084,12.968 C87.561,13.049 87.951,13.092 88.26,13.092 C88.613,13.092 89.294,12.906 90.302,12.535 C90.779,12.349 91.181,12.256 91.509,12.256 C92.456,12.256 93.415,12.862 94.387,14.082 C95.173,15.054 95.811,16.112 96.306,17.27 C96.801,18.427 97.049,19.424 97.049,20.272 C97.049,21.095 96.758,21.782 96.182,22.333 C95.607,22.878 94.882,23.15 94.016,23.15 C93.292,23.15 92.648,22.977 92.078,22.624 C91.515,22.271 90.599,21.498 89.343,20.303 C88.025,19.022 86.929,18.384 86.062,18.384 C85.487,18.384 84.985,18.594 84.564,19.015 C84.137,19.442 83.926,19.944 83.926,20.519 C83.926,21.529 84.898,22.482 86.835,23.367 C90.319,24.933 92.993,26.648 94.85,28.504 C96.416,30.07 97.202,31.989 97.202,34.261 C97.202,37.127 95.946,39.522 93.427,41.441 C91.26,43.112 88.612,43.948 85.473,43.948 C84.668,43.948 83.202,43.812 81.078,43.546 C79.079,43.317 77.953,43.206 77.705,43.206 C77.439,43.206 77.129,43.237 76.777,43.299 C76.176,43.379 75.743,43.423 75.477,43.423 C74.505,43.423 73.744,43.175 73.187,42.68 C72.339,41.919 71.559,40.718 70.835,39.072 C70.111,37.438 69.752,36.027 69.752,34.851 C69.752,32.951 70.495,32.004 71.98,32.004 C72.556,32.004 73.088,32.195 73.571,32.573 C74.06,32.957 75.075,33.972 76.622,35.625 C77.47,36.535 78.169,37.153 78.726,37.5 C79.283,37.834 79.883,38.008 80.521,38.008 C81.202,38.008 81.746,37.828 82.161,37.463 C82.576,37.104 82.78,36.628 82.78,36.027 C82.78,35.098 81.988,34.251 80.397,33.489 C77.073,31.861 74.678,30.177 73.199,28.445 C71.726,26.712 70.99,24.713 70.99,22.441 C70.99,19.983 71.745,17.873 73.249,16.096 C75.399,13.555 78.327,12.287 82.04,12.287 Z" id="Path"></path>
                    <path d="M129.358,27.513 L125.273,38.747 C124.264,41.532 123.249,43.81 122.222,45.568 C121.207,47.338 120.043,48.836 118.743,50.074 C116.063,52.63 112.832,53.911 109.056,53.911 C106.005,53.911 103.529,53.106 101.629,51.497 C100.162,50.259 99.432,48.681 99.432,46.762 C99.432,45.171 99.94,43.834 100.967,42.758 C101.982,41.668 103.238,41.13 104.724,41.13 C106.21,41.13 107.404,41.626 108.314,42.616 C108.747,43.068 109.038,43.47 109.181,43.823 C109.323,44.176 109.54,44.949 109.831,46.144 C110.06,47.054 110.574,47.506 111.378,47.506 C112.015,47.506 112.554,47.228 112.987,46.671 C113.42,46.114 113.637,45.421 113.637,44.598 C113.637,43.626 113.098,42.011 112.028,39.739 L104.57,23.863 C103.784,22.21 103.196,21.183 102.806,20.768 C102.416,20.353 101.55,19.852 100.207,19.251 C99.792,19.084 99.439,18.762 99.136,18.273 C98.839,17.79 98.69,17.32 98.69,16.868 C98.69,15.03 100.516,13.785 104.168,13.123 C106.601,12.69 109.379,12.473 112.493,12.473 C114.678,12.473 116.405,12.702 117.661,13.154 C119.351,13.755 120.199,14.776 120.199,16.218 C120.199,16.732 119.964,17.344 119.488,18.044 C119.036,18.706 118.807,19.294 118.807,19.808 C118.807,20.303 118.919,20.817 119.129,21.355 C119.352,21.894 119.81,22.797 120.509,24.079 C121.295,25.521 121.982,26.246 122.583,26.246 C123.22,26.246 123.883,25.615 124.563,24.34 C125.244,23.077 125.584,21.851 125.584,20.675 C125.584,19.728 125.324,18.955 124.811,18.354 C124.025,17.426 123.635,16.633 123.635,15.971 C123.635,14.919 124.334,14.077 125.739,13.446 C127.144,12.821 129.02,12.505 131.371,12.505 C135.747,12.505 137.932,13.557 137.932,15.662 C137.932,16.423 137.709,17.036 137.264,17.506 C136.825,17.964 136.014,18.403 134.838,18.819 C133.848,19.19 133.062,19.809 132.486,20.675 C131.574,22.053 130.534,24.338 129.358,27.513 Z" id="Path"></path>
                    <path d="M162.75,0 C165.764,0 168.673,0.662 171.477,1.981 C172.795,2.6 173.717,2.91 174.231,2.91 C174.603,2.91 175.203,2.817 176.026,2.631 C176.292,2.569 176.596,2.538 176.923,2.538 C177.994,2.538 178.935,3.033 179.739,4.024 C181.719,6.419 182.71,9.39 182.71,12.937 C182.71,15.431 181.856,17.257 180.142,18.415 C179.213,19.034 178.174,19.343 177.016,19.343 C175.964,19.343 175.11,19.114 174.448,18.662 C173.786,18.21 173.148,17.406 172.53,16.248 C171.645,14.62 170.921,13.444 170.363,12.739 C169.806,12.021 169.125,11.377 168.321,10.802 C166.322,9.396 164.224,8.697 162.039,8.697 C159.916,8.697 158.226,9.465 156.982,11.006 C155.732,12.541 155.107,14.596 155.107,17.177 C155.107,20.723 156.004,23.973 157.799,26.926 C160.232,30.868 163.722,32.837 168.259,32.837 C169.93,32.837 171.589,32.559 173.223,32.002 C174.869,31.444 176.139,30.72 177.048,29.835 C177.834,29.092 178.471,28.721 178.966,28.721 C179.69,28.721 180.309,29.055 180.823,29.724 C181.337,30.398 181.597,31.209 181.597,32.156 C181.597,33.351 181.238,34.694 180.514,36.179 C179.79,37.664 178.924,38.828 177.914,39.676 C177.481,40.029 176.583,40.338 175.222,40.605 C174.436,40.747 173.396,41.131 172.097,41.751 C169.046,43.218 165.865,43.948 162.565,43.948 C159.118,43.948 155.683,43.175 152.26,41.627 C148.281,39.832 145.13,37.077 142.822,33.364 C140.551,29.755 139.418,25.98 139.418,22.036 C139.418,17.456 140.841,13.278 143.689,9.502 C146.165,6.221 149.396,3.715 153.376,1.981 C156.406,0.662 159.531,0 162.75,0 Z" id="Path"></path>
                    <path d="M201.928,2.383 L201.526,15.35 C201.483,16.897 201.959,17.671 202.949,17.671 C203.444,17.671 203.927,17.33 204.404,16.65 C206.403,13.741 209.077,12.287 212.419,12.287 C215.699,12.287 218.312,13.289 220.249,15.289 C221.116,16.174 221.728,17.226 222.093,18.445 C222.452,19.664 222.65,21.404 222.694,23.675 L222.972,34.847 C222.991,35.819 223.121,36.531 223.356,36.982 C223.598,37.434 224.148,38.003 225.015,38.684 C225.616,39.161 225.912,39.724 225.912,40.386 C225.912,42.615 222.551,43.729 215.824,43.729 C209.839,43.729 206.849,42.689 206.849,40.603 C206.849,40.25 206.898,39.984 207.004,39.798 C207.109,39.612 207.468,39.117 208.087,38.313 C208.954,37.18 209.387,34.339 209.387,29.802 C209.387,27.06 209.127,25.055 208.614,23.799 C207.933,22.084 206.714,21.23 204.962,21.23 C203.706,21.23 202.777,21.682 202.177,22.592 C201.743,23.254 201.527,24.492 201.527,26.305 L201.527,32.278 C201.669,34.921 201.793,36.413 201.898,36.765 C202.003,37.118 202.474,37.768 203.322,38.715 C203.712,39.149 203.91,39.656 203.91,40.232 C203.91,42.565 200.877,43.73 194.812,43.73 C187.712,43.73 184.166,42.523 184.166,40.109 C184.166,39.552 184.277,39.125 184.506,38.821 C184.735,38.524 185.292,38.066 186.177,37.447 C186.963,36.89 187.501,35.392 187.804,32.941 C188.101,30.502 188.25,26.448 188.25,20.796 C188.25,16.358 188.126,13.288 187.879,11.574 C187.798,10.936 187.644,10.466 187.433,10.162 C187.21,9.865 186.808,9.561 186.207,9.252 C184.926,8.59 184.289,7.829 184.289,6.962 C184.289,5.929 184.771,5.093 185.743,4.456 C186.715,3.818 188.572,3.125 191.314,2.382 C195.027,1.348 197.986,0.835 200.195,0.835 C201.39,0.836 201.971,1.349 201.928,2.383 Z" id="Path"></path>
                    <path d="M245.408,12.256 C248.998,12.256 252.043,13.166 254.537,14.98 C255.855,15.952 256.778,17.06 257.31,18.31 C257.83,19.554 258.096,21.275 258.096,23.46 L258.034,28.071 C258.034,31.271 258.263,33.345 258.715,34.292 C258.944,34.744 259.161,35.035 259.365,35.159 C259.57,35.283 260.003,35.394 260.665,35.499 C261.327,35.604 261.655,36.038 261.655,36.799 C261.655,37.789 261.259,38.823 260.467,39.894 C259.669,40.965 258.641,41.863 257.385,42.586 C255.838,43.496 254.216,43.948 252.526,43.948 C250.36,43.948 248.646,43.205 247.389,41.72 C246.955,41.181 246.553,40.915 246.182,40.915 C245.767,40.915 245.223,41.175 244.542,41.689 C242.481,43.193 240.135,43.948 237.517,43.948 C234.812,43.948 232.627,43.373 230.956,42.215 C229.861,41.453 228.994,40.457 228.356,39.232 C227.719,38 227.397,36.719 227.397,35.376 C227.397,33.229 228.263,31.334 229.997,29.682 C232.702,27.082 236.743,25.77 242.128,25.752 C243.322,25.752 244.078,25.634 244.387,25.393 C244.697,25.158 244.851,24.607 244.851,23.741 C244.851,21.556 244.622,19.971 244.17,18.993 C243.718,18.009 242.976,17.52 241.942,17.52 C241.323,17.52 240.772,17.706 240.289,18.077 C239.8,18.448 239.2,19.129 238.476,20.119 C236.638,22.737 234.719,24.05 232.72,24.05 C231.711,24.05 230.882,23.753 230.244,23.153 C229.607,22.552 229.285,21.773 229.285,20.8 C229.285,19.81 229.681,18.82 230.473,17.829 C231.271,16.839 232.348,15.973 233.71,15.23 C237.443,13.246 241.342,12.256 245.408,12.256 Z M243.335,30.175 C242.425,30.175 241.639,30.546 240.971,31.289 C240.296,32.032 239.962,32.917 239.962,33.951 C239.962,34.941 240.197,35.74 240.673,36.347 C241.15,36.96 241.775,37.263 242.561,37.263 C244.214,37.263 245.037,35.87 245.037,33.085 C245.037,31.952 244.919,31.185 244.684,30.794 C244.443,30.404 243.997,30.193 243.335,30.175 Z" id="Shape"></path>
                    <path d="M278.119,12.472 C279.215,12.472 279.877,12.627 280.112,12.936 C280.353,13.245 280.564,14.236 280.749,15.907 C280.854,16.817 281.17,17.269 281.708,17.269 C282.123,17.269 282.513,16.972 282.884,16.372 C284.536,13.791 286.691,12.503 289.352,12.503 C291.228,12.503 292.769,13.11 293.963,14.329 C294.538,14.929 295.015,15.697 295.387,16.638 C295.758,17.573 295.944,18.476 295.944,19.343 C295.944,20.315 295.715,21.305 295.263,22.333 C294.811,23.348 294.223,24.19 293.499,24.853 C292.181,26.109 290.559,26.741 288.64,26.741 C287.588,26.741 286.709,26.555 285.992,26.184 C285.286,25.812 284.351,25.058 283.194,23.925 C282.76,23.492 282.358,23.275 281.987,23.275 C281.412,23.275 281.034,23.597 280.855,24.253 C280.682,24.897 280.595,26.265 280.595,28.35 C280.595,31.463 280.706,33.593 280.935,34.726 C281.078,35.345 281.282,35.772 281.536,36.013 C281.796,36.248 282.347,36.49 283.195,36.737 C285.051,37.294 285.98,38.266 285.98,39.646 C285.98,40.494 285.683,41.23 285.083,41.855 C284.482,42.487 283.69,42.908 282.7,43.112 C280.72,43.527 277.81,43.731 273.973,43.731 C270.321,43.731 267.549,43.409 265.648,42.771 C263.959,42.196 263.11,41.193 263.11,39.769 C263.11,38.698 263.729,37.739 264.967,36.891 C265.567,36.501 265.976,36.142 266.205,35.827 C266.434,35.505 266.589,35.066 266.669,34.509 C266.997,32.634 267.164,29.155 267.164,24.079 C267.164,23.151 267.059,22.482 266.854,22.086 C266.65,21.678 266.235,21.356 265.616,21.108 C264.149,20.532 263.419,19.696 263.419,18.601 C263.419,17.611 263.926,16.763 264.935,16.045 C265.944,15.339 267.64,14.628 270.011,13.928 C273.186,12.98 275.891,12.491 278.119,12.472 Z" id="Path"></path>
                    <path d="M330.234,10.615 C330.748,10.615 331.206,10.906 331.596,11.501 C331.986,12.083 332.184,12.77 332.184,13.556 C332.184,14.404 331.917,15.364 331.398,16.434 C330.866,17.505 330.234,18.365 329.492,19.003 C329.015,19.418 328.78,19.746 328.78,19.993 C328.78,20.055 328.799,20.303 328.842,20.736 C328.904,21.17 328.935,21.559 328.935,21.913 C328.935,24.37 328.112,26.431 326.459,28.102 C324.974,29.588 323.062,30.745 320.715,31.568 C318.376,32.391 315.801,32.806 312.997,32.806 C312.316,32.806 311.647,32.763 310.985,32.682 C310.447,32.62 310.039,32.589 309.748,32.589 C308.652,32.589 308.107,33.134 308.107,34.23 C308.107,34.929 308.46,35.48 309.178,35.889 C309.883,36.285 310.849,36.489 312.068,36.489 C312.891,36.489 314.111,36.378 315.72,36.149 C319.106,35.672 321.6,35.437 323.209,35.437 C325.641,35.437 327.529,35.839 328.872,36.644 C329.942,37.263 330.797,38.129 331.422,39.244 C332.053,40.358 332.369,41.553 332.369,42.834 C332.369,44.92 331.607,46.938 330.079,48.899 C328.266,51.208 325.592,52.922 322.063,54.037 C319.296,54.904 316.103,55.337 312.469,55.337 C307.889,55.337 304.176,54.638 301.328,53.233 C300.01,52.571 298.958,51.704 298.172,50.633 C297.386,49.563 296.996,48.448 296.996,47.291 C296.996,46.487 297.219,45.744 297.664,45.063 C298.103,44.382 298.667,43.899 299.348,43.608 C299.967,43.36 300.277,43.094 300.277,42.803 C300.277,42.574 300.017,42.246 299.503,41.813 C297.851,40.433 297.027,38.997 297.027,37.511 C297.027,36.521 297.423,35.499 298.222,34.447 C299.014,33.395 299.997,32.578 301.174,32.002 C301.669,31.754 301.916,31.507 301.916,31.259 C301.916,30.968 301.606,30.535 300.988,29.959 C298.865,27.997 297.8,25.707 297.8,23.089 C297.8,21.708 298.177,20.384 298.926,19.127 C299.681,17.871 300.727,16.794 302.071,15.909 C305.394,13.742 309.077,12.659 313.119,12.659 C314.728,12.659 316.523,12.863 318.504,13.278 C320.379,13.649 321.673,13.835 322.372,13.835 C324.619,13.835 326.859,12.95 329.088,11.173 C329.584,10.801 329.968,10.615 330.234,10.615 Z M306.683,45.185 C306.169,45.185 305.91,45.482 305.91,46.082 C305.91,47.301 306.572,48.285 307.89,49.034 C309.208,49.789 310.923,50.167 313.028,50.167 C315.051,50.167 316.63,49.901 317.781,49.362 C318.92,48.823 319.496,48.074 319.496,47.103 C319.496,46.589 319.279,46.15 318.846,45.791 C318.413,45.426 317.874,45.246 317.238,45.246 C316.91,45.246 316.433,45.289 315.814,45.37 C314.657,45.556 313.369,45.648 311.946,45.648 C310.893,45.648 309.884,45.599 308.913,45.494 C308.189,45.432 307.6,45.351 307.149,45.246 C306.944,45.203 306.788,45.185 306.683,45.185 Z M313.43,17.022 C312.396,17.022 311.567,17.412 310.936,18.198 C310.31,18.984 309.995,20.024 309.995,21.323 C309.995,23.552 310.336,25.334 311.016,26.677 C311.696,28.02 312.594,28.689 313.708,28.689 C314.804,28.689 315.67,28.274 316.308,27.432 C316.946,26.603 317.267,25.482 317.267,24.078 C317.267,21.868 316.933,20.154 316.258,18.928 C315.59,17.696 314.649,17.065 313.43,17.022 Z" id="Shape"></path>
                    <path d="M351.185,14.422 L351.185,32.403 C351.185,33.827 351.315,34.866 351.575,35.528 C351.829,36.191 352.348,36.797 353.135,37.354 C353.773,37.806 354.2,38.196 354.423,38.511 C354.633,38.833 354.744,39.241 354.744,39.737 C354.744,42.399 351.371,43.73 344.625,43.73 C340.991,43.73 338.113,43.439 335.99,42.863 C335.266,42.659 334.684,42.294 334.245,41.78 C333.8,41.266 333.577,40.678 333.577,40.016 C333.577,39.459 333.688,39.026 333.917,38.716 C334.146,38.407 334.722,37.912 335.65,37.231 C336.288,36.754 336.746,35.981 337.011,34.91 C337.278,33.839 337.413,32.236 337.413,30.113 C337.413,29.432 337.363,28.157 337.277,26.294 C337.177,24.425 337.116,23.336 337.073,23.026 C336.949,22.178 336.373,21.528 335.34,21.076 C334.059,20.518 333.421,19.696 333.421,18.6 C333.421,17.3 334.257,16.329 335.928,15.691 C338.237,14.806 340.712,14.051 343.356,13.432 C345.999,12.813 348.041,12.503 349.483,12.503 C350.616,12.503 351.185,13.141 351.185,14.422 Z M345.057,0.867 C346.852,0.867 348.276,1.201 349.328,1.869 C350.38,2.544 350.906,3.448 350.906,4.58 C350.906,6.171 350.114,7.427 348.523,8.355 C346.003,9.822 342.964,10.553 339.393,10.553 C337.889,10.553 336.689,10.262 335.803,9.686 C334.609,8.943 334.008,7.91 334.008,6.591 C334.008,4.815 335.278,3.422 337.815,2.413 C340.397,1.381 342.811,0.867 345.057,0.867 Z" id="Shape"></path>
                    <path d="M394.108,23.707 L394.542,34.601 C394.585,35.424 394.716,36.037 394.926,36.427 C395.149,36.817 395.78,37.572 396.832,38.686 C397.142,39.014 397.296,39.478 397.296,40.079 C397.296,41.441 396.48,42.388 394.852,42.927 C393.224,43.466 390.315,43.732 386.124,43.732 C383.277,43.732 381.266,43.484 380.09,42.989 C378.87,42.475 378.264,41.639 378.264,40.482 C378.264,40.067 378.327,39.764 378.45,39.566 C378.574,39.374 378.989,38.891 379.688,38.13 C380.511,37.264 380.926,34.373 380.926,29.464 C380.926,26.617 380.598,24.512 379.936,23.151 C379.397,22.055 378.407,21.511 376.964,21.511 C375.584,21.511 374.631,21.956 374.117,22.842 C373.603,23.728 373.344,25.336 373.344,27.67 L373.344,33.798 C373.344,35.017 373.424,35.853 373.573,36.305 C373.734,36.757 374.242,37.636 375.108,38.935 C375.337,39.307 375.449,39.727 375.449,40.204 C375.449,41.423 374.6,42.321 372.911,42.897 C371.222,43.472 368.578,43.763 364.988,43.763 C359.251,43.763 356.385,42.574 356.385,40.204 C356.385,39.709 356.472,39.331 356.651,39.071 C356.825,38.817 357.239,38.452 357.902,37.975 C358.44,37.585 358.781,37.133 358.923,36.632 C359.066,36.124 359.202,34.88 359.325,32.9 C359.468,30.547 359.542,28.084 359.542,25.504 C359.542,24.08 359.437,23.146 359.214,22.706 C359.004,22.26 358.379,21.716 357.345,21.078 C356.46,20.52 356.015,19.84 356.015,19.035 C356.015,18.212 356.373,17.531 357.098,17.011 C357.822,16.479 359.307,15.817 361.554,15.012 C363.534,14.313 365.441,13.719 367.28,13.236 C369.118,12.747 370.374,12.506 371.055,12.506 C371.673,12.506 372.194,12.735 372.62,13.187 C373.041,13.639 373.252,14.177 373.252,14.796 C373.252,14.858 373.239,15.118 373.221,15.57 C373.202,15.737 373.19,15.88 373.19,16.003 C373.19,16.993 373.605,17.488 374.428,17.488 C374.923,17.488 375.449,17.098 376.006,16.312 C377.782,13.756 380.358,12.475 383.742,12.475 C386.342,12.475 388.57,13.156 390.427,14.517 C391.727,15.489 392.637,16.628 393.151,17.94 C393.662,19.243 393.985,21.169 394.108,23.707 Z" id="Path"></path>
                    <path d="M431.987,10.615 C432.501,10.615 432.959,10.906 433.349,11.501 C433.739,12.083 433.937,12.77 433.937,13.556 C433.937,14.404 433.67,15.364 433.151,16.434 C432.619,17.505 431.987,18.365 431.245,19.003 C430.768,19.418 430.533,19.746 430.533,19.993 C430.533,20.055 430.552,20.303 430.595,20.736 C430.658,21.17 430.688,21.559 430.688,21.913 C430.688,24.37 429.865,26.431 428.212,28.102 C426.727,29.588 424.815,30.745 422.469,31.568 C420.129,32.391 417.554,32.806 414.75,32.806 C414.069,32.806 413.401,32.763 412.739,32.682 C412.2,32.62 411.792,32.589 411.501,32.589 C410.405,32.589 409.86,33.134 409.86,34.23 C409.86,34.929 410.214,35.48 410.931,35.889 C411.636,36.285 412.602,36.489 413.822,36.489 C414.645,36.489 415.864,36.378 417.473,36.149 C420.859,35.672 423.353,35.437 424.962,35.437 C427.395,35.437 429.282,35.839 430.625,36.644 C431.695,37.263 432.55,38.129 433.175,39.244 C433.807,40.358 434.122,41.553 434.122,42.834 C434.122,44.92 433.36,46.938 431.832,48.899 C430.019,51.208 427.345,52.922 423.816,54.037 C421.049,54.904 417.856,55.337 414.223,55.337 C409.642,55.337 405.929,54.638 403.081,53.233 C401.763,52.571 400.711,51.704 399.925,50.633 C399.139,49.563 398.749,48.448 398.749,47.291 C398.749,46.487 398.972,45.744 399.417,45.063 C399.856,44.382 400.42,43.899 401.101,43.608 C401.72,43.36 402.03,43.094 402.03,42.803 C402.03,42.574 401.77,42.246 401.257,41.813 C399.604,40.433 398.781,38.997 398.781,37.511 C398.781,36.521 399.177,35.499 399.975,34.447 C400.767,33.395 401.751,32.578 402.927,32.002 C403.422,31.754 403.669,31.507 403.669,31.259 C403.669,30.968 403.36,30.535 402.741,29.959 C400.618,27.997 399.553,25.707 399.553,23.089 C399.553,21.708 399.93,20.384 400.679,19.127 C401.434,17.871 402.481,16.794 403.824,15.909 C407.147,13.742 410.83,12.659 414.872,12.659 C416.481,12.659 418.276,12.863 420.257,13.278 C422.132,13.649 423.426,13.835 424.125,13.835 C426.372,13.835 428.612,12.95 430.841,11.173 C431.337,10.801 431.721,10.615 431.987,10.615 Z M408.437,45.185 C407.923,45.185 407.663,45.482 407.663,46.082 C407.663,47.301 408.326,48.285 409.643,49.034 C410.961,49.789 412.676,50.167 414.781,50.167 C416.805,50.167 418.384,49.901 419.534,49.362 C420.674,48.823 421.249,48.074 421.249,47.103 C421.249,46.589 421.032,46.15 420.6,45.791 C420.166,45.426 419.628,45.246 418.991,45.246 C418.663,45.246 418.186,45.289 417.567,45.37 C416.41,45.556 415.123,45.648 413.699,45.648 C412.646,45.648 411.637,45.599 410.666,45.494 C409.942,45.432 409.354,45.351 408.902,45.246 C408.697,45.203 408.541,45.185 408.437,45.185 Z M415.183,17.022 C414.149,17.022 413.32,17.412 412.689,18.198 C412.064,18.984 411.748,20.024 411.748,21.323 C411.748,23.552 412.089,25.334 412.769,26.677 C413.449,28.02 414.347,28.689 415.461,28.689 C416.557,28.689 417.423,28.274 418.061,27.432 C418.699,26.603 419.02,25.482 419.02,24.078 C419.02,21.868 418.686,20.154 418.011,18.928 C417.343,17.696 416.403,17.065 415.183,17.022 Z" id="Shape"></path>
                    <path d="M445.901,36.835 C446.873,36.835 447.709,37.175 448.401,37.85 C449.101,38.524 449.448,39.348 449.448,40.319 C449.448,41.297 449.101,42.139 448.401,42.857 C447.709,43.575 446.873,43.934 445.901,43.934 C444.929,43.934 444.093,43.575 443.394,42.857 C442.701,42.139 442.354,41.297 442.354,40.319 C442.354,39.347 442.701,38.524 443.394,37.85 C444.093,37.175 444.929,36.835 445.901,36.835 Z" id="Path"></path>
                    <path d="M486.082,43.111 L481.013,43.111 L481.013,38.988 L480.889,38.988 C478.265,42.287 474.842,43.934 470.621,43.934 C468.424,43.934 466.443,43.501 464.691,42.634 C462.939,41.768 461.435,40.616 460.191,39.18 C458.947,37.744 457.994,36.085 457.337,34.204 C456.682,32.329 456.359,30.348 456.359,28.28 C456.359,26.17 456.681,24.152 457.337,22.227 C457.993,20.302 458.935,18.624 460.159,17.188 C461.385,15.752 462.883,14.613 464.659,13.765 C466.435,12.917 468.441,12.496 470.681,12.496 C472.711,12.496 474.612,12.941 476.381,13.827 C478.157,14.712 479.655,15.962 480.887,17.565 L481.011,17.565 L481.011,13.319 L486.08,13.319 L486.08,43.111 L486.082,43.111 Z M471.252,17.189 C469.773,17.189 468.442,17.486 467.26,18.074 C466.078,18.668 465.063,19.46 464.215,20.45 C463.373,21.447 462.717,22.586 462.253,23.873 C461.788,25.16 461.554,26.503 461.554,27.896 C461.554,29.375 461.764,30.792 462.191,32.143 C462.612,33.498 463.237,34.706 464.06,35.757 C464.883,36.816 465.899,37.657 467.099,38.295 C468.306,38.926 469.711,39.242 471.314,39.242 C472.967,39.242 474.403,38.939 475.628,38.326 C476.853,37.713 477.887,36.89 478.729,35.856 C479.578,34.816 480.208,33.628 480.635,32.273 C481.056,30.923 481.267,29.481 481.267,27.965 C481.267,26.486 481.032,25.087 480.568,23.781 C480.103,22.468 479.447,21.33 478.606,20.358 C477.757,19.386 476.711,18.612 475.467,18.043 C474.223,17.474 472.819,17.189 471.252,17.189 Z" id="Shape"></path>
                    <path d="M500.274,17.566 L500.405,17.566 C501.63,15.92 503.128,14.663 504.904,13.797 C506.68,12.93 508.599,12.497 510.673,12.497 C512.87,12.497 514.845,12.93 516.597,13.797 C518.348,14.663 519.84,15.827 521.066,17.281 C522.291,18.742 523.244,20.419 523.919,22.32 C524.594,24.221 524.935,26.207 524.935,28.28 C524.935,30.39 524.607,32.396 523.951,34.303 C523.295,36.203 522.354,37.874 521.129,39.31 C519.903,40.746 518.405,41.873 516.629,42.696 C514.859,43.526 512.848,43.934 510.613,43.934 C508.583,43.934 506.682,43.501 504.906,42.634 C503.13,41.768 501.632,40.535 500.407,38.926 L500.276,38.926 L500.276,59.841 L495.208,59.841 L495.208,13.32 L500.276,13.32 L500.276,17.566 L500.274,17.566 Z M509.719,17.189 C508.24,17.189 506.909,17.486 505.727,18.074 C504.545,18.668 503.53,19.46 502.688,20.45 C501.84,21.447 501.184,22.586 500.72,23.873 C500.256,25.16 500.027,26.503 500.027,27.896 C500.027,29.375 500.237,30.792 500.658,32.143 C501.079,33.498 501.705,34.706 502.528,35.757 C503.35,36.816 504.366,37.657 505.573,38.295 C506.773,38.926 508.178,39.242 509.782,39.242 C511.434,39.242 512.87,38.939 514.095,38.326 C515.32,37.713 516.354,36.89 517.202,35.856 C518.044,34.816 518.675,33.628 519.101,32.273 C519.522,30.923 519.733,29.481 519.733,27.965 C519.733,26.486 519.504,25.087 519.04,23.781 C518.569,22.468 517.92,21.33 517.072,20.358 C516.223,19.386 515.177,18.612 513.933,18.043 C512.689,17.474 511.285,17.189 509.719,17.189 Z" id="Shape"></path>
                    <path d="M536.847,17.566 L536.977,17.566 C538.203,15.92 539.701,14.663 541.477,13.797 C543.253,12.93 545.172,12.497 547.246,12.497 C549.443,12.497 551.418,12.93 553.169,13.797 C554.921,14.663 556.412,15.827 557.638,17.281 C558.864,18.742 559.817,20.419 560.492,22.32 C561.167,24.221 561.507,26.207 561.507,28.28 C561.507,30.39 561.18,32.396 560.524,34.303 C559.868,36.203 558.926,37.874 557.702,39.31 C556.476,40.746 554.978,41.873 553.202,42.696 C551.431,43.526 549.421,43.934 547.186,43.934 C545.156,43.934 543.255,43.501 541.479,42.634 C539.703,41.768 538.205,40.535 536.979,38.926 L536.849,38.926 L536.849,59.841 L531.78,59.841 L531.78,13.32 L536.849,13.32 L536.849,17.566 L536.847,17.566 Z M546.292,17.189 C544.813,17.189 543.481,17.486 542.3,18.074 C541.117,18.668 540.103,19.46 539.261,20.45 C538.413,21.447 537.757,22.586 537.293,23.873 C536.828,25.16 536.6,26.503 536.6,27.896 C536.6,29.375 536.81,30.792 537.231,32.143 C537.652,33.498 538.277,34.706 539.1,35.757 C539.923,36.816 540.939,37.657 542.145,38.295 C543.346,38.926 544.751,39.242 546.354,39.242 C548.006,39.242 549.443,38.939 550.668,38.326 C551.893,37.713 552.927,36.89 553.774,35.856 C554.616,34.816 555.248,33.628 555.674,32.273 C556.095,30.923 556.306,29.481 556.306,27.965 C556.306,26.486 556.077,25.087 555.613,23.781 C555.142,22.468 554.493,21.33 553.644,20.358 C552.796,19.386 551.75,18.612 550.506,18.043 C549.262,17.474 547.858,17.189 546.292,17.189 Z" id="Shape"></path>
                </g>
                <g transform="translate(106.229000, 124.227000)">
                    <path d="M3.175,28.621 L0,28.621 L0,1.263 L4.822,1.263 C5.131,1.263 5.435,1.263 5.744,1.263 C8.536,1.263 10.788,1.349 12.627,2.649 C14.348,3.875 15.419,6.128 15.419,8.802 C15.419,11.488 14.348,13.741 12.627,14.967 C10.789,16.267 8.567,16.341 5.744,16.341 C5.435,16.341 5.131,16.341 4.822,16.341 L3.176,16.341 L3.176,28.621 L3.175,28.621 Z M4.821,13.394 C9.525,13.394 11.895,12.788 11.895,8.999 C11.895,5.013 9.562,4.246 4.821,4.246 L3.175,4.246 L3.175,13.394 L4.821,13.394 L4.821,13.394 Z" id="Shape"></path>
                    <g transform="translate(277.686000, 0.000000)" id="Shape">
                        <path d="M6.832,12.156 L5.465,12.156 L5.465,3.194 L7.495,3.194 C8.46,3.194 9.178,3.268 9.729,3.69 C10.267,4.123 10.595,4.816 10.595,5.658 C10.595,7.106 9.896,7.911 8.54,8.084 L11.622,12.157 L9.981,12.157 L6.998,8.146 L6.831,8.146 L6.831,12.156 L6.832,12.156 Z M7.185,7.019 C8.459,7.019 9.103,6.858 9.103,5.781 C9.103,4.679 8.485,4.444 7.185,4.444 L6.918,4.444 L6.918,7.019 L7.185,7.019 Z"></path>
                        <path d="M13.418,2.315 C14.885,3.788 15.671,5.756 15.671,7.861 C15.671,10.003 14.885,11.922 13.394,13.37 C11.84,14.88 9.878,15.722 7.823,15.722 C5.744,15.722 3.801,14.88 2.29,13.37 C0.811,11.885 0,9.941 0,7.861 C0,5.781 0.823,3.788 2.358,2.253 C3.8,0.78 5.701,0 7.823,0 C9.964,0 11.907,0.804 13.418,2.315 Z M12.762,2.97 C11.431,1.646 9.723,0.94 7.823,0.94 C5.967,0.94 4.283,1.621 3.014,2.908 C1.659,4.269 0.94,6.015 0.94,7.86 C0.94,9.668 1.658,11.376 2.97,12.713 C4.282,14.05 6.009,14.755 7.798,14.755 C9.654,14.755 11.382,14.05 12.743,12.713 C14.03,11.45 14.749,9.767 14.749,7.898 C14.749,6.016 14.055,4.27 12.762,2.97 Z"></path>
                    </g>
                    <path d="M32.679,29.153 L29.956,29.153 L29.956,26.17 C28.631,28.559 26.527,29.859 23.99,29.859 C19.267,29.859 16.098,26.356 16.098,20.971 C16.098,15.45 19.23,12.095 23.841,12.095 C26.602,12.095 28.632,13.345 29.882,15.784 L29.882,12.689 L32.679,12.689 L32.679,29.153 L32.679,29.153 Z M24.46,14.904 C21.074,14.904 19.087,17.071 19.087,20.821 C19.087,24.795 21.074,27.048 24.571,27.048 C27.888,27.048 29.956,24.882 29.956,21.081 C29.956,17.257 27.629,14.904 24.46,14.904 Z" id="Shape"></path>
                    <path d="M38.367,12.688 L40.873,12.688 L40.873,16.105 C42.34,13.307 43.894,12.131 46.394,12.131 C47.062,12.131 47.687,12.243 48.313,12.465 L47.347,15.015 C46.728,14.792 46.134,14.669 45.62,14.669 C42.637,14.669 41.163,16.798 41.163,21.118 L41.163,29.152 L38.366,29.152 L38.366,12.688 L38.367,12.688 Z" id="Path"></path>
                    <polygon id="Path" points="48.691 15.015 48.691 12.688 51.705 12.688 51.705 6.053 54.589 6.053 54.589 12.688 57.603 12.688 57.603 15.015 54.589 15.015 54.589 29.153 51.705 29.153 51.705 15.015"></polygon>
                    <path d="M72.972,14.67 C74.674,12.986 76.884,12.094 79.316,12.094 C81.748,12.094 83.921,13.01 85.654,14.707 C87.343,16.366 88.266,18.582 88.266,20.971 C88.266,23.372 87.344,25.539 85.654,27.198 C83.921,28.894 81.711,29.86 79.316,29.86 C76.883,29.86 74.674,28.932 72.972,27.236 C71.245,25.515 70.3669991,23.373 70.3669991,20.972 C70.366,18.581 71.245,16.365 72.972,14.67 Z M79.316,27.197 C82.59,27.197 85.245,24.473 85.245,20.97 C85.245,17.479 82.59,14.755 79.316,14.755 C75.999,14.755 73.349,17.479 73.349,20.97 C73.349,24.473 76.036,27.197 79.316,27.197 Z" id="Shape"></path>
                    <path d="M93.397,15.015 L90.234,15.015 L90.234,12.688 L93.397,12.688 L93.397,7.935 C93.397,2.996 94.214,0.928 98.15,0.928 C98.998,0.928 99.815,1.039 100.583,1.3 L100.583,4.209 C99.846,3.801 99.11,3.627 98.374,3.627 C96.27,3.627 96.201,5.126 96.201,8.307 L96.201,12.689 L100.583,12.689 L100.583,15.016 L96.269,15.016 L96.269,29.154 L93.397,29.154 L93.397,15.015 L93.397,15.015 Z" id="Path"></path>
                    <polygon id="Path" points="111.612 15.015 111.612 12.688 114.633 12.688 114.633 6.053 117.511 6.053 117.511 12.688 120.525 12.688 120.525 15.015 117.511 15.015 117.511 29.153 114.633 29.153 114.633 15.015"></polygon>
                    <path d="M123.737,1.262 L126.497,1.262 L126.497,15.226 C127.939,13.097 129.926,12.094 132.507,12.094 C136.338,12.094 138.696,14.236 138.696,17.962 L138.696,29.153 L135.824,29.153 L135.824,19.472 C135.824,16.142 134.456,14.52 131.51,14.52 C129.851,14.52 128.415,15.152 127.493,16.303 C126.534,17.479 126.534,18.841 126.534,20.648 L126.534,29.153 L123.736,29.153 L123.736,1.262 L123.737,1.262 Z" id="Path"></path>
                    <path d="M145.926,21.342 C145.926,21.416 145.926,21.528 145.926,21.602 C145.926,25.167 148.21,27.495 151.379,27.495 C153.589,27.495 155.359,26.319 156.72,23.917 L158.856,25.353 C157.203,28.349 154.622,29.859 151.231,29.859 C146.218,29.859 142.838,26.244 142.838,20.859 C142.838,15.672 146.26,12.057 151.051,12.057 C155.873,12.057 158.968,15.338 158.968,20.785 C158.968,20.971 158.968,21.157 158.968,21.342 L145.926,21.342 Z M150.933,14.52 C148.246,14.52 146.217,16.266 145.926,19.051 L155.947,19.051 C155.761,16.142 153.923,14.52 150.933,14.52 Z" id="Shape"></path>
                    <path d="M182.889,18.989 C182.4,18.989 181.694,18.853 181.694,19.596 C181.694,21.812 184.566,23.668 186.646,23.668 C189.963,23.668 191.598,21.688 192.526,21.688 C193.455,21.688 194.247,23.05 194.247,23.891 C194.247,27.296 188.02,29.771 184.041,29.771 C176.081,29.771 171.972,24.015 171.972,18.32 C171.972,11.511 177.759,6.548 184.394,6.548 C191.908,6.548 195.226,12.354 195.226,15.672 C195.226,18.581 193.901,18.989 192.484,18.989 L182.889,18.989 L182.889,18.989 Z M186.733,13.406 C186.733,11.834 185.761,10.584 184.127,10.584 C182.672,10.584 181.472,12.094 181.472,13.505 C181.472,15.09 182.982,14.744 184.127,14.744 C185.321,14.744 186.733,15.015 186.733,13.406 Z" id="Shape"></path>
                    <path d="M218.936,18.581 C218.936,26.368 221.585,22.121 221.585,24.51 C221.585,27.023 218.138,29.771 214.913,29.771 C211.416,29.771 211.33,27.518 210.228,27.518 C209.164,27.518 207.839,29.771 203.816,29.771 C200.146,29.771 196.475,27.828 196.475,23.458 C196.475,20.314 199.483,16.427 207.263,16.427 C208.631,16.427 209.25,16.513 209.25,14.916 C209.25,13.455 209.207,10.41 207.177,10.41 C204.522,10.41 204.261,15.176 200.325,15.176 C198.908,15.176 197.843,14.161 197.843,12.749 C197.843,8.986 205.32,6.547 209.522,6.547 C212.035,6.547 218.936,7.537 218.936,14.16 L218.936,18.581 Z M205.672,22.468 C205.672,23.632 206.291,24.87 207.572,24.87 C209.249,24.87 209.385,23.05 209.385,21.725 C209.385,20.747 209.428,19.645 208.191,19.645 C206.687,19.646 205.672,21.069 205.672,22.468 Z" id="Shape"></path>
                    <path d="M236.811,7.13 C237.646,7.13 238.358,6.548 239.194,6.548 C241.23,6.548 243.266,10.621 243.266,12.44 C243.266,13.641 242.251,14.52 241.094,14.52 C238.575,14.52 237.164,11.029 235.22,11.029 C234.422,11.029 233.623,11.685 233.623,12.527 C233.623,15.362 243.352,15.882 243.352,22.74 C243.352,26.9 239.329,29.771 234.73,29.771 C232.917,29.771 229.649,29.202 229.117,29.202 C228.498,29.202 227.966,29.375 227.396,29.375 C226.511,29.375 226.065,29.239 225.446,28.533 C224.338,27.295 223.237,24.769 223.237,23.086 C223.237,21.947 223.633,21.019 224.914,21.019 C226.857,21.019 228.627,25.389 231.103,25.389 C231.988,25.389 232.83,24.944 232.83,23.978 C232.83,21.366 224.165,21.069 224.165,13.765 C224.165,9.346 227.792,6.548 232.341,6.548 C234.069,6.549 236.142,7.13 236.811,7.13 Z" id="Path"></path>
                    <path d="M264.056,25.439 C261.89,31.319 259.061,37.076 251.857,37.076 C248.669,37.076 244.913,35.43 244.913,31.765 C244.913,29.562 246.59,27.693 248.85,27.693 C252.96,27.693 251.808,32.384 253.628,32.384 C254.816,32.384 255.349,31.233 255.349,30.217 C255.349,28.979 254.457,27.296 253.938,26.182 L247.742,13.233 C246.9,11.463 244.381,11.995 244.381,9.977 C244.381,8.64 245.179,6.697 254.507,6.697 C256.191,6.697 260.17,6.87 260.17,9.396 C260.17,10.584 259.149,10.931 259.149,11.996 C259.149,13.679 261.092,16.774 261.847,16.774 C263.172,16.774 264.1,13.729 264.1,12.664 C264.1,10.671 262.689,10.807 262.689,9.309 C262.689,6.957 266.842,6.697 268.433,6.697 C269.894,6.697 273.168,6.92 273.168,8.95 C273.168,11.55 270.513,10.411 268.965,13.01 C267.993,14.557 267.282,16.514 266.669,18.235 L264.056,25.439 Z" id="Path"></path>
                    <path d="M304.54,15.015 L301.372,15.015 L301.372,12.688 L304.54,12.688 L304.54,7.935 C304.54,2.996 305.345,0.928 309.294,0.928 C310.136,0.928 310.953,1.039 311.727,1.3 L311.727,4.209 C310.984,3.801 310.253,3.627 309.505,3.627 C307.412,3.627 307.338,5.126 307.338,8.307 L307.338,12.689 L311.727,12.689 L311.727,15.016 L307.413,15.016 L307.413,29.154 L304.541,29.154 L304.541,15.015 L304.54,15.015 Z" id="Path"></path>
                    <path d="M329.781,29.153 L327.052,29.153 L327.052,26.17 C325.728,28.559 323.63,29.859 321.092,29.859 C316.369,29.859 313.207,26.356 313.207,20.971 C313.207,15.45 316.339,12.095 320.943,12.095 C323.704,12.095 325.727,13.345 326.984,15.784 L326.984,12.689 L329.781,12.689 L329.781,29.153 L329.781,29.153 Z M321.573,14.904 C318.176,14.904 316.195,17.071 316.195,20.821 C316.195,24.795 318.175,27.048 321.673,27.048 C324.996,27.048 327.051,24.882 327.051,21.081 C327.051,17.257 324.737,14.904 321.573,14.904 Z" id="Shape"></path>
                    <path d="M358.345,19.472 C358.345,16.142 357.058,14.52 354.254,14.52 C352.749,14.52 351.419,15.152 350.54,16.303 C349.648,17.429 349.611,18.803 349.611,20.648 L349.611,29.153 L346.887,29.153 L346.887,19.472 C346.887,16.142 345.6,14.52 342.802,14.52 C341.286,14.52 339.931,15.152 339.039,16.303 C338.154,17.429 338.154,18.803 338.154,20.648 L338.154,29.153 L335.43,29.153 L335.43,12.688 L338.191,12.688 L338.191,15.226 C339.558,13.134 341.434,12.094 343.904,12.094 C346.552,12.094 348.471,13.233 349.43,15.449 C350.867,13.158 352.779,12.094 355.285,12.094 C358.936,12.094 361.146,14.236 361.146,17.962 L361.146,29.153 L358.342,29.153 L358.342,19.472 L358.345,19.472 Z" id="Path"></path>
                    <path d="M368.236,2.698 C369.381,2.698 370.297,3.664 370.297,4.803 C370.297,5.942 369.381,6.833 368.236,6.833 C367.09,6.833 366.174,5.942 366.174,4.766 C366.174,3.627 367.09,2.698 368.236,2.698 Z M366.83,12.688 L369.671,12.688 L369.671,29.153 L366.83,29.153 L366.83,12.688 Z" id="Shape"></path>
                    <polygon id="Path" points="375.755 1.262 378.627 1.262 378.627 29.153 375.755 29.153"></polygon>
                    <polygon id="Path" points="388.326 27.531 381.877 12.688 385.12 12.688 389.904 24.51 394.992 12.688 398.093 12.688 387.038 37.187 383.87 37.187"></polygon>
                    <path d="M412.916,14.67 C414.612,12.986 416.821,12.094 419.248,12.094 C421.681,12.094 423.852,13.01 425.586,14.707 C427.288,16.366 428.198,18.582 428.198,20.971 C428.198,23.372 427.288,25.539 425.586,27.198 C423.853,28.894 421.644,29.86 419.248,29.86 C416.821,29.86 414.612,28.932 412.916,27.236 C411.189,25.515 410.292,23.373 410.292,20.972 C410.292,18.581 411.19,16.365 412.916,14.67 Z M419.248,27.197 C422.528,27.197 425.178,24.473 425.178,20.97 C425.178,17.479 422.529,14.755 419.248,14.755 C415.936,14.755 413.288,17.479 413.288,20.97 C413.288,24.473 415.974,27.197 419.248,27.197 Z" id="Shape"></path>
                    <path d="M433.335,15.015 L430.172,15.015 L430.172,12.688 L433.335,12.688 L433.335,7.935 C433.335,2.996 434.146,0.928 438.089,0.928 C438.937,0.928 439.741,1.039 440.521,1.3 L440.521,4.209 C439.779,3.801 439.048,3.627 438.305,3.627 C436.207,3.627 436.139,5.126 436.139,8.307 L436.139,12.689 L440.521,12.689 L440.521,15.016 L436.208,15.016 L436.208,29.154 L433.336,29.154 L433.336,15.015 L433.335,15.015 Z" id="Path"></path>
                    <path d="M456.929,1.262 L456.929,15.783 C458.179,13.344 460.203,12.094 462.933,12.094 C467.537,12.094 470.701,15.449 470.701,20.97 C470.701,26.355 467.538,29.858 462.828,29.858 C460.278,29.858 458.105,28.533 456.818,26.169 L456.818,29.152 L454.126,29.152 L454.126,1.261 L456.929,1.261 L456.929,1.262 Z M462.345,27.123 C465.619,27.123 467.73,24.77 467.73,20.648 C467.73,16.997 465.7,14.904 462.419,14.904 C459.102,14.904 456.817,17.294 456.817,21.008 C456.818,24.92 458.953,27.123 462.345,27.123 Z" id="Shape"></path>
                    <path d="M475.243,12.688 L477.75,12.688 L477.75,16.105 C479.235,13.307 480.771,12.131 483.283,12.131 C483.945,12.131 484.577,12.243 485.195,12.465 L484.23,15.015 C483.611,14.792 483.023,14.669 482.497,14.669 C479.52,14.669 478.053,16.798 478.053,21.118 L478.053,29.152 L475.243,29.152 L475.243,12.688 L475.243,12.688 Z" id="Path"></path>
                    <path d="M503.473,29.153 L500.744,29.153 L500.744,26.17 C499.426,28.559 497.321,29.859 494.784,29.859 C490.061,29.859 486.892,26.356 486.892,20.971 C486.892,15.45 490.037,12.095 494.628,12.095 C497.395,12.095 499.425,13.345 500.669,15.784 L500.669,12.689 L503.473,12.689 L503.473,29.153 L503.473,29.153 Z M495.26,14.904 C491.868,14.904 489.881,17.071 489.881,20.834 C489.881,24.795 491.868,27.048 495.371,27.048 C498.688,27.048 500.743,24.882 500.743,21.081 C500.743,17.257 498.429,14.904 495.26,14.904 Z" id="Shape"></path>
                    <path d="M509.124,12.688 L511.884,12.688 L511.884,15.226 C513.321,13.097 515.314,12.094 517.888,12.094 C521.719,12.094 524.077,14.236 524.077,17.962 L524.077,29.153 L521.212,29.153 L521.212,19.472 C521.212,16.142 519.844,14.52 516.892,14.52 C515.24,14.52 513.803,15.152 512.874,16.303 C511.921,17.479 511.921,18.841 511.921,20.648 L511.921,29.153 L509.124,29.153 L509.124,12.688 L509.124,12.688 Z" id="Path"></path>
                    <path d="M544.986,29.153 L542.257,29.153 L542.257,26.17 C540.963,28.534 538.84,29.859 536.29,29.859 C531.567,29.859 528.404,26.356 528.404,20.971 C528.404,15.45 531.567,12.095 536.178,12.095 C538.901,12.095 540.925,13.345 542.181,15.784 L542.181,1.263 L544.986,1.263 L544.986,29.153 Z M536.692,14.904 C533.412,14.904 531.387,16.997 531.387,20.648 C531.387,24.77 533.449,27.123 536.735,27.123 C540.121,27.123 542.256,24.92 542.256,21.008 C542.256,17.294 540.009,14.904 536.692,14.904 Z" id="Shape"></path>
                    <path d="M551.409,24.77 C552.332,26.541 553.724,27.383 555.599,27.383 C557.481,27.383 558.7,26.356 558.7,24.92 C558.7,23.669 557.852,23.001 556.119,22.419 C552.065,21.008 549.633,20.315 549.633,17.071 C549.633,14.199 551.967,12.094 555.464,12.094 C558.298,12.094 560.434,13.282 561.325,15.375 L559.035,16.773 C558.366,15.263 557.005,14.421 555.271,14.421 C553.619,14.421 552.467,15.449 552.467,16.885 C552.467,18.618 553.977,18.841 556.713,19.719 C559.913,20.746 561.497,21.935 561.497,24.621 C561.497,27.679 559.145,29.858 555.493,29.858 C552.43,29.858 550.295,28.707 549.007,26.392 L551.409,24.77 Z" id="Path"></path>
                </g>
                <path d="M667.659,-2.13162821e-14 L106.16,-2.13162821e-14 C47.528,-2.13162821e-14 0,47.531 0,106.165 C0,164.8 47.528,212.33 106.16,212.33 L352.422,212.33 C354.056,225.149 365.506,230.429 379.556,230.466 C379.562,230.466 379.568,230.472 379.575,230.472 C379.582,230.472 379.581,230.466 379.587,230.466 C379.63,230.466 379.668,230.472 379.705,230.472 C379.705,230.453 379.705,230.441 379.705,230.416 C380.67,230.342 381.451,229.587 381.451,228.597 L381.451,222.42 L395.538,222.42 C397.29,222.42 398.707,221.002 398.707,219.251 C398.707,217.5 397.29,216.082 395.538,216.082 L381.451,216.082 L381.451,202.347 L395.538,202.347 C397.29,202.347 398.707,200.93 398.707,199.178 C398.707,197.427 397.29,196.009 395.538,196.009 L381.451,196.009 L381.451,189.82 C381.451,188.836 380.671,188.074 379.705,188 C379.705,187.981 379.705,187.963 379.705,187.944 C379.668,187.944 379.631,187.95 379.587,187.95 C379.581,187.95 379.581,187.944 379.575,187.944 C379.569,187.944 379.563,187.95 379.556,187.95 C365.531,187.993 354.105,193.224 352.428,205.993 L106.16,205.993 C51.031,205.993 6.338,161.298 6.338,106.166 C6.338,51.034 51.031,6.339 106.16,6.339 L667.659,6.339 C722.788,6.339 767.481,51.034 767.481,106.166 C767.481,161.298 722.788,205.993 667.659,205.993 L412.67,205.993 C410.919,205.993 409.501,207.41 409.501,209.162 C409.501,210.914 410.919,212.331 412.67,212.331 L667.659,212.331 C726.291,212.331 773.819,164.801 773.819,106.166 C773.819,47.531 726.291,-2.13162821e-14 667.659,-2.13162821e-14 Z" id="Path"></path>
            </g>
        </g>
    </g>
</svg>