<svg xmlns="http://www.w3.org/2000/svg" version="1.1" xmlns:xlink="http://www.w3.org/1999/xlink" xmlns:svgjs="http://svgjs.com/svgjs" width="512" height="512" x="0" y="0" viewBox="0 0 283.465 283.465" style="enable-background:new 0 0 512 512" xml:space="preserve" class=""><g><g fill-rule="evenodd" clip-rule="evenodd"><path fill="#ff6600" d="M86.576 255.96s-16.394-6.305-25.851-11.981c-9.457-5.674-8.828-20.176-8.828-26.481 0-6.304 6.77-16.393-7.565-16.393s-13.241-19.545-8.827-23.328c4.413-3.784 12.611-8.198 9.457-15.133-3.152-6.934-10.718-10.719-10.088-24.589.631-13.871 6.936-30.895 6.936-40.352 0-9.458 15.763-35.308 22.697-37.199 7.441-2.03 24.03 2.877 34.054-2.585 8.494-4.629 10.69-19.352 15.124-24.526 11.348-13.238 10.089-8.828 23.96-15.133s12.611-12.769 14.66-11.035c2.048 1.735 8.562 5.474 7.145 7.76-1.038 1.673-10.712 14.773-10.535 15.176.867 1.97 1.184 17.574.001 22.383-2.861 11.641-16.221 18.605-13.554 34.599 2.365 14.187 4.256 21.438 6.62 23.171 2.365 1.734 21.122-5.518 23.33-1.577 2.205 3.94 3.466 7.566 1.418 12.768-2.048 5.201-7.566 12.138-8.512 14.187-.947 2.049-3.784 9.143-11.35 9.459-7.566.315-12.61 5.358-13.241 8.826-.63 3.468.945 17.97-2.837 18.285-3.783.315-7.565 5.674-7.565 7.566 0 1.891-11.665 1.576-10.719 8.512s1.891 9.458 5.359 9.143 22.068-13.871 25.535-5.36c3.468 8.513 12.926 16.08 13.556 20.809.631 4.73.945 14.186-2.207 18.286-3.152 4.098-4.414 7.249-9.142 8.195-4.729.946-10.718-5.99-17.023-9.458-6.305-3.467-8.511-10.718-12.611-13.87-4.098-3.153-12.294-9.772-11.663-5.989.63 3.783-1.891 17.969-4.414 21.752-2.522 3.783 6.62 7.881 10.404 9.142 3.782 1.261 12.135-.472 12.451 3.152.315 3.626 2.207 6.148.474 7.094-1.735.946-21.595-1.261-22.541-.631-.946.629-1.261 5.517-14.108 5.355z" data-original="#43ae57" class=""></path><path fill="#ff6600" d="M86.576 255.959s-16.394-6.305-25.851-11.98c-9.458-5.674-8.827-20.176-8.827-26.481s6.769-16.393-7.565-16.393-13.24-19.546-8.827-23.328c4.413-3.784 12.611-8.198 9.458-15.132-3.152-6.935-10.719-10.719-10.088-24.589.63-13.871 6.936-30.895 6.936-40.352 0-9.458 15.764-35.308 22.698-37.199 7.44-2.029 24.03 2.877 34.053-2.585 8.494-4.63 10.691-19.352 15.125-24.526 11.347-13.238 10.088-8.828 23.96-15.132 12.924-5.875 12.712-11.886 14.28-11.276-.029.039-9.341 12.32-14.751 16.482-5.419 4.168-7.085 7.504-12.087 13.338-5.002 5.835-5.419 4.584-7.503 11.254-2.084 6.669-4.168 12.087-12.504 15.005s-5.835 2.501-12.921 3.751c-7.086 1.251-26.676 7.919-26.676 7.919l-3.334 8.753s3.752 12.922 2.501 16.672c-1.25 3.751-12.089 7.502-14.589 12.087s-.834 12.921.834 16.672c1.667 3.752 1.25 10.836 2.917 22.506 1.667 11.671 5.419 11.253 5.419 16.673 0 5.419-3.334 8.752-5.835 12.921-2.501 4.168 10.837 12.921 13.338 15.839s-.417 13.755-.834 15.839-6.494 2.898-5.835 17.091c.66 14.193 6.669 9.169 8.753 10.42s11.418.918 14.588 8.336c1.414 3.31 4.554 5.657 7.597 7.242-1.285.128-2.75.194-4.43.173z" data-original="#43ae57" class=""></path><path fill="#ff6600" d="M86.576 255.959s-16.394-6.305-25.851-11.98c-9.458-5.674-8.827-20.176-8.827-26.481s6.769-16.393-7.565-16.393-13.24-19.546-8.827-23.328c4.413-3.784 12.611-8.198 9.458-15.132-3.152-6.935-10.719-10.719-10.088-24.589.63-13.871 6.936-30.895 6.936-40.352 0-9.458 15.764-35.308 22.698-37.199 7.44-2.029 24.03 2.877 34.053-2.585 8.494-4.63 10.691-19.352 15.125-24.526 11.347-13.238 10.088-8.828 23.96-15.132 12.924-5.875 12.712-11.886 14.28-11.276-.029.039-9.341 12.32-14.751 16.482-5.419 4.168-7.085 7.504-12.087 13.338-5.002 5.835-5.419 4.584-7.503 11.254-2.084 6.669-4.168 12.087-12.504 15.005s-5.835 2.501-12.921 3.751c-7.086 1.251-26.676 7.919-26.676 7.919l-3.334 8.753s3.752 12.922 2.501 16.672c-1.25 3.751-12.089 7.502-14.589 12.087s-.834 12.921.834 16.672c1.667 3.752 1.25 10.836 2.917 22.506 1.667 11.671 5.419 11.253 5.419 16.673 0 5.419-3.334 8.752-5.835 12.921-2.501 4.168 10.837 12.921 13.338 15.839s-.417 13.755-.834 15.839-6.494 2.898-5.835 17.091c.66 14.193 6.669 9.169 8.753 10.42s11.418.918 14.588 8.336c1.414 3.31 4.554 5.657 7.597 7.242-1.285.128-2.75.194-4.43.173z" data-original="#3c9b4a" class=""></path><path fill="#ff6600" d="M176.187 242.408s-7.882-1.577-6.621 3.94 2.365 9.774-.157 9.774-1.577 7.249 1.576 8.511c3.153 1.26 13.398 4.413 15.921 4.571s13.24-4.098 15.289-1.103c2.05 2.995 7.409 9.144 8.985 8.354 1.576-.789-2.521-14.66 3.624-18.915 6.148-4.255 12.769-9.773 16.709-10.719 3.94-.945 14.03-2.52 9.773-5.674-4.256-3.152-14.028-6.147-16.709-8.354-2.68-2.206-6.935-8.039-4.256-9.616 2.68-1.576 13.083-1.891 13.398-5.201.316-3.31 2.837-8.039-3.467-9.773-6.305-1.734-10.087-3.943-6.777-10.878 3.31-6.936 7.275-13.573 8.693-9.791 1.418 3.783 2.499 10.42 7.07 9.475s13.398-7.883 11.349-9.143-7.057-6.701-7.688-9.695c-.631-2.995-8.071-14.58-5.234-16.313s6.148-5.675 2.523-7.723c-3.627-2.049-11.035-5.675-11.823-5.833-.788-.157-9.301 1.577-11.822 4.572-2.522 2.994-6.064 6.012-4.646 9.163s4.013 13.219.862 18.106c-3.151 4.886-10.402.315-10.875-7.093-.474-7.408-2.207-14.659-6.305-11.979-4.098 2.679-5.675 10.719-9.931 12.925-4.256 2.208-16.077 5.045-17.655 5.833-1.576.788-10.718-4.414-8.669-.157 2.049 4.255 13.241 11.822 14.186 15.605.946 3.782.631 16.235 1.576 19.387.945 3.153-1.261 8.197 7.566 9.46 8.827 1.26 18.757-2.208 19.229.156.474 2.365-.156 11.506 2.208 12.925 2.363 1.419 3.625 8.039.472 8.353-3.153.316-7.881 5.045-11.506 6.463-3.624 1.419-11.821-10.561-16.868-9.613z" data-original="#43ae57" class=""></path><path fill="#ff6600" d="M176.186 242.407s-7.882-1.576-6.62 3.941l.299 1.303c.817.382 1.51.557 1.906.467 1.712-.387 5.835.417 9.378 1.25 3.543.834 4.793 7.503 11.461 6.253 6.668-1.251 11.254-3.961 13.338-5.628s5.418-5.627 3.751-9.794-3.962-11.458-4.274-13.23c-.312-1.771.938-3.231.834-5.002s-1.876-7.19-4.168-7.294-5.315 2.188-7.399.312-5.835-2.917-10.212-3.543c-4.376-.626-5.211-4.168-4.794-7.919.417-3.75.209-8.961-1.251-12.922-1.459-3.96-1.666-7.294.417-9.794s8.129-4.794 10.838-8.753c1.063-1.554 1.452-3.526 1.532-5.348-1.628 2.946-3.176 6.044-5.575 7.288-4.256 2.207-16.078 5.044-17.654 5.833-1.576.788-10.719-4.414-8.67-.158 2.049 4.255 13.241 11.822 14.187 15.605s.631 16.235 1.576 19.387c.945 3.153-1.261 8.198 7.565 9.46 8.827 1.261 18.757-2.208 19.23.157.474 2.365-.157 11.506 2.207 12.925s3.625 8.039.473 8.354c-3.152.316-7.881 5.045-11.506 6.463-3.624 1.42-11.821-10.56-16.869-9.613z" data-original="#3c9b4a" class=""></path><path fill="#ff6600" d="M182.487 45.687c-1.209-1.209-12.096 2.662-18.144 5.806-6.047 3.144-7.256 3.872-1.209 8.709 6.048 4.837-.484 14.514 6.531 14.998s7.258-6.049 9.193-15.241c1.936-9.191 3.629-14.272 3.629-14.272zM153.437 249.616c-3.889-.698-5.534-1.946-9.641 2.574-4.108 4.52-6.959 9.262-6.616 12.917s7.541 5.082 9.493 2.897c1.953-2.185 7.755-5.477 7.724-7.918-.03-2.441.082-7.761-.96-10.47z" data-original="#43ae57" class=""></path><path fill="#cdcccd" d="M161.873 90.709c18.48 0 33.461 14.981 33.461 33.462 0 18.479-14.981 33.461-33.461 33.461s-33.462-14.981-33.462-33.461c0-18.481 14.981-33.462 33.462-33.462z" data-original="#cdcccd"></path><path fill="#b3b5b5" d="M161.873 157.632c-18.48 0-33.462-14.98-33.462-33.461s14.981-33.462 33.462-33.462z" data-original="#b3b5b5"></path><path fill="#d61f26" d="M161.946 98.366h-.147c-14.217.04-25.73 11.576-25.73 25.803 0 14.252 11.552 25.805 25.804 25.805 14.251 0 25.805-11.553 25.805-25.805-.002-14.227-11.516-25.763-25.732-25.803z" data-original="#d61f26"></path><path fill="#f1f1f1" d="M144.921 104.714v14.617h-8.398a25.96 25.96 0 0 0 0 9.676h8.398v14.617a25.736 25.736 0 0 0 9.676 5.307v-19.925h32.625a25.968 25.968 0 0 0 0-9.676h-32.625V99.407a25.742 25.742 0 0 0-9.676 5.307z" data-original="#f1f1f1"></path></g></g></svg>