<svg xmlns="http://www.w3.org/2000/svg" version="1.1" xmlns:xlink="http://www.w3.org/1999/xlink" xmlns:svgjs="http://svgjs.com/svgjs" width="512" height="512" x="0" y="0" viewBox="0 0 64 64" style="enable-background:new 0 0 512 512" xml:space="preserve" class=""><g><g data-name="Layer 5"><path fill="#ff6600" d="M11.414 19H6.331A4.331 4.331 0 0 0 2 23.331 4.331 4.331 0 0 0 5.619 27.6l1.533.256a15.031 15.031 0 0 1 10.42 7.095A17.03 17.03 0 0 1 20 43.719a17.035 17.035 0 0 1-1.219 6.327L16.3 56.25a4.2 4.2 0 0 0-.3 1.557A4.193 4.193 0 0 0 20.193 62h3.546a3.659 3.659 0 0 0 3.272-2.022 3.578 3.578 0 0 1 3.2-1.978 3.576 3.576 0 0 1 2.862 1.431l1.127 1.5A2.666 2.666 0 0 0 36.333 62 2.667 2.667 0 0 0 39 59.333a6.928 6.928 0 0 1 .495-2.571l.514-1.284A3.941 3.941 0 0 1 43.669 53a2.351 2.351 0 0 1 2.016 1.141A7.947 7.947 0 0 0 52.5 58a6.5 6.5 0 0 0 6.5-6.5 7.5 7.5 0 0 0-1.5-4.5 7.5 7.5 0 0 1-1.5-4.5V38a2 2 0 0 0-2-2 2 2 0 0 1-2-2 6.241 6.241 0 0 1 2.343-4.874l5.6-4.479A5.483 5.483 0 0 0 62 20.364a5.485 5.485 0 0 0-4.252-5.345l-6.208-1.433a5.536 5.536 0 0 1-3.706-2.917A3.017 3.017 0 0 0 45.134 9a3.018 3.018 0 0 1-1.988-.747L37.028 2.9a3.639 3.639 0 0 0-2.394-.9A3.634 3.634 0 0 0 31 5.634v1.245A3.121 3.121 0 0 1 27.879 10 2.879 2.879 0 0 0 25 12.879 2.122 2.122 0 0 1 22.879 15a2.12 2.12 0 0 1-1.5-.621l-1.965-1.965a1.415 1.415 0 0 0-1-.414A1.414 1.414 0 0 0 17 13.414 5.586 5.586 0 0 1 11.414 19z" data-original="#006837" class=""></path><path fill="#ff6600" d="m57.748 15.019-6.208-1.433a5.536 5.536 0 0 1-3.706-2.917A3.017 3.017 0 0 0 45.134 9a3.018 3.018 0 0 1-1.988-.747L37.028 2.9A3.644 3.644 0 0 0 31 5.634v1.245c0 .037-.01.072-.011.11a3.11 3.11 0 0 1-3 3c-.038 0-.073.011-.11.011A2.911 2.911 0 0 0 25 12.879a2.121 2.121 0 0 1-3.621 1.5l-1.811-1.811-.154-.154a1.414 1.414 0 0 0-2.414 1A5.586 5.586 0 0 1 11.414 19H6.331a4.28 4.28 0 0 0-1.155.176A4.28 4.28 0 0 0 5 20.331 4.331 4.331 0 0 0 8.619 24.6l1.533.256a15.033 15.033 0 0 1 10.42 7.094 17.035 17.035 0 0 1 1.209 15.093L19.3 53.25a4.2 4.2 0 0 0-.3 1.557A4.193 4.193 0 0 0 23.193 59h3.546a3.636 3.636 0 0 0 1.273-.238 3.568 3.568 0 0 1 5.061.669l1.127 1.5a2.667 2.667 0 0 0 4.8-1.6c0-.124.011-.247.018-.37a6.909 6.909 0 0 1 .477-2.2l.514-1.284A4.025 4.025 0 0 1 43.669 53a2.351 2.351 0 0 1 2.016 1.141A7.947 7.947 0 0 0 52.5 58a6.518 6.518 0 0 0 6.5-6.5 7.5 7.5 0 0 0-1.5-4.5 7.5 7.5 0 0 1-1.5-4.5V38a2 2 0 0 0-2-2 2 2 0 0 1-2-2 6.241 6.241 0 0 1 2.343-4.874l1.457-1.168 4.139-3.311a5.485 5.485 0 0 0-2.193-9.628z" data-original="#009245" class=""></path><circle cx="45" cy="45" r="17" fill="#063990" data-original="#063990"></circle><path fill="#0c53a8" d="M45 28a16.906 16.906 0 0 0-9.844 3.156 16.983 16.983 0 0 0 23.688 23.688A16.983 16.983 0 0 0 45 28z" data-original="#0c53a8"></path><path fill="#c1272d" d="M62 45a16.991 16.991 0 0 0-11.092-15.924l.084 31.817A16.989 16.989 0 0 0 62 45z" data-original="#c1272d"></path><path fill="#e6e6e6" d="M45 28a16.926 16.926 0 0 0-6 1.11v31.78a16.771 16.771 0 0 0 11.992 0l-.084-31.817A16.93 16.93 0 0 0 45 28z" data-original="#e6e6e6"></path><path fill="#ffffff" d="M39 29.111v25.615a16.646 16.646 0 0 0 11.984 3.145l-.069-28.792A16.755 16.755 0 0 0 39 29.111z" data-original="#ffffff"></path><path fill="#dd1f2d" d="m50.926 29.083.06 28.788a16.928 16.928 0 0 0 7.858-3.027 16.924 16.924 0 0 0 3.1-8.45v-.031Q62 45.688 62 45a16.991 16.991 0 0 0-11.074-15.917z" data-original="#dd1f2d"></path></g></g></svg>