<svg xmlns="http://www.w3.org/2000/svg" version="1.1" xmlns:xlink="http://www.w3.org/1999/xlink" xmlns:svgjs="http://svgjs.com/svgjs" width="512" height="512" x="0" y="0" viewBox="0 0 64 64" style="enable-background:new 0 0 512 512" xml:space="preserve" class=""><g><g data-name="Layer 6"><path fill="#ff6600" d="m40.035 46.5 5.176 2.588A3.238 3.238 0 0 1 47 51.985a3.236 3.236 0 0 1-1.789 2.894l-1.608.8A4.711 4.711 0 0 0 41 59.9a2.09 2.09 0 0 1-2.09 2.09 1.7 1.7 0 0 1-1.415-.758l-.87-1.3a2.1 2.1 0 0 0-1.752-.938 2.107 2.107 0 0 0-1.49.617l-.676.676a2.414 2.414 0 0 1-1.707.698 2.414 2.414 0 0 1-1.707-.707 4.544 4.544 0 0 0-3.121-1.33l-4.024-.082a8.448 8.448 0 0 0-5.241 1.689l-.189.141A6.414 6.414 0 0 1 12.742 62h-.056A1.714 1.714 0 0 1 11 60.284a14.2 14.2 0 0 1 2.385-7.876l.922-1.383A4.125 4.125 0 0 0 15 48.731v-.038a1.7 1.7 0 0 0-1.7-1.708H10a2.617 2.617 0 0 1-2.526-1.93l-2.131-7.813A1.707 1.707 0 0 0 3.7 35.985 1.708 1.708 0 0 1 2 34.28l-.008-3.84a4.447 4.447 0 0 1 4.446-4.456H6.5A1.705 1.705 0 0 0 8.2 24.5c.314-2.37.94-7.072 1.364-10.257a3.758 3.758 0 0 1 3.726-3.261 3.759 3.759 0 0 0 3.566-2.57l1.152-3.458a4.347 4.347 0 0 1 4.124-2.972 4.347 4.347 0 0 1 4 2.635l.328.765a5.941 5.941 0 0 0 5.46 3.6 5.937 5.937 0 0 0 3.71-1.3l2.022-1.617a4.929 4.929 0 0 1 3.082-1.081 4.934 4.934 0 0 1 3.746 1.723 23.868 23.868 0 0 1 5.506 12.157l.651 4.556a7.767 7.767 0 0 0 2.2 4.395A3.989 3.989 0 0 1 54 30.638a3.99 3.99 0 0 1-3.3 3.929l-9.168 1.617A5.491 5.491 0 0 0 37 41.591a5.49 5.49 0 0 0 3.035 4.909z" data-original="#006837" class=""></path><path fill="#ff6600" d="M52.831 27.816a7.767 7.767 0 0 1-2.2-4.395l-.651-4.556a23.868 23.868 0 0 0-5.503-12.157 4.934 4.934 0 0 0-6.828-.642l-2.022 1.617a5.939 5.939 0 0 1-9.17-2.3l-.328-.765a4.353 4.353 0 0 0-8.12.337L17.027 7.9l-.17.511a3.759 3.759 0 0 1-3.566 2.57 3.813 3.813 0 0 0-.68.062 3.758 3.758 0 0 0-3.046 3.2c-.353 2.653-.845 6.343-1.181 8.876L8.201 24.5a1.705 1.705 0 0 1-1.7 1.481h-.066a4.4 4.4 0 0 0-1.247.2 4.424 4.424 0 0 0-.2 1.257L5 31.28a1.708 1.708 0 0 0 1.7 1.7 1.707 1.707 0 0 1 1.642 1.257l2.131 7.813A2.617 2.617 0 0 0 13 43.985h3.3a1.7 1.7 0 0 1 1.7 1.708v.038a4.125 4.125 0 0 1-.693 2.294l-.922 1.383A14.206 14.206 0 0 0 14 57.284 1.714 1.714 0 0 0 15.686 59h.056a6.414 6.414 0 0 0 3.976-1.3l.189-.141a8.448 8.448 0 0 1 5.241-1.689l4.024.082a4.544 4.544 0 0 1 3.121 1.33 2.414 2.414 0 0 0 3.414 0l.676-.676a2.106 2.106 0 0 1 3.242.321l.87 1.3a1.687 1.687 0 0 0 .645.569 4.7 4.7 0 0 1 2.46-3.113l.669-.334.939-.47a3.236 3.236 0 0 0 0-5.789l-5.173-2.59a5.512 5.512 0 0 1 1.5-10.318l9.165-1.615a3.99 3.99 0 0 0 2.127-6.751z" data-original="#009245" class=""></path><circle cx="45" cy="45" r="17" fill="#f6c72e" data-original="#f6c72e"></circle><path fill="#ffdc7b" d="M45 28a16.906 16.906 0 0 0-9.844 3.156 16.983 16.983 0 0 0 23.688 23.688A16.983 16.983 0 0 0 45 28z" data-original="#ffdc7b"></path><path fill="#1a1a1a" d="M45 28a16.991 16.991 0 0 0-15.89 11h31.78A16.991 16.991 0 0 0 45 28z" data-original="#1a1a1a" class=""></path><path fill="#c1272d" d="M60.89 39H29.11a16.771 16.771 0 0 0 0 12h31.78a16.771 16.771 0 0 0 0-12z" data-original="#c1272d" class=""></path><path fill="#dd1f2d" d="M32 41a16.9 16.9 0 0 0 3.274 10h25.615a16.764 16.764 0 0 0 0-12H32.131A16.92 16.92 0 0 0 32 41z" data-original="#dd1f2d" class=""></path><path fill="#333333" d="M43.6 28.059a16.928 16.928 0 0 0-8.445 3.1A16.94 16.94 0 0 0 32.131 39H60.89a17 17 0 0 0-14.108-10.906l-.078-.008A17.144 17.144 0 0 0 45 28q-.689 0-1.362.054z" data-original="#333333" class=""></path></g></g></svg>