<svg xmlns="http://www.w3.org/2000/svg" version="1.1" xmlns:xlink="http://www.w3.org/1999/xlink" xmlns:svgjs="http://svgjs.com/svgjs" width="512" height="512" x="0" y="0" viewBox="0 0 64 64" style="enable-background:new 0 0 512 512" xml:space="preserve" class=""><g><g data-name="Layer 7"><path fill="#ff6600" d="M16 59.009A2.991 2.991 0 0 0 18.991 62h.019a3.72 3.72 0 0 0 3.09-1.654 9.8 9.8 0 0 1 8.3-4.361h.113a5.1 5.1 0 0 1 2.759.857l1.346.9a1.537 1.537 0 0 0 .852.258A1.539 1.539 0 0 0 37 56.465v-.021a6.922 6.922 0 0 1 2.769-5.523l.033-.024A4.476 4.476 0 0 1 42.49 50h.046A1.465 1.465 0 0 0 44 48.535v-3.473a3.748 3.748 0 0 1 1.741-3.162l.034-.021A2.637 2.637 0 0 0 47 39.648v-.041a2.6 2.6 0 0 0-1.438-2.326 1.017 1.017 0 0 1-.562-.909 11.818 11.818 0 0 1 2.845-7.691A32.574 32.574 0 0 1 55.09 22.4l3.735-2.376A6.859 6.859 0 0 0 62 14.236a5.231 5.231 0 0 0-.553-2.342A1.617 1.617 0 0 0 60 11a1.617 1.617 0 0 0-1.447.894l-.991 1.981a2.074 2.074 0 0 1-1.819 1.148h-.063a2.1 2.1 0 0 1-2.07-1.588l-.028-.113a3.054 3.054 0 0 0-2.982-2.328h-.069a3.739 3.739 0 0 0-2.622 1.1 3.083 3.083 0 0 1-2.186.906 3.585 3.585 0 0 1-2.8-1.345A9.738 9.738 0 0 0 35.32 8h-1.533a1.472 1.472 0 0 1-1.224-.655A5.266 5.266 0 0 0 28.181 5a5.268 5.268 0 0 0-3.724 1.543 1.563 1.563 0 0 1-1.1.457 28.374 28.374 0 0 1-4.674-.387l-3.8-.411a2.7 2.7 0 0 1-2.331-2.03A2.867 2.867 0 0 0 9.761 2a2.86 2.86 0 0 0-1.422.378L4.282 4.7A4.529 4.529 0 0 0 2 8.629a4.529 4.529 0 0 0 .761 2.512A7.378 7.378 0 0 1 4 15.234 2.766 2.766 0 0 0 6.766 18h1.8a8.04 8.04 0 0 0 4.459-1.35 3.87 3.87 0 0 1 2.147-.65A2.828 2.828 0 0 1 18 18.828a2.828 2.828 0 0 1-.828 2l-3.111 3.111A3.624 3.624 0 0 0 13 26.5a3.624 3.624 0 0 0 1.061 2.561A3.207 3.207 0 0 1 15 31.328a4.322 4.322 0 0 1-2.39 3.872A2.912 2.912 0 0 0 11 37.8v1.081a1.808 1.808 0 0 0 1 1.619 1.808 1.808 0 0 1 1 1.618v.822a6.813 6.813 0 0 1-1.142 3.774A5.1 5.1 0 0 0 11 49.546a5.106 5.106 0 0 0 1.916 3.987l.734.587A6.262 6.262 0 0 1 16 59.009z" data-original="#006837" class=""></path><path fill="#ff6600" d="M61.447 11.894a1.618 1.618 0 0 0-2.894 0l-.518 1.036-.473.945a2.074 2.074 0 0 1-1.819 1.148h-.063a2.1 2.1 0 0 1-2.07-1.588l-.028-.113a3.053 3.053 0 0 0-2.982-2.328h-.068a3.741 3.741 0 0 0-2.623 1.1 3.083 3.083 0 0 1-2.186.906 3.585 3.585 0 0 1-2.8-1.345A9.738 9.738 0 0 0 35.32 8h-1.533a1.472 1.472 0 0 1-1.224-.655 5.267 5.267 0 0 0-8.106-.8 1.56 1.56 0 0 1-1.1.458 28.374 28.374 0 0 1-4.674-.387l-3.8-.411a2.7 2.7 0 0 1-2.331-2.03 2.867 2.867 0 0 0-4.2-1.794L6.147 3.63a4.508 4.508 0 0 0-.386 5.511A7.378 7.378 0 0 1 7 13.234 2.766 2.766 0 0 0 9.766 16h1.8a8.04 8.04 0 0 0 4.459-1.35 3.87 3.87 0 0 1 2.147-.65 2.828 2.828 0 0 1 2 4.828l-3.111 3.111a3.621 3.621 0 0 0 0 5.122A3.207 3.207 0 0 1 18 29.328a4.322 4.322 0 0 1-2.39 3.872A2.912 2.912 0 0 0 14 35.8v1.081a1.808 1.808 0 0 0 1 1.619 1.808 1.808 0 0 1 1 1.618v.822a6.813 6.813 0 0 1-1.142 3.774 5.1 5.1 0 0 0 1.058 6.819l.734.587A6.262 6.262 0 0 1 19 57.009 2.991 2.991 0 0 0 21.991 60h.019c.126 0 .251-.011.374-.023a9.87 9.87 0 0 1 8.016-3.992h.113a5.1 5.1 0 0 1 2.759.857l1.346.9A1.537 1.537 0 0 0 37 56.465v-.021a7.079 7.079 0 0 1 2.769-5.523l.033-.024a4.464 4.464 0 0 1 1.737-.782A4.568 4.568 0 0 1 42.49 50h.046A1.465 1.465 0 0 0 44 48.535v-3.473a3.748 3.748 0 0 1 1.741-3.162l.034-.021A2.637 2.637 0 0 0 47 39.648v-.041a2.6 2.6 0 0 0-1.438-2.326 1.017 1.017 0 0 1-.562-.909 11.818 11.818 0 0 1 2.845-7.691A32.574 32.574 0 0 1 55.09 22.4l1.292-.822 2.443-1.554A6.958 6.958 0 0 0 62 14.236a5.231 5.231 0 0 0-.553-2.342z" data-original="#009245" class=""></path><circle cx="45" cy="45" r="17" fill="#c1272d" data-original="#c1272d"></circle><path fill="#dd1f2d" d="M45 28a16.906 16.906 0 0 0-9.844 3.156 16.983 16.983 0 0 0 23.688 23.688A16.983 16.983 0 0 0 45 28z" data-original="#dd1f2d"></path><path fill="#f6c72e" d="M60 37H30a16.988 16.988 0 0 0 0 16.005h30A16.986 16.986 0 0 0 60 37z" data-original="#f6c72e"></path><path fill="#ffdc7b" d="M62 45a16.907 16.907 0 0 0-2-8H32.478a16.993 16.993 0 0 0 4.486 16.005h23.011A16.846 16.846 0 0 0 62 45z" data-original="#ffdc7b"></path><path fill="#c1272d" d="M35 44h3v3h-3zM35 47a3 3 0 0 0 3 3v-3z" data-original="#c1272d"></path><path fill="#e6e6e6" d="M38 44h3v3h-3z" data-original="#e6e6e6"></path><path fill="#c1272d" d="M38 50a3 3 0 0 0 3-3h-3z" data-original="#c1272d"></path><path fill="#ffdc7b" d="M37 49.816V47h-1v2.221a2.986 2.986 0 0 0 1 .595z" data-original="#ffdc7b"></path><path fill="#dd1f2d" d="m36 44-2-3 .211-.1A8.466 8.466 0 0 1 38 40a8.47 8.47 0 0 1 3.788.894L42 41l-2 3" data-original="#dd1f2d"></path><g fill="#e6e6e6"><path d="M43 43h2v8h-2zM31 43h2v8h-2z" fill="#e6e6e6" data-original="#e6e6e6"></path></g></g></g></svg>