<svg xmlns="http://www.w3.org/2000/svg" version="1.1" xmlns:xlink="http://www.w3.org/1999/xlink" xmlns:svgjs="http://svgjs.com/svgjs" width="512" height="512" x="0" y="0" viewBox="0 0 283.465 283.465" style="enable-background:new 0 0 512 512" xml:space="preserve" class=""><g><g fill-rule="evenodd" clip-rule="evenodd"><path fill="#ff6600" d="M8.706 199.896c2.443 1.221 11.81-1.63 14.457-3.055 2.648-1.425 4.531-4.785 4.888-5.498.355-.713-3.005.101-3.564-2.087-.559-2.19 1.171-5.906 2.291-7.382s2.24-.816 4.123.101 2.953-.255 5.447-2.036 4.225-3.665 7.382-2.698c3.156.967 11.912-.307 12.625.814.714 1.12-2.239 3.666-.203 5.906s4.683 2.545 4.683 4.276c0 1.73-3.156 8.349-3.665 9.164-.51.814.203 3.461 1.832 3.869 1.629.407 4.175 3.462 3.767 4.887-.407 1.426 6.415 4.276 6.517 4.886.102.611 2.039 11.809 5.094 13.438 3.055 1.63 5.193-3.564 9.062-3.971s7.433-.611 9.164-1.324c1.73-.713 5.396-4.175 8.451-5.703 3.055-1.527 7.535 2.444 8.859 3.462 1.323 1.019 8.349 1.629 8.349 1.629l4.887-6.108s5.599.915 7.127-3.056-2.952-4.683.916-6.516c3.869-1.833 7.127-4.072 7.229-4.785s0-5.498-2.138-6.72c-2.137-1.221-3.868-3.971.815-4.887 4.682-.916 6.618-2.24 8.145-4.378s2.647-8.552 6.109-8.859c3.461-.305 3.36 2.546 3.054 7.84-.306 5.295 2.749 11.098 3.971 12.829s4.026 3.014 4.942 4.236c.917 1.222 2.241 4.379 3.462 4.684 1.222.305 5.544-3.829 7.784-1.691s4.581 1.527 3.564 4.175c-1.018 2.647-5.294 3.767-3.156 6.008 2.138 2.24 5.6 5.294 6.109 6.21.509.917 2.038 3.665 2.853 6.618.814 2.953 4.276 3.767 4.683 2.852.407-.917 3.157-6.008 3.157-6.008s-2.24-3.665-3.258-5.294 2.647-2.749 2.851-4.887c.204-2.139-4.073-1.731-.611-6.211 3.461-4.479 4.886-7.432 6.618-9.672 1.731-2.24 4.786-5.396 5.805-8.756 1.018-3.36-.203-8.858-.712-11.811-.51-2.952 1.221-6.821 2.239-6.821s4.174 5.091 5.6 4.989 4.582-3.869 4.378.916c-.203 4.785.407 8.043 1.934 10.283s6.517 4.99 6.517 4.99 3.208-2.851 7.383-4.226c4.175-1.373 4.277-3.461 7.841-3.971 3.564-.509 5.09-1.731 5.905.204.815 1.934.917 4.989 2.545 7.739 1.629 2.748 4.99 6.312 7.026 5.294 2.037-1.018 4.785-1.221 2.037-5.09-2.749-3.869-4.888-4.99-3.869-6.72 1.018-1.731 4.582-2.443 4.378-4.276-.203-1.833-4.989-1.222-6.923-3.36s-1.629-7.84.611-9.265c2.24-1.426 7.026-8.045 8.554-7.739 1.527.306.712 4.684 4.684 6.822 3.971 2.138 8.451 2.443 9.57 1.935 1.121-.509 3.563-4.073 2.036-6.212-1.527-2.138-5.192-.508-6.211-4.988-1.018-4.48 2.953-9.367 3.156-10.081.203-.713 2.75-8.349 2.241-10.589s-2.647-7.229-3.971-8.145c-1.324-.917-3.563.815-4.174 1.629-.611.815-4.684 6.924-5.702 8.145-1.019 1.221-2.75 4.277-5.397 3.971s-5.803-2.546-7.229-3.869c-1.426-1.324-4.786-2.851-6.924-3.869s-1.528-3.36-1.018-5.091c.509-1.731-2.037-4.174-6.11-4.887-4.072-.713-9.266-.916-10.69-1.018-1.426-.102-8.553 1.63-7.331-.713 1.221-2.342 3.867-3.972 1.831-7.535-2.036-3.564.917-5.702 2.444-8.655s5.61-3.052 6.628-6.768-1.391-4.559-3.783-6.238-3.018-6.85 1.358-6.799c7.154.082 8.969-3.64 7.859-5.42-.26-.417-6.707-4.513-13.451-10.251-2.378-2.023-3.793-6.551-6.372-8.01-6.846-3.874-14.309-4.278-18.081-2.957-4.179 1.465-4.367 4.898-5.825 4.744-3.359-.355-4.072 5.906-5.498 7.076-1.425 1.17-3.614-1.987-3.971-3.361-.357-1.375-3.513-4.225-3.818-4.225-.306 0-1.273 2.902-2.8 1.883s-3.818-8.654-8.808-7.687c-4.989.967-8.196 5.854-8.858 7.382-.661 1.528-1.884 3.156-1.272 4.276.611 1.12 5.344-1.528 6.669 1.221 1.323 2.749.407 2.189-2.954 4.226-3.359 2.037-1.069 3.156-3.614 3.004-2.546-.153-5.346-1.629-5.854-1.782-.509-.153-2.85-3.259-6.159-1.987-3.309 1.274-7.637 4.735-10.335 5.142s-3.462.357-4.734.153c-1.273-.204-2.443-5.345-7.33-2.699-4.887 2.647-6.313 6.11-8.298 5.448s-2.545-2.954-1.935-4.277c.611-1.324-1.678-3.411-2.749-2.953-1.069.458-8.552 5.599-10.894 10.079s-1.426 6.771-4.531 6.211c-3.105-.561-4.938-1.935-6.72-1.426s-3.004-3.361-4.735-4.582c-1.731-1.222-4.429-2.648-6.821-1.884-2.393.764-5.142 5.957-5.142 5.957s-6.365 5.548-3.769 7.076c2.596 1.527 8.451-1.527 8.196.356-.255 1.884-3.818 5.091-5.04 6.822-1.221 1.731-11.859 16.137-18.376 21.736-6.516 5.6-13.542 7.433-13.949 9.061-.407 1.63 5.498 1.018 2.24 7.84s-5.6 10.385-6.108 10.894c-.509.509-14.357 10.283-14.154 13.133.204 2.851-4.683 4.276-1.629 9.163s5.295 3.258 2.036 9.571c-3.259 6.312-10.591 7.33-7.745 16.564z" data-original="#43ae57" class=""></path><path fill="#ff6600" d="M8.705 199.896c2.443 1.221 11.81-1.629 14.458-3.055 2.647-1.425 4.531-4.785 4.887-5.498.356-.712-3.004.102-3.563-2.087-.56-2.189 1.17-5.906 2.291-7.382 1.12-1.476 2.24-.815 4.123.102s2.953-.255 5.447-2.037c2.495-1.781 4.226-3.666 7.382-2.698 3.157.967 11.913-.306 12.625.814.713 1.12-2.239 3.666-.203 5.906s4.683 2.545 4.683 4.276-3.156 8.349-3.665 9.164c-.51.815.203 3.462 1.832 3.869s4.174 3.462 3.767 4.887c-.407 1.426 6.415 4.276 6.517 4.887.101.611 2.039 11.809 5.094 13.438 3.055 1.63 5.193-3.564 9.062-3.971 3.868-.407 7.433-.611 9.164-1.324 1.73-.713 5.397-4.175 8.451-5.702 3.055-1.528 7.535 2.444 8.858 3.462 1.324 1.019 8.349 1.629 8.349 1.629l4.888-6.108s5.599.915 7.127-3.056-2.952-4.684.917-6.516c3.869-1.833 7.126-4.072 7.229-4.785.102-.713 0-5.498-2.138-6.72-2.137-1.222-3.868-3.972.815-4.887 4.683-.916 6.618-2.24 8.145-4.378s2.647-8.552 6.109-8.858c.537-.048.989-.019 1.367.084 0 0-3.208-2.199-10.275 4.667-7.067 6.865-9.288 8.683-13.932 10.702s-2.019 10.904-6.663 14.538c-4.644 3.635-9.894 4.544-15.75 4.342s-8.279-3.432-13.731-3.432c-4.571 0-8.223 3.72-13.128 2.402-4.004-1.077-9.453-2.859-11.911-6.138-.535-.715 1.622-6.744.474-10.769-.973-3.413-4.613-7-4.613-7.909 0-5.25.303-6.562-3.13-8.177s-10.299-3.029-13.933-3.029c-3.635 0-8.279 1.01-15.75 3.029s-6.663 3.23-7.471-1.01 2.625-6.058 7.067-8.279c4.443-2.221 11.914-6.865 12.52-9.894s-2.018-4.846-.202-8.682c.41-.866 6.759-3.372 7.978-4.949 3.432-4.442-.302-9.389 4.745-13.226 1.988-1.51 10.136-7.148 15.647-8.221 2.113-.412 2.464-6.837 4.826-7.328 3.618-.754 9.037-.797 11.662-2.764 2.527-1.895.654-1.906 3.532-8.417 1.529-3.459 8.662-8.924 9.363-11.029 1.413-4.24 4.04-8.483 10.098-5.655 6.058 2.827 10.501.404 11.51-1.009 1.009-1.414 6.057-2.625 9.288-2.827s6.676-1.11 8.481-4.442a61.454 61.454 0 0 0 1.623-3.26c-3.284 1.327-7.503 4.67-10.153 5.07-2.698.407-3.462.357-4.734.153-1.273-.204-2.443-5.345-7.331-2.699-4.887 2.647-6.313 6.11-8.298 5.447-1.985-.662-2.545-2.953-1.935-4.276.611-1.324-1.679-3.411-2.749-2.952-1.069.458-8.552 5.598-10.894 10.079-2.341 4.48-1.425 6.771-4.531 6.211-3.106-.561-4.938-1.935-6.72-1.426-1.781.509-3.004-3.361-4.735-4.582-1.731-1.222-4.429-2.648-6.821-1.884-2.393.764-5.142 5.957-5.142 5.957s-6.365 5.549-3.769 7.076 8.451-1.527 8.196.356c-.255 1.884-3.817 5.091-5.04 6.822-1.222 1.731-11.86 16.136-18.376 21.736s-13.542 7.433-13.949 9.061c-.407 1.63 5.498 1.018 2.24 7.84s-5.6 10.385-6.108 10.894c-.509.509-14.357 10.283-14.153 13.133.204 2.851-4.683 4.277-1.629 9.164s5.295 3.258 2.036 9.571c-3.261 6.307-10.593 7.325-7.748 16.559z" data-original="#3c9b4a" class=""></path><path fill="#cdcccd" d="M146.384 98.056c16.633 0 30.118 13.484 30.118 30.119 0 16.633-13.485 30.118-30.118 30.118-16.634 0-30.119-13.485-30.119-30.118 0-16.635 13.485-30.119 30.119-30.119z" data-original="#cdcccd" class=""></path><path fill="#b3b5b5" d="M146.385 158.292c-16.634 0-30.119-13.484-30.119-30.118s13.485-30.119 30.119-30.119z" data-original="#b3b5b5" class=""></path><path fill="#d61f26" d="M146.316 151.399h.133c12.797-.036 23.161-10.42 23.161-23.226 0-12.828-10.399-23.226-23.227-23.226s-23.226 10.398-23.226 23.226c0 12.806 10.363 23.19 23.159 23.226z" data-original="#d61f26"></path><path fill="#f1f1f1" d="M160.016 123.629h-9.088v-9.088h-9.089v9.088h-9.088v9.089h9.088v9.088h9.089v-9.088h9.088z" data-original="#f1f1f1"></path></g></g></svg>