<svg xmlns="http://www.w3.org/2000/svg" version="1.1" xmlns:xlink="http://www.w3.org/1999/xlink" xmlns:svgjs="http://svgjs.com/svgjs" width="512" height="512" x="0" y="0" viewBox="0 0 64 64" style="enable-background:new 0 0 512 512" xml:space="preserve" class=""><g><g data-name="Layer 22"><path d="M18.5 29a2.5 2.5 0 0 1-2.5-2.5V24a2 2 0 0 0-2-2 2 2 0 0 1-2-2v-1.882a1.808 1.808 0 0 0-1-1.618 1.808 1.808 0 0 1-1-1.618V11.77a5.567 5.567 0 0 1 3.5-5.17A2.385 2.385 0 0 0 15 4.385 2.385 2.385 0 0 1 17.385 2h6.761A1.854 1.854 0 0 1 26 3.854a1.854 1.854 0 0 1-1.025 1.658l-1.95.976A1.854 1.854 0 0 0 22 8.146 1.854 1.854 0 0 0 23.854 10h4.523A3.623 3.623 0 0 1 32 13.623v.071a3.708 3.708 0 0 1-2.048 3.33l-4.927 2.464A1.854 1.854 0 0 0 24 21.146 1.854 1.854 0 0 0 25.854 23a12.424 12.424 0 0 1 8.785 3.639l3.547 3.547A13.022 13.022 0 0 1 42 39.394 2.606 2.606 0 0 0 44.606 42 3.4 3.4 0 0 1 48 45.394a4.87 4.87 0 0 1-2.168 4.051A1.869 1.869 0 0 0 45 51a1.869 1.869 0 0 0 .832 1.555l.955.636A2.725 2.725 0 0 1 48 55.458a2.723 2.723 0 0 1-1.322 2.335l-1.6.963A8.734 8.734 0 0 1 40.581 60a2.194 2.194 0 0 1-2.081-1.5 2.194 2.194 0 0 0-2.081-1.5h-1.813a4.87 4.87 0 0 0-4.051 2.168A1.869 1.869 0 0 1 29 60a1.869 1.869 0 0 1-1.555-.832l-1.058-1.588A1.305 1.305 0 0 0 25.3 57a1.3 1.3 0 0 0-1.3 1.3 3.7 3.7 0 0 1-3.7 3.7h-6.411A1.889 1.889 0 0 1 12 60.111a1.889 1.889 0 0 1 .971-1.651l7.058-3.92A1.889 1.889 0 0 0 21 52.889 1.889 1.889 0 0 0 19.111 51h-1.184A1.927 1.927 0 0 1 16 49.073a2.656 2.656 0 0 1 2.011-2.573A2.625 2.625 0 0 0 20 43.95a4.707 4.707 0 0 0-1.379-3.329 2.12 2.12 0 0 1-.621-1.5A2.122 2.122 0 0 1 20.121 37a3.512 3.512 0 0 1 2.921 1.563l.184.277A2.606 2.606 0 0 0 25.394 40 2.606 2.606 0 0 0 28 37.394a3.176 3.176 0 0 0-2.3-3.052l-3.256-.93A1.989 1.989 0 0 1 21 31.5a2.5 2.5 0 0 0-2.5-2.5Z" style="" fill="#ff6600" data-original="#006837" class=""></path><path d="m46.787 53.191-.955-.636a1.869 1.869 0 0 1 0-3.11A4.87 4.87 0 0 0 48 45.394 3.4 3.4 0 0 0 44.606 42 2.606 2.606 0 0 1 42 39.394a13.022 13.022 0 0 0-3.814-9.208l-3.547-3.547A12.424 12.424 0 0 0 25.854 23a1.854 1.854 0 0 1-.829-3.512l2.009-1 2.918-1.459a3.69 3.69 0 0 0 1.941-2.471 3.763 3.763 0 0 0 .107-.864v-.071A3.623 3.623 0 0 0 28.377 10h-4.523a1.854 1.854 0 0 1-.829-3.512l1.95-.976c.021-.01.037-.028.058-.039A1.85 1.85 0 0 0 24.146 2h-6.761A2.385 2.385 0 0 0 15 4.385c0 .047-.018.09-.021.137A2.375 2.375 0 0 1 13.5 6.6c-.019.008-.037.02-.057.028A5.541 5.541 0 0 0 13 8.77v3.112a1.808 1.808 0 0 0 1 1.618 1.808 1.808 0 0 1 1 1.618V17a2 2 0 0 0 2 2 2 2 0 0 1 2 2v2.5a2.5 2.5 0 0 0 2.5 2.5 2.5 2.5 0 0 1 2.5 2.5 1.989 1.989 0 0 0 1.442 1.912l3.256.93A3.176 3.176 0 0 1 31 34.394 2.606 2.606 0 0 1 28.394 37a2.49 2.49 0 0 1-.431-.054 3.173 3.173 0 0 1 .037.448 2.605 2.605 0 0 1-4.773 1.446l-.185-.277A3.73 3.73 0 0 0 20.121 37a2.121 2.121 0 0 0-1.5 3.621A4.707 4.707 0 0 1 20 43.95v.062A2.617 2.617 0 0 1 19.007 46c0 .026-.007.051-.007.077A1.927 1.927 0 0 0 20.927 48h1.184a1.889 1.889 0 0 1 .918 3.54l-2.05 1.138a1.838 1.838 0 0 1 .021.211 1.889 1.889 0 0 1-.971 1.651l-5.008 2.782A1.883 1.883 0 0 0 16.889 59H23.3a3.671 3.671 0 0 0 .633-.064A3.671 3.671 0 0 0 24 58.3a1.294 1.294 0 0 1 2.289-.836A3.673 3.673 0 0 0 27 55.3a1.3 1.3 0 0 1 2.387-.723l1.058 1.588a1.869 1.869 0 0 0 3.11 0A4.87 4.87 0 0 1 37.606 54h1.813a2.194 2.194 0 0 1 2.081 1.5 2.194 2.194 0 0 0 2.081 1.5 8.723 8.723 0 0 0 4.372-1.183 2.691 2.691 0 0 0 .047-.359 2.725 2.725 0 0 0-1.213-2.267Z" style="" fill="#ff6600" data-original="#009245" class=""></path><circle cx="45" cy="45" r="17" style="" fill="#063990" data-original="#063990"></circle><path d="M45 28a16.906 16.906 0 0 0-9.844 3.156 16.983 16.983 0 0 0 23.688 23.688A16.983 16.983 0 0 0 45 28Z" style="" fill="#0c53a8" data-original="#0c53a8"></path><path d="M62 45a17.043 17.043 0 0 0-.28-3H51l7.416-7.416a17.1 17.1 0 0 0-3-3L48 39V28.28a16.211 16.211 0 0 0-6 0V39l-7.416-7.416a17.1 17.1 0 0 0-3 3L39 42H28.28a16.211 16.211 0 0 0 0 6H39l-7.416 7.416a17.1 17.1 0 0 0 3 3L42 51v10.72a16.211 16.211 0 0 0 6 0V51l7.416 7.416a17.1 17.1 0 0 0 3-3L51 48h10.72a17.043 17.043 0 0 0 .28-3Z" style="" fill="#e6e6e6" data-original="#e6e6e6"></path><path d="M58.416 34.584a17.1 17.1 0 0 0-3-3L48 39V28.28a16.326 16.326 0 0 0-6 0V39l-7.24-7.24a16.973 16.973 0 0 0-1.945 4.055L39 42h-6.95a16.907 16.907 0 0 0 1.47 6H39l-3.416 3.416a17.1 17.1 0 0 0 3 3L42 51v5.48a16.907 16.907 0 0 0 6 1.47V51l6.185 6.185a16.973 16.973 0 0 0 4.055-1.945L51 48h10.724a16.326 16.326 0 0 0 0-6H51Z" style="" fill="#ffffff" data-original="#ffffff"></path><path d="m47 42.707 9.867-9.867a17.485 17.485 0 0 0-.74-.674L47 41.293V28.128a15.689 15.689 0 0 0-4 0V43h-.293l-9.867-9.867c-.233.239-.455.488-.674.74L41.293 43H28.128a15.689 15.689 0 0 0 0 4H43v.293l-9.867 9.867c.239.233.488.455.74.674L43 48.707v13.165a15.689 15.689 0 0 0 4 0V47h.293l9.867 9.867c.233-.239.455-.488.674-.74L48.707 47h13.165a15.689 15.689 0 0 0 0-4H47Z" style="" fill="#c1272d" data-original="#c1272d"></path><path d="M3.743 34A1.742 1.742 0 0 0 5.4 32.808 2.645 2.645 0 0 1 7.906 31a1.518 1.518 0 0 1 1.44 1.038A2.869 2.869 0 0 0 12.068 34 1.932 1.932 0 0 0 14 32.068a8.766 8.766 0 0 0-.925-3.918A3.89 3.89 0 0 0 9.6 26H6.3a4.3 4.3 0 0 0-2.387.723A4.3 4.3 0 0 0 2 30.3v1.954A1.744 1.744 0 0 0 3.743 34ZM3.97 13h.06A1.97 1.97 0 0 0 6 11.03a7.316 7.316 0 0 1 2.142-5.172l.237-.237A2.12 2.12 0 0 0 9 4.121 2.122 2.122 0 0 0 6.879 2a3.757 3.757 0 0 0-3.006 1.5A9.361 9.361 0 0 0 2 9.121v1.909A1.97 1.97 0 0 0 3.97 13Z" style="" fill="#ff6600" data-original="#006837" class=""></path><path d="m47 42.707 9.852-9.882c-.24-.232-.489-.454-.741-.673L47 41.293V28.128A17.138 17.138 0 0 0 45 28a16.92 16.92 0 0 0-2 .131V43h-.293l-9.131-9.1c-.15.325-.292.654-.423.99l8.14 8.11h-9.165a16.821 16.821 0 0 0 .982 4H43v.293l-5.858 5.876c.239.233.488.454.74.673L43 48.707v8.183a16.821 16.821 0 0 0 4 .982V47h.293l9.249 9.221c.312-.155.616-.325.916-.5L48.707 47h13.162A16.92 16.92 0 0 0 62 45a17.138 17.138 0 0 0-.128-2H47Z" style="" fill="#dd1f2d" data-original="#dd1f2d"></path></g></g></svg>